<?xml version="1.0" encoding="UTF-8"?>
<svg id="Capa_1" data-name="Capa 1" xmlns="http://www.w3.org/2000/svg" viewBox="0 0 274.06 1263.48">
  <defs>
    <style>
      .cls-1 {
        fill: #fff;
      }
    </style>
  </defs>
  <g>
    <path class="cls-1" d="M119.76,785.85c1.24,0,2.42.4,3.56.91,1.17.58,2.18,1.43,2.96,2.52.94,1.15,1.56,2.55,2.09,4.01.48,1.58.71,3.5.71,5.68,0,2.4-.17,4.41-.56,6.35-.42,1.88-1.04,3.8-1.86,5.75h-5.18v-.33c1.38-1.61,2.32-3.53,3-5.65.75-2.16,1.08-4.16,1.08-6.17,0-2.67-.46-4.8-1.38-6.29-.94-1.49-2.25-2.22-3.81-2.22-1.36,0-2.37.33-3.06,1.06-.61.7-1.11,1.82-1.47,3.22-.32,1.13-.52,2.28-.71,3.62-.17,1.22-.43,2.61-.68,4.04-.55,2.92-1.53,5.04-2.96,6.41-1.07,1.13-2.45,1.7-4.05,1.98v-4.71c.5-.15.85-.36,1.24-.7.75-.73,1.24-1.95,1.6-3.71.2-.97.46-2.28.75-4.07.26-1.67.59-3.16.81-4.35.61-2.4,1.56-4.22,2.79-5.5,1.21-1.19,2.93-1.85,5.11-1.85h0ZM107.44,779.43v-4.41h8.96c1.66,0,2.96-.06,3.97-.3.94-.27,1.79-.73,2.61-1.25.88-.64,1.57-1.55,1.98-2.64.52-1.15.75-2.43.75-3.98s-.23-2.92-.75-4.01c-.42-1.09-1.1-1.95-1.98-2.58-.81-.61-1.72-1-2.74-1.24-.96-.27-2.23-.4-3.74-.4h-9.06v-4.32h8.77c2.25,0,4.17.27,5.8.79,1.72.49,3.03,1.37,4.17,2.55,1.11,1.09,1.86,2.4,2.28,3.92.52,1.55.75,3.31.75,5.29s-.23,3.83-.75,5.38c-.55,1.46-1.29,2.79-2.28,3.77-1.14,1.25-2.5,2.07-4.1,2.61-1.57.52-3.56.82-5.87.82h-8.77ZM107.44,745.98v-4.27h6.17v-3.74c0-1.76-.14-3.21-.46-4.24-.29-1.05-.75-1.99-1.43-2.69-.61-.61-1.29-1.09-2.04-1.43-.69-.24-1.44-.46-2.23-.46v-4.51c1.24.06,2.35.29,3.46.74,1.14.52,2.15,1.25,2.99,2.11,1.07,1.2,1.89,2.52,2.38,4,.49,1.55.81,3.48.81,5.84v4.38h11.5v4.27h-21.15ZM107.44,718.93v-4.36h2.42v-17.13h3.61v17.13h11.44v-17.13h3.68v21.49h-21.15ZM107.44,690.53v-4.36h5.48v-4.36c0-1.43-.13-2.61-.39-3.59-.19-1-.62-1.96-1.24-2.61-.62-.71-1.24-1.2-1.99-1.5-.56-.18-1.13-.32-1.86-.38v-4.5c1.67.2,3.04.73,4.22,1.7,1.56,1.11,2.71,2.8,3.44,4.86l13.49-12.29v5.61l-12.32,11v6.06h12.32v4.36h-21.15ZM107.44,656.38v-4.32h17.98v-4.3h3.17v12.93h-3.17v-4.32h-17.98ZM107.44,640.36v-4.04h21.15v4.04h-21.15ZM107.44,632.75v-4.54l15.49-8.68h-15.49v-4.04h21.15v5.4l-21.15,11.87h0ZM107.44,599.51v-4.36h21.15v4.36h-21.15ZM107.44,579.09v-4.33h2.42v-17.22h3.61v17.22h11.44v-17.22h3.68v21.55h-21.15ZM107.44,550.7v-4.03h21.15v4.03h-21.15ZM107.44,542.95v-4.45l15.49-8.63h-15.49v-4.04h21.15v5.33l-21.15,11.79h0ZM107.44,517.1v-4.38h17.6v-4.04c0-2.16-.12-3.97-.42-5.47-.33-1.57-.89-2.99-1.63-4.22-.98-1.7-2.24-2.93-3.85-3.75-1.63-.82-3.61-1.2-6-1.2-2.24,0-4.17.38-5.7,1.14v-4.73c1.74-.64,3.66-.96,5.77-.96,2.8,0,5.3.64,7.53,1.93,2.31,1.29,4.13,2.99,5.37,5.24.87,1.44,1.49,3.02,1.92,4.94.33,1.88.55,4.22.55,7.3v8.21h-21.15ZM107.44,482.47v-4.35h2.42v-17.19h3.61v17.19h11.44v-17.19h3.68v21.53h-21.15ZM107.44,454.08v-4.04h21.15v4.04h-21.15ZM107.44,446.33v-4.47l15.49-8.63h-15.49v-4.03h21.15v5.33l-21.15,11.79h0ZM107.44,421.58v-4.67l.23.05c1.63.58,3.48.85,5.54.85s4.04-.35,5.54-.9c1.56-.61,2.86-1.43,3.81-2.43.98-1.05,1.79-2.22,2.32-3.59.42-1.37.68-2.79.68-4.3,0-2.16-.33-4.04-1.01-5.85-.68-1.96-1.69-3.63-3.07-5.23v-.26h4.86c.32.71.65,1.5.94,2.14.32.65.55,1.5.88,2.57.26.88.49,1.87.68,2.95.24,1,.24,2.19.24,3.42,0,2.34-.24,4.56-.91,6.44-.56,1.96-1.63,3.66-2.93,5.14-1.31,1.38-3,2.48-4.99,3.21-1.97.79-4.36,1.2-7.03,1.2-2.11,0-4.03-.23-5.77-.74h0ZM107.44,386.2v-4.35h17.98v-4.22h3.17v12.87h-3.17v-4.3h-17.98ZM107.44,365.87v-4.22l9.06,3.5v-11.52l-9.06,3.4v-4.45l21.15-8.13v4.64l-8.56,3.22v14.07l8.56,3.22v4.42l-21.15-8.14h0ZM107.44,323.71v-4.36h2.68v-14.13h3.58v14.13h14.89v4.36h-21.15ZM107.44,294.94v-4.32h17.98v-4.24h3.17v12.86h-3.17v-4.3h-17.98ZM107.44,278.96v-4.03h21.15v4.03h-21.15ZM107.44,271.3v-4.45l15.49-8.74h-15.49v-4.04h21.15v5.35l-21.15,11.88h0ZM107.44,241.02v-4.22l9.06,3.45v-11.47l-9.06,3.39v-4.45l21.15-8.12v4.63l-8.56,3.19v14.13l8.56,3.27v4.36l-21.15-8.16h0ZM107.44,214.64v-4.04h21.15v4.04h-21.15ZM107.44,206.97v-4.48l15.49-8.68h-15.49v-4.04h21.15v5.33l-21.15,11.87h0ZM107.44,182.14v-4.73l.23.14c1.63.56,3.48.81,5.54.81s4.04-.24,5.54-.94c1.56-.55,2.86-1.37,3.81-2.37.98-.97,1.79-2.16,2.32-3.53.42-1.43.68-2.86.68-4.36,0-2.16-.33-4.1-1.01-5.87-.68-1.9-1.69-3.56-3.07-5.15v-.32h4.86c.32.77.65,1.57.94,2.14.32.73.55,1.57.88,2.58.26.94.49,1.87.68,2.99.24,1,.24,2.11.24,3.34,0,2.42-.24,4.57-.91,6.46-.56,2.02-1.63,3.72-2.93,5.09-1.31,1.43-3,2.48-4.99,3.3-1.97.79-4.36,1.22-7.03,1.22-2.11,0-4.03-.23-5.77-.81h0ZM107.44,146.76v-4.35h17.98v-4.29h3.17v12.92h-3.17v-4.29h-17.98ZM107.44,130.8v-4.36h2.42v-17.2h3.61v17.2h11.44v-17.2h3.68v21.56h-21.15ZM107.44,102.4v-4.38h5.48v-4.44c0-1.29-.13-2.52-.39-3.52-.19-.96-.62-1.93-1.24-2.58-.62-.67-1.24-1.14-1.99-1.5-.56-.2-1.13-.32-1.86-.4v-4.56c1.67.18,3.04.77,4.22,1.7,1.56,1.15,2.71,2.86,3.44,4.95l13.49-12.34v5.62l-12.32,10.97v6.09h12.32v4.38h-21.15ZM107.44,66.8v-4.18l9.06,3.36v-11.4l-9.06,3.37v-4.36l21.15-8.22v4.59l-8.56,3.25v14.13l8.56,3.18v4.44l-21.15-8.16ZM107.44,810.74c-.44.06-.94.12-1.43.12-2.57,0-4.68-1.15-6.35-3.47-1.63-2.31-2.44-5.26-2.44-8.78,0-2.34.19-4.44.62-6.32.39-1.95.87-3.59,1.5-5.07h4.85v.33c-.97,1.22-1.79,2.86-2.47,4.83-.62,2.07-1.01,4.07-1.01,6.23,0,2.34.49,4.22,1.43,5.62.88,1.43,2.05,2.13,3.49,2.13.68,0,1.31-.12,1.82-.33v4.71h0ZM107.44,53.59v4.36l-6.06,2.34,6.06,2.32v4.18l-9.67-3.77v-5.79l9.67-3.65h0ZM107.44,81.02v4.56c-.32-.06-.65-.06-1-.06-.88,0-1.69.18-2.38.52-.62.3-1.24.85-1.67,1.64-.45.64-.74,1.37-.87,2.2-.14.88-.26,1.96-.26,3.07v5.08h6.18v4.38h-9.67v-9.13c0-2.02.07-3.71.33-4.95.23-1.29.75-2.54,1.3-3.53.69-1.26,1.63-2.13,2.67-2.8,1.08-.7,2.46-1.03,4.11-1.03.46,0,.82,0,1.26.06h0ZM107.44,126.44v4.36h-9.67v-21.56h3.61v17.2h6.06ZM107.44,142.41v4.35h-6.54v4.29h-3.12v-12.92h3.12v4.29h6.54ZM107.44,177.41v4.73c-.32-.12-.74-.26-1-.39-1.98-.7-3.81-1.82-5.11-3.25-1.38-1.38-2.36-3.07-3.1-5.09-.68-1.88-1.01-4.1-1.01-6.52,0-1.75.19-3.48.62-5.2.32-1.75,1.01-3.72,2.04-5.87h4.86v.4c-1.38,1.72-2.42,3.59-3.1,5.33-.62,1.75-.94,3.59-.94,5.68,0,1.61.26,3.15.75,4.42.49,1.37,1.24,2.48,2.38,3.53.92.93,2.18,1.69,3.61,2.23h0ZM107.44,189.77v4.04h-9.67v-4.04h9.67ZM107.44,202.49v4.48l-6.41,3.63h6.41v4.04h-9.67v-6.7l9.67-5.46h0ZM107.44,227.71v4.45l-6.06,2.36,6.06,2.28v4.22l-9.67-3.71v-5.79l9.67-3.81h0ZM107.44,254.06v4.04h-9.67v-4.04h9.67ZM107.44,266.84v4.45l-6.41,3.63h6.41v4.03h-9.67v-6.72l9.67-5.4h0ZM107.44,290.63v4.32h-6.54v4.3h-3.12v-12.86h3.12v4.24h6.54ZM107.44,319.35v4.36h-9.67v-20.84h3.61v16.47h6.06ZM107.44,352.57v4.45l-6.06,2.3,6.06,2.32v4.22l-9.67-3.74v-5.84l9.67-3.72h0ZM107.44,381.85v4.35h-6.54v4.3h-3.12v-12.87h3.12v4.22h6.54ZM107.44,416.91v4.67c-.32-.18-.74-.26-1-.46-1.98-.73-3.81-1.75-5.11-3.21-1.38-1.43-2.36-3.04-3.1-5-.68-2.02-1.01-4.24-1.01-6.58,0-1.76.19-3.48.62-5.21.32-1.84,1.01-3.72,2.04-5.87h4.86v.26c-1.38,1.84-2.42,3.59-3.1,5.41-.62,1.76-.94,3.65-.94,5.67,0,1.69.26,3.16.75,4.48.49,1.32,1.24,2.55,2.38,3.52.92.93,2.18,1.7,3.61,2.31h0ZM107.44,429.2v4.03h-9.67v-4.03h9.67ZM107.44,441.86v4.47l-6.41,3.71h6.41v4.04h-9.67v-6.7l9.67-5.52h0ZM107.44,478.12v4.35h-9.67v-21.53h3.61v17.19h6.06ZM107.44,490.45v4.73l-.44.15c-1.57.91-2.94,2.3-3.85,4.07-.75,1.28-1.2,2.66-1.43,4.09-.33,1.46-.46,3.18-.46,5.2v4.04h6.18v4.38h-9.67v-8.16c0-3.25.19-5.73.62-7.61.46-1.87,1-3.45,1.82-4.8,1.31-2.17,3.03-3.92,5.21-5.17.61-.36,1.28-.67,2.01-.91h0ZM107.44,525.82v4.04h-9.67v-4.04h9.67ZM107.44,538.5v4.45l-6.41,3.72h6.41v4.03h-9.67v-6.7l9.67-5.5h0ZM107.44,574.76v4.33h-9.67v-21.55h3.61v17.22h6.06ZM107.44,595.15v4.36h-6.06v11.66h-3.61v-27.66h3.61v11.64h6.06ZM107.44,615.48v4.04h-9.67v-4.04h9.67ZM107.44,628.2v4.54l-6.41,3.57h6.41v4.04h-9.67v-6.7l9.67-5.46h0ZM107.44,652.06v4.32h-6.54v4.32h-3.12v-12.93h3.12v4.3h6.54ZM107.44,669.22v4.5c-.32,0-.65-.06-1-.06-.88,0-1.69.12-2.38.44-.62.36-1.24.91-1.67,1.69-.45.61-.74,1.35-.87,2.25-.14.77-.26,1.84-.26,3.04v5.09h6.18v4.36h-9.67v-9.15c0-2.01.07-3.62.33-4.91.23-1.38.75-2.55,1.3-3.57.69-1.2,1.63-2.11,2.67-2.8,1.08-.68,2.46-1,4.11-1,.46,0,.82.08,1.26.12h0ZM107.44,714.57v4.36h-9.67v-21.49h3.61v17.13h6.06ZM107.44,724.64v4.51h-.25c-1.08,0-1.99.21-2.73.59-.82.46-1.5,1.05-1.99,1.84-.4.64-.74,1.52-.87,2.4-.21.85-.33,1.99-.33,3.42v4.3h6.18v4.27h-9.67v-8.8c0-2.02.12-3.66.46-5.01.29-1.37.81-2.55,1.43-3.6.78-1.22,1.79-2.2,2.96-2.9,1.21-.67,2.64-1.02,4.43-1.02h.39ZM107.44,754.3v4.32h-9.67v-4.32h9.67ZM107.44,775.02v4.41h-9.67v-4.41h9.67Z"/>
    <path class="cls-1" d="M119.76,785.85c1.24,0,2.42.4,3.56.91,1.17.58,2.18,1.43,2.96,2.52.94,1.15,1.56,2.55,2.09,4.01.48,1.58.71,3.5.71,5.68,0,2.4-.17,4.41-.56,6.35-.42,1.88-1.04,3.8-1.86,5.75h-5.18v-.33c1.38-1.61,2.32-3.53,3-5.65.75-2.16,1.08-4.16,1.08-6.17,0-2.67-.46-4.8-1.38-6.29-.94-1.49-2.25-2.22-3.81-2.22-1.36,0-2.37.33-3.06,1.06-.61.7-1.11,1.82-1.47,3.22-.32,1.13-.52,2.28-.71,3.62-.17,1.22-.43,2.61-.68,4.04-.55,2.92-1.53,5.04-2.96,6.41-1.37,1.37-3.2,2.1-5.48,2.1-2.57,0-4.68-1.15-6.35-3.47-1.63-2.31-2.44-5.26-2.44-8.78,0-2.34.19-4.44.62-6.32.39-1.95.87-3.59,1.5-5.07h4.85v.33c-.97,1.22-1.79,2.86-2.47,4.83-.62,2.07-1.01,4.07-1.01,6.23,0,2.34.49,4.22,1.43,5.62.88,1.43,2.05,2.13,3.49,2.13,1.31,0,2.32-.4,3.05-1.03.75-.73,1.24-1.95,1.6-3.71.2-.97.46-2.28.75-4.07.26-1.67.59-3.16.81-4.35.61-2.4,1.56-4.22,2.79-5.5,1.21-1.19,2.93-1.85,5.11-1.85h0ZM116.21,754.3c2.25,0,4.17.27,5.8.79,1.72.49,3.03,1.37,4.17,2.55,1.11,1.09,1.86,2.4,2.28,3.92.52,1.55.75,3.31.75,5.29s-.23,3.83-.75,5.38c-.55,1.46-1.29,2.79-2.28,3.77-1.14,1.25-2.5,2.07-4.1,2.61-1.57.52-3.56.82-5.87.82h-18.43v-4.41h18.63c1.66,0,2.96-.06,3.97-.3.94-.27,1.79-.73,2.61-1.25.88-.64,1.57-1.55,1.98-2.64.52-1.15.75-2.43.75-3.98s-.23-2.92-.75-4.01c-.42-1.09-1.1-1.95-1.98-2.58-.81-.61-1.72-1-2.74-1.24-.96-.27-2.23-.4-3.74-.4h-18.73v-4.32h18.43ZM107.06,724.64c1.38,0,2.61.26,3.85.74,1.14.52,2.15,1.25,2.99,2.11,1.07,1.2,1.89,2.52,2.38,4,.49,1.55.81,3.48.81,5.84v4.38h11.5v4.27h-30.82v-8.8c0-2.02.12-3.66.46-5.01.29-1.37.81-2.55,1.43-3.6.78-1.22,1.79-2.2,2.96-2.9,1.21-.67,2.64-1.02,4.43-1.02h0ZM107.19,729.15c-1.08,0-1.99.21-2.73.59-.82.46-1.5,1.05-1.99,1.84-.4.64-.74,1.52-.87,2.4-.21.85-.33,1.99-.33,3.42v4.3h12.35v-3.74c0-1.76-.14-3.21-.46-4.24-.29-1.05-.75-1.99-1.43-2.69-.61-.61-1.29-1.09-2.04-1.43-.75-.24-1.57-.46-2.48-.46h0ZM128.6,697.44v21.49h-30.82v-21.49h3.61v17.13h8.48v-17.13h3.61v17.13h11.44v-17.13h3.68ZM128.6,663.49v5.61l-12.32,11v6.06h12.32v4.36h-30.82v-9.15c0-2.01.07-3.62.33-4.91.23-1.38.75-2.55,1.3-3.57.69-1.2,1.63-2.11,2.67-2.8,1.08-.68,2.46-1,4.11-1,2.18,0,4.01.64,5.48,1.82,1.56,1.11,2.71,2.8,3.44,4.86l13.49-12.29h0ZM106.44,673.66c-.88,0-1.69.12-2.38.44-.62.36-1.24.91-1.67,1.69-.45.61-.74,1.35-.87,2.25-.14.77-.26,1.84-.26,3.04v5.09h11.66v-4.36c0-1.43-.13-2.61-.39-3.59-.19-1-.62-1.96-1.24-2.61-.62-.71-1.24-1.2-1.99-1.5-.75-.32-1.69-.44-2.86-.44h0ZM128.6,647.76v12.93h-3.17v-4.32h-24.53v4.32h-3.12v-12.93h3.12v4.3h24.53v-4.3h3.17ZM128.6,615.48v5.4l-27.56,15.44h27.56v4.04h-30.82v-6.7l25.15-14.13h-25.15v-4.04h30.82ZM101.39,583.51v11.64h27.21v4.36h-27.21v11.66h-3.61v-27.66h3.61ZM128.6,557.54v21.55h-30.82v-21.55h3.61v17.22h8.48v-17.22h3.61v17.22h11.44v-17.22h3.68ZM128.6,525.82v5.33l-27.56,15.51h27.56v4.03h-30.82v-6.7l25.15-14.13h-25.15v-4.04h30.82ZM113.22,489.49c2.8,0,5.3.64,7.53,1.93,2.31,1.29,4.13,2.99,5.37,5.24.87,1.44,1.49,3.02,1.92,4.94.33,1.88.55,4.22.55,7.3v8.21h-30.82v-8.16c0-3.25.19-5.73.62-7.61.46-1.87,1-3.45,1.82-4.8,1.31-2.17,3.03-3.92,5.21-5.17,2.19-1.23,4.76-1.87,7.79-1.87h0ZM113.15,494.03c-2.48,0-4.47.46-6.15,1.29-1.57.91-2.94,2.3-3.85,4.07-.75,1.28-1.2,2.66-1.43,4.09-.33,1.46-.46,3.18-.46,5.2v4.04h23.77v-4.04c0-2.16-.12-3.97-.42-5.47-.33-1.57-.89-2.99-1.63-4.22-.98-1.7-2.24-2.93-3.85-3.75-1.63-.82-3.61-1.2-6-1.2h0ZM128.6,460.94v21.53h-30.82v-21.53h3.61v17.19h8.48v-17.19h3.61v17.19h11.44v-17.19h3.68ZM128.6,429.2v5.33l-27.56,15.5h27.56v4.04h-30.82v-6.7l25.15-14.15h-25.15v-4.03h30.82ZM126.35,395.26c.32.71.65,1.5.94,2.14.32.65.55,1.5.88,2.57.26.88.49,1.87.68,2.95.24,1,.24,2.19.24,3.42,0,2.34-.24,4.56-.91,6.44-.56,1.96-1.63,3.66-2.93,5.14-1.31,1.38-3,2.48-4.99,3.21-1.97.79-4.36,1.2-7.03,1.2s-4.79-.41-6.78-1.2c-1.98-.73-3.81-1.75-5.11-3.21-1.38-1.43-2.36-3.04-3.1-5-.68-2.02-1.01-4.24-1.01-6.58,0-1.76.19-3.48.62-5.21.32-1.84,1.01-3.72,2.04-5.87h4.86v.26c-1.38,1.84-2.42,3.59-3.1,5.41-.62,1.76-.94,3.65-.94,5.67,0,1.69.26,3.16.75,4.48.49,1.32,1.24,2.55,2.38,3.52.98.97,2.35,1.84,3.85,2.36,1.63.58,3.48.85,5.54.85s4.04-.35,5.54-.9c1.56-.61,2.86-1.43,3.81-2.43.98-1.05,1.79-2.22,2.32-3.59.42-1.37.68-2.79.68-4.3,0-2.16-.33-4.04-1.01-5.85-.68-1.96-1.69-3.63-3.07-5.23v-.26h4.86ZM128.6,377.63v12.87h-3.17v-4.3h-24.53v4.3h-3.12v-12.87h3.12v4.22h24.53v-4.22h3.17ZM128.6,344.44v4.64l-8.56,3.22v14.07l8.56,3.22v4.42l-30.82-11.88v-5.84l30.82-11.85h0ZM116.51,353.62l-15.12,5.7,15.12,5.82v-11.52h0ZM101.39,302.87v16.47h8.74v-14.13h3.58v14.13h14.89v4.36h-30.82v-20.84h3.61ZM128.6,286.39v12.86h-3.17v-4.3h-24.53v4.3h-3.12v-12.86h3.12v4.24h24.53v-4.24h3.17ZM128.6,254.06v5.35l-27.56,15.51h27.56v4.03h-30.82v-6.72l25.15-14.13h-25.15v-4.04h30.82ZM128.6,219.6v4.63l-8.56,3.19v14.13l8.56,3.27v4.36l-30.82-11.87v-5.79l30.82-11.93h0ZM116.51,228.78l-15.12,5.75,15.12,5.73v-11.47h0ZM128.6,189.77v5.33l-27.56,15.5h27.56v4.04h-30.82v-6.7l25.15-14.13h-25.15v-4.04h30.82ZM126.35,155.82c.32.77.65,1.57.94,2.14.32.73.55,1.57.88,2.58.26.94.49,1.87.68,2.99.24,1,.24,2.11.24,3.34,0,2.42-.24,4.57-.91,6.46-.56,2.02-1.63,3.72-2.93,5.09-1.31,1.43-3,2.48-4.99,3.3-1.97.79-4.36,1.22-7.03,1.22s-4.79-.42-6.78-1.2c-1.98-.7-3.81-1.82-5.11-3.25-1.38-1.38-2.36-3.07-3.1-5.09-.68-1.88-1.01-4.1-1.01-6.52,0-1.75.19-3.48.62-5.2.32-1.75,1.01-3.72,2.04-5.87h4.86v.4c-1.38,1.72-2.42,3.59-3.1,5.33-.62,1.75-.94,3.59-.94,5.68,0,1.61.26,3.15.75,4.42.49,1.37,1.24,2.48,2.38,3.53.98.96,2.35,1.82,3.85,2.37,1.63.56,3.48.81,5.54.81s4.04-.24,5.54-.94c1.56-.55,2.86-1.37,3.81-2.37.98-.97,1.79-2.16,2.32-3.53.42-1.43.68-2.86.68-4.36,0-2.16-.33-4.1-1.01-5.87-.68-1.9-1.69-3.56-3.07-5.15v-.32h4.86ZM128.6,138.13v12.92h-3.17v-4.29h-24.53v4.29h-3.12v-12.92h3.12v4.29h24.53v-4.29h3.17ZM128.6,109.24v21.56h-30.82v-21.56h3.61v17.2h8.48v-17.2h3.61v17.2h11.44v-17.2h3.68ZM128.6,75.34v5.62l-12.32,10.97v6.09h12.32v4.38h-30.82v-9.13c0-2.02.07-3.71.33-4.95.23-1.29.75-2.54,1.3-3.53.69-1.26,1.63-2.13,2.67-2.8,1.08-.7,2.46-1.03,4.11-1.03,2.18,0,4.01.58,5.48,1.76,1.56,1.15,2.71,2.86,3.44,4.95l13.49-12.34h0ZM106.44,85.52c-.88,0-1.69.18-2.38.52-.62.3-1.24.85-1.67,1.64-.45.64-.74,1.37-.87,2.2-.14.88-.26,1.96-.26,3.07v5.08h11.66v-4.44c0-1.29-.13-2.52-.39-3.52-.19-.96-.62-1.93-1.24-2.58-.62-.67-1.24-1.14-1.99-1.5-.75-.27-1.69-.46-2.86-.46h0ZM128.6,45.37v4.59l-8.56,3.25v14.13l8.56,3.18v4.44l-30.82-11.93v-5.79l30.82-11.87h0ZM116.51,54.58l-15.12,5.71,15.12,5.68v-11.4Z"/>
  </g>
  <g>
    <path class="cls-1" d="M170.19,582.9c.49.2.98.47,1.5.7,2.21,1.28,4.04,2.99,5.28,5.15.87,1.5,1.5,3.16,1.92,5.03.33,1.81.52,4.22.52,7.22v8.21h-9.22v-4.29h5.74v-4.12c0-2.05-.12-3.89-.46-5.45-.3-1.57-.85-2.99-1.6-4.32-.95-1.55-2.12-2.66-3.68-3.54v-4.59h0ZM170.19,574.7v-4.36h5.61v-17.2h3.61v21.56h-9.22ZM170.19,531.43v-4.82c1.31-.56,2.35-1.25,3.23-2.16,1.08-1.05,1.82-2.22,2.32-3.59.49-1.37.75-2.87.75-4.36,0-2.02-.4-3.98-1.08-5.82-.62-1.87-1.66-3.57-3.03-5.2v-.32h4.79c.37.84.68,1.49.98,2.26.26.59.59,1.5.94,2.55.26.85.42,1.81.62,2.86.19,1.05.25,2.16.25,3.43,0,2.43-.32,4.51-.87,6.53-.68,1.87-1.67,3.53-3,5.03-1.31,1.37-2.96,2.48-5.01,3.25-.27.14-.59.26-.89.33h0ZM170.19,500.14v-4.74c1.17-.46,2.25-1.13,3.1-1.82,2.18-1.96,3.25-4.56,3.25-7.84s-1.07-5.79-3.25-7.72c-.85-.8-1.93-1.46-3.1-1.91v-4.59l.62.17c2.05.79,3.75,1.76,5.04,3.07,1.44,1.29,2.48,2.92,3.16,4.74.69,1.84,1.08,3.98,1.08,6.25s-.39,4.39-1.08,6.34c-.75,1.87-1.79,3.47-3.16,4.76-1.29,1.29-3.05,2.4-5.04,3.07l-.62.24h0ZM170.19,463.73v-4.38h5.61v-16.29h3.61v20.67h-9.22ZM170.19,440.21v-4.68c1.17-.5,2.25-1.19,3.1-1.93,2.18-1.91,3.25-4.53,3.25-7.7,0-3.34-1.07-5.96-3.25-7.8-.85-.82-1.93-1.41-3.1-1.93v-4.62l.62.2c2.05.75,3.75,1.76,5.04,3.05,1.44,1.37,2.48,2.93,3.16,4.8.69,1.79,1.08,3.92,1.08,6.29s-.39,4.36-1.08,6.28c-.75,1.79-1.79,3.42-3.16,4.73-1.29,1.35-3.05,2.37-5.04,3.05-.19.08-.42.2-.62.26h0ZM170.19,403.78v-4.03h9.22v4.03h-9.22ZM170.19,391.08v-3.37l.75.46v2.6l-.75.32h0ZM170.19,379.06v-4.38h9.22v4.38h-9.22ZM170.19,365.93v-4.36h5.74v-5.73c0-1.88-.07-3.42-.33-4.7-.13-1.17-.49-2.2-.98-2.96-.51-.81-1.13-1.43-1.82-1.72-.75-.46-1.5-.67-2.61-.67v-4.45c1.44,0,2.67.3,3.85.88,1.13.58,2.11,1.44,2.86,2.46.94,1.24,1.57,2.55,1.98,4.04.33,1.5.52,3.34.52,5.62v11.58h-9.22ZM170.19,332.25v-4.36h6.1v-4.32h3.12v12.98h-3.12v-4.3h-6.1ZM170.19,316.49v-22.48l9.22-3.53v4.67l-8.6,3.09v14.21l8.6,3.19v4.44l-9.22-3.59ZM164.1,581.72c2.21,0,4.2.36,6.09,1.19v4.59l-.19-.03c-1.63-.87-3.62-1.2-5.96-1.2v-4.54h.07ZM170.19,609.21h-6.15v-4.29h6.15v4.29h0ZM170.19,294.02v22.48l-6.15-2.35v-4.24l3.29,1.25v-11.53l-3.29,1.25v-4.48l6.15-2.36h0ZM170.19,327.89v4.36h-6.15v-4.36h6.15ZM170.19,341.34v4.45h-.07c-1.24,0-2.24.21-2.99.67-.75.37-1.31,1.03-1.79,2.08-.39.71-.56,1.55-.75,2.57-.07,1-.07,2.19-.07,3.68v6.78h5.67v4.36h-6.15v-22.08c.17-.18.42-.4.62-.64,1.43-1.24,3.16-1.87,5.27-1.87h.26ZM170.19,374.68v4.38h-6.15v-4.38h6.15ZM170.19,387.7v3.37l-6.15,3.15v-4.18l1.79-.91-1.79-.85v-3.62l6.15,3.04h0ZM170.19,399.75v4.03h-6.15v-4.03h6.15ZM170.19,411.55v4.62c-1.69-.64-3.81-.97-6.15-.97h0v-4.5h0c2.28,0,4.27.33,6.15.85h0ZM170.19,435.53v4.68c-1.82.52-3.87.84-6.15.84h0v-4.51h0c2.35,0,4.46-.36,6.15-1h0ZM170.19,459.35v4.38h-6.15v-4.38h6.15ZM170.19,471.51v4.59c-1.69-.61-3.81-.97-6.15-.97h0v-4.54h0c2.28,0,4.27.32,6.15.93h0ZM170.19,495.4v4.74c-1.82.56-3.87.79-6.15.79h0v-4.5h0c2.35,0,4.46-.33,6.15-1.03h0ZM170.19,526.62v4.82c-1.82.59-3.87.91-6.09.91h-.07v-4.57h.07c2.12,0,3.97-.29,5.54-.91l.55-.24h0ZM170.19,570.33v4.36h-6.15v-21.56h.3v17.2h5.86ZM164.04,609.21h-7.49v-4.29h7.49v4.29h0ZM156.54,583.37c2.12-1.2,4.63-1.66,7.49-1.66v4.54h0c-2.45,0-4.49.41-6.12,1.29-.49.17-.91.5-1.37.88v-5.06h0ZM164.04,296.37v4.48l-7.49,2.86v-4.41l7.49-2.93h0ZM164.04,309.9v4.24l-7.49-2.92v-4.26l7.49,2.93h0ZM164.04,327.89v4.36h-7.49v-4.36h7.49ZM164.04,343.85v22.08h-7.49v-4.36h4.43v-5.59c0-1.38,0-2.4-.19-3.27-.07-.77-.37-1.57-.82-2.2-.36-.73-.91-1.19-1.6-1.5-.52-.2-1.14-.33-1.82-.38v-4.48c1.07.09,1.96.55,2.71,1.14,1.05.79,1.85,1.84,2.54,3.13h.14c.35-1.81,1.11-3.37,2.11-4.56h0ZM164.04,374.68v4.38h-7.49v-4.38h7.49ZM164.04,384.66v3.62l-7.49-3.62v-3.74l7.49,3.74h0ZM164.04,390.04v4.18l-7.49,3.69v-4.09l7.49-3.78h0ZM164.04,399.75v4.03h-7.49v-4.03h7.49ZM164.04,410.69v4.5c-3.06,0-5.5.52-7.49,1.66v-4.85l.68-.26c2.02-.67,4.24-1.05,6.81-1.05h0ZM164.04,436.53v4.51c-2.57,0-4.79-.33-6.81-1.09l-.68-.26v-4.8c1.99,1.09,4.43,1.64,7.49,1.64h0ZM164.04,459.35v4.38h-7.49v-4.38h7.49ZM164.04,470.59v4.54c-3.06,0-5.5.55-7.49,1.64v-4.82l.68-.27c2.02-.64,4.24-1.09,6.81-1.09h0ZM164.04,496.43v4.5c-2.57,0-4.79-.26-6.81-1.03l-.68-.27v-4.76c1.99,1.05,4.43,1.57,7.49,1.57h0ZM164.04,527.77v4.57c-2.57,0-4.79-.46-6.81-1.18l-.68-.32v-4.79c.62.29,1.31.61,2.06.88,1.56.55,3.38.84,5.43.84h0ZM164.04,553.13v21.56h-7.49v-4.36h4.17v-17.2h3.32ZM156.54,609.21h-7.88v-8.13c0-3.13.16-5.73.55-7.57.49-1.88,1.1-3.53,1.85-4.76,1.31-2.26,3.06-4,5.24-5.24l.23-.14v5.06c-1.04.77-1.86,1.82-2.54,3.12-.75,1.25-1.18,2.69-1.5,4.12-.26,1.43-.35,3.16-.35,5.14v4.12h4.39v4.29h0ZM156.54,299.3v4.41l-4.3,1.64,4.3,1.61v4.26l-7.88-3.07v-5.73l7.88-3.12h0ZM156.54,327.89v4.36h-4.79v4.3h-3.09v-12.98h3.09v4.32h4.79ZM156.54,344.13v4.48h-.49c-.75,0-1.31.11-1.86.38-.52.26-.94.68-1.2,1.23-.42.75-.68,1.57-.75,2.54-.04,1-.09,2.23-.09,3.66v5.14h4.39v4.36h-7.88v-9.63c0-2.45.03-4.18.23-5.38.12-1.23.52-2.37,1.01-3.42.61-1.17,1.36-2.04,2.3-2.6.92-.59,2.06-.82,3.3-.82.36,0,.75.06,1.04.06h0ZM156.54,374.68v4.38h-3.65l3.65,1.87v3.74l-7.88-3.94v-6.05h7.88ZM156.54,393.83v4.09l-3.65,1.84h3.65v4.03h-7.88v-5.93l7.88-4.03h0ZM156.54,412v4.85c-.62.29-1.24.74-1.79,1.24-2.11,1.84-3.26,4.45-3.26,7.8s1.15,5.84,3.26,7.77c.55.43,1.17.88,1.79,1.23v4.8c-1.66-.62-3.1-1.63-4.34-2.8-1.36-1.31-2.44-2.93-3.19-4.8-.68-1.91-1.03-3.97-1.03-6.2,0-2.37.35-4.5,1.1-6.37.68-1.85,1.76-3.42,3.12-4.73,1.19-1.11,2.68-2.11,4.34-2.8h0ZM156.54,459.35v4.38h-7.88v-4.38h7.88ZM156.54,471.95v4.82c-.62.35-1.24.7-1.79,1.25-2.11,1.84-3.26,4.45-3.26,7.72s1.15,5.96,3.26,7.89c.55.41,1.17.87,1.79,1.24v4.76c-1.66-.64-3.1-1.6-4.34-2.8-1.36-1.29-2.44-2.89-3.19-4.76-.68-1.95-1.03-4.01-1.03-6.34s.35-4.41,1.1-6.25c.68-1.88,1.76-3.45,3.12-4.74,1.19-1.19,2.68-2.1,4.34-2.8h0ZM156.54,526.05v4.79c-1.66-.75-3.1-1.76-4.34-2.99-1.36-1.37-2.37-3.01-3.05-4.95-.75-2.02-1.1-4.18-1.1-6.61,0-1.73.23-3.48.62-5.26.42-1.72,1.1-3.71,2.11-5.85h4.86v.38c-1.38,1.76-2.45,3.57-3.14,5.35-.62,1.76-.94,3.65-.94,5.67,0,1.69.26,3.12.75,4.5.52,1.29,1.34,2.48,2.37,3.54.56.49,1.18,1.03,1.86,1.44h0ZM156.54,570.33v4.36h-7.88v-21.56h3.58v17.2h4.3Z"/>
    <path class="cls-1" d="M164.1,581.72c2.73,0,5.28.59,7.59,1.88,2.21,1.28,4.04,2.99,5.28,5.15.87,1.5,1.5,3.16,1.92,5.03.33,1.81.52,4.22.52,7.22v8.21h-30.75v-8.13c0-3.13.16-5.73.55-7.57.49-1.88,1.1-3.53,1.85-4.76,1.31-2.26,3.06-4,5.24-5.24,2.19-1.28,4.73-1.79,7.79-1.79h0ZM164.04,586.26c-2.45,0-4.49.41-6.12,1.29-1.66.88-2.96,2.19-3.91,4-.75,1.25-1.18,2.69-1.5,4.12-.26,1.43-.35,3.16-.35,5.14v4.12h23.77v-4.12c0-2.05-.12-3.89-.46-5.45-.3-1.57-.85-2.99-1.6-4.32-1.01-1.55-2.31-2.8-3.87-3.57-1.63-.87-3.62-1.2-5.96-1.2h0ZM179.42,553.13v21.56h-30.75v-21.56h3.58v17.2h8.47v-17.2h3.62v17.2h11.47v-17.2h3.61ZM177.17,505.17c.37.84.68,1.49.98,2.26.26.59.59,1.5.94,2.55.26.85.42,1.81.62,2.86.19,1.05.25,2.16.25,3.43,0,2.43-.32,4.51-.87,6.53-.68,1.87-1.67,3.53-3,5.03-1.31,1.37-2.96,2.48-5.01,3.25-2.02.79-4.31,1.24-6.97,1.24s-4.86-.46-6.88-1.18c-1.98-.84-3.65-1.82-5.02-3.31-1.36-1.37-2.37-3.01-3.05-4.95-.75-2.02-1.1-4.18-1.1-6.61,0-1.73.23-3.48.62-5.26.42-1.72,1.1-3.71,2.11-5.85h4.86v.38c-1.38,1.76-2.45,3.57-3.14,5.35-.62,1.76-.94,3.65-.94,5.67,0,1.69.26,3.12.75,4.5.52,1.29,1.34,2.48,2.37,3.54,1.05,1.03,2.32,1.73,3.92,2.32,1.56.55,3.44.84,5.5.84s3.97-.29,5.54-.91c1.53-.65,2.86-1.43,3.78-2.4,1.08-1.05,1.82-2.22,2.32-3.59.49-1.37.75-2.87.75-4.36,0-2.02-.4-3.98-1.08-5.82-.62-1.87-1.66-3.57-3.03-5.2v-.32h4.79ZM152.21,474.75c1.31-1.37,3.04-2.36,5.02-3.07,2.02-.64,4.24-1.09,6.81-1.09s4.79.46,6.78,1.09c2.05.79,3.75,1.76,5.04,3.07,1.44,1.29,2.48,2.92,3.16,4.74.69,1.84,1.08,3.98,1.08,6.25s-.39,4.39-1.08,6.34c-.75,1.87-1.79,3.47-3.16,4.76-1.29,1.29-3.05,2.4-5.04,3.07-1.98.77-4.23,1.03-6.78,1.03s-4.75-.26-6.81-1.03c-1.92-.67-3.65-1.78-5.02-3.07-1.36-1.29-2.44-2.89-3.19-4.76-.68-1.95-1.03-4.01-1.03-6.34s.35-4.41,1.1-6.25c.68-1.88,1.76-3.45,3.12-4.74h0ZM164.04,475.13c-4.07,0-7.04.91-9.29,2.89-2.11,1.84-3.26,4.45-3.26,7.72s1.15,5.96,3.26,7.89c2.25,1.78,5.21,2.81,9.29,2.81s7.13-1.03,9.25-2.86c2.18-1.96,3.25-4.56,3.25-7.84s-1.07-5.79-3.25-7.72c-2.12-1.97-5.21-2.89-9.25-2.89h0ZM179.42,443.06v20.67h-30.75v-4.38h27.14v-16.29h3.61ZM152.21,414.8c1.31-1.29,3.04-2.31,5.02-3.05,2.02-.67,4.24-1.05,6.81-1.05s4.79.38,6.78,1.05c2.05.75,3.75,1.76,5.04,3.05,1.44,1.37,2.48,2.93,3.16,4.8.69,1.79,1.08,3.92,1.08,6.29s-.39,4.36-1.08,6.28c-.75,1.79-1.79,3.42-3.16,4.73-1.29,1.35-3.05,2.37-5.04,3.05-1.98.76-4.23,1.09-6.78,1.09s-4.75-.33-6.81-1.09c-1.92-.68-3.65-1.7-5.02-3.05-1.36-1.31-2.44-2.93-3.19-4.8-.68-1.91-1.03-3.97-1.03-6.2,0-2.37.35-4.5,1.1-6.37.68-1.85,1.76-3.42,3.12-4.73h0ZM164.04,415.19c-4.07,0-7.04.97-9.29,2.9-2.11,1.84-3.26,4.45-3.26,7.8s1.15,5.84,3.26,7.77c2.25,1.87,5.21,2.87,9.29,2.87s7.13-1,9.25-2.93c2.18-1.91,3.25-4.53,3.25-7.7,0-3.34-1.07-5.96-3.25-7.8-2.12-1.93-5.21-2.9-9.25-2.9h0ZM179.42,374.68v4.38h-26.52l18.05,9.1v2.6l-18.05,9h26.52v4.03h-30.75v-5.93l17.16-8.72-17.16-8.4v-6.05h30.75ZM169.93,341.34c1.57,0,2.87.3,4.11.88,1.13.58,2.11,1.44,2.86,2.46.94,1.24,1.57,2.55,1.98,4.04.33,1.5.52,3.34.52,5.62v11.58h-30.75v-9.63c0-2.45.03-4.18.23-5.38.12-1.23.52-2.37,1.01-3.42.61-1.17,1.36-2.04,2.3-2.6.92-.59,2.06-.82,3.3-.82,1.5,0,2.74.36,3.75,1.2,1.05.79,1.85,1.84,2.54,3.13h.14c.42-2.2,1.36-3.97,2.74-5.2,1.43-1.24,3.16-1.87,5.27-1.87h0ZM156.06,348.62c-.75,0-1.31.11-1.86.38-.52.26-.94.68-1.2,1.23-.42.75-.68,1.57-.75,2.54-.04,1-.09,2.23-.09,3.66v5.14h8.82v-5.59c0-1.38,0-2.4-.19-3.27-.07-.77-.37-1.57-.82-2.2-.36-.73-.91-1.19-1.6-1.5-.61-.27-1.37-.38-2.31-.38h0ZM170.12,345.79c-1.24,0-2.24.21-2.99.67-.75.37-1.31,1.03-1.79,2.08-.39.71-.56,1.55-.75,2.57-.07,1-.07,2.19-.07,3.68v6.78h11.4v-5.73c0-1.88-.07-3.42-.33-4.7-.13-1.17-.49-2.2-.98-2.96-.51-.81-1.13-1.43-1.82-1.72-.75-.46-1.63-.67-2.68-.67h0ZM179.42,323.57v12.98h-3.12v-4.3h-24.54v4.3h-3.09v-12.98h3.09v4.32h24.54v-4.32h3.12ZM179.42,290.49v4.67l-8.6,3.09v14.21l8.6,3.19v4.44l-30.75-11.93v-5.73l30.75-11.93h0ZM167.33,299.61l-15.08,5.74,15.08,5.79v-11.53Z"/>
  </g>
  <polygon class="cls-1" points="120.94 1196.7 120.94 1185.03 145.53 1175.21 120.94 1165.3 120.94 1153.63 156.48 1168.89 156.48 1181.44 120.94 1196.7"/>
  <path class="cls-1" d="M143,1097.92h-6.16v-20.06h17.11c7.03,16.75,5.85,39.82-16.49,39.82-11.4,0-16.7-9.85-17.2-17.69-.68-7.99.69-13.8,2.32-21.88h9.39c-.49.21-2.67,5.17-4.23,10.36-2.54,8.6,1.88,18.18,11.86,18.42,8.89.21,12.99-8.9,10.81-18.24h-7.39v9.27Z"/>
  <polygon class="cls-1" points="121 1035.89 121 1025.16 148.89 1025.16 148.89 1005.4 156.48 1005.4 156.48 1035.89 121 1035.89"/>
  <path class="cls-1" d="M148.89,973.86v16.26l7.59,2.64v10.82l-20.3-8.69v-10.12l5.99,2.67v-10.79l-5.99,2.7v-10.64l20.3-9.24v11.79l-7.59,2.58ZM136.19,994.89l-15.25-6.63v-12.55l15.25-6.99v10.64l-5.9,2.67,5.9,2.74v10.12Z"/>
  <path class="cls-1" d="M138.76,913.77c3.68,0,6.49.58,8.53,1.55,2.16,1.03,3.91,2.49,5.42,4.44,1.43,1.88,2.34,3.92,2.86,6.11.68,2.86.91,5.53.91,7.93v20.09h-17.73v-11.43h11.01v-3.31c0-5.8-1.37-13.62-11.01-13.74v-11.64ZM120.25,953.89v-20.09c0-3.89.46-7.14,1.24-9.51.96-2.4,2.25-4.44,3.88-6.05,1.66-1.61,3.68-2.74,5.87-3.37,2.22-.79,4.52-1.09,7-1.09h.52v11.64h-.32c-9.22,0-10.72,8.39-10.72,13.68v3.37h11.04v11.43h-18.51Z"/>
  <g>
    <rect class="cls-1" x="84.52" y="841.89" width="9.35" height="374.63"/>
    <path class="cls-1" d="M84.52,841.28l.52.61v374.63h-1.08v-374.63l.55-.61h0ZM83.97,841.89v-.61h.55l-.55.61h0ZM94.36,841.89l-.49.49h-9.35v-1.09h9.35l.49.61h0ZM93.87,841.28h.49v.61l-.49-.61h0ZM93.87,1217.03l-.56-.52v-374.63h1.05v374.63l-.49.52h0ZM94.36,1216.52v.52h-.49l.49-.52h0ZM83.97,1216.52l.55-.49h9.35v1h-9.35l-.55-.52h0ZM84.52,1217.03h-.55v-.52l.55.52Z"/>
  </g>
  <g>
    <rect class="cls-1" x="180.26" y="841.89" width="9.35" height="374.63"/>
    <path class="cls-1" d="M180.26,841.28l.59.61v374.63h-1.08v-374.63l.49-.61h0ZM179.77,841.89v-.61h.49l-.49.61h0ZM190.1,841.89l-.49.49h-9.35v-1.09h9.35l.49.61h0ZM189.61,841.28h.49v.61l-.49-.61h0ZM189.61,1217.03l-.56-.52v-374.63h1.05v374.63l-.49.52h0ZM190.1,1216.52v.52h-.49l.49-.52h0ZM179.77,1216.52l.49-.49h9.35v1h-9.35l-.49-.52h0ZM180.26,1217.03h-.49v-.52l.49.52Z"/>
  </g>
  <polygon class="cls-1" points="149.71 1149.23 149.71 1142.81 127.72 1142.81 127.72 1149.23 120.94 1149.23 120.94 1124.82 127.72 1124.82 127.72 1131.23 149.71 1131.23 149.71 1124.91 156.48 1124.91 156.48 1131.23 156.48 1142.81 156.48 1149.23 149.71 1149.23"/>
  <polygon class="cls-1" points="149.71 1069.72 149.71 1063.27 127.78 1063.27 127.78 1069.66 120.94 1069.66 120.94 1045.25 127.78 1045.25 127.78 1051.66 149.71 1051.66 149.71 1045.31 156.48 1045.31 156.48 1051.66 156.48 1063.27 156.48 1069.72 149.71 1069.72"/>
  <path class="cls-1" d="M138.37,864.29c4.01.06,7.29.91,9.77,2.46,2.7,1.64,4.76,3.98,6.22,7.11,1.44,3.13,2.12,6.99,2.12,11.61s-.56,8.54-1.85,11.58c-1.24,3.16-3.23,5.59-5.96,7.51-2.77,1.95-6.19,2.86-10.3,2.86v-12.83h0c3.55,0,6.12-.79,7.71-2.34,1.57-1.58,2.32-3.68,2.32-6.35s-.75-4.92-2.25-6.47c-1.5-1.46-4.1-2.19-7.78-2.25v-12.89ZM138.37,907.42c-5.77,0-10.26-1.95-13.45-5.65-3.17-3.8-4.86-9.09-4.86-15.84s1.63-12.25,4.76-15.96c3.16-3.77,7.52-5.68,13.26-5.68h.3v12.89h-.49c-3.3,0-5.74.79-7.29,2.34-1.5,1.58-2.22,3.74-2.22,6.41s.71,4.74,2.28,6.32c1.63,1.55,4.16,2.34,7.72,2.34v12.83h0Z"/>
</svg>