<?xml version="1.0" encoding="UTF-8"?>
<svg id="Capa_2" data-name="Capa 2" xmlns="http://www.w3.org/2000/svg" viewBox="0 0 1536.87 568.63">
  <defs>
    <style>
      .cls-1 {
        fill: #3c312d;
      }

      .cls-2, .cls-3, .cls-4 {
        fill: #fff;
      }

      .cls-3 {
        font-family: CenturyGothic, 'Century Gothic';
        font-size: 86.96px;
        letter-spacing: -.01em;
      }

      .cls-4 {
        fill-rule: evenodd;
      }
    </style>
  </defs>
  <g id="Capa_1-2" data-name="Capa 1">
    <rect class="cls-1" x="0" width="1536.87" height="568.63"/>
    <g>
      <g>
        <path class="cls-2" d="M1310.68,281.22v-5.34h0c1.88.06,3.59-.17,5.17-.68,1.57-.52,2.92-1.37,4.03-2.58,1.12-1.21,1.98-2.82,2.58-4.84.61-2.02.91-4.54.91-7.56v-3.16c0-3.02-.3-5.56-.91-7.64-.6-2.08-1.46-3.76-2.58-5.06-1.11-1.29-2.46-2.23-4.03-2.8-1.57-.57-3.29-.82-5.17-.77h0v-5.34c2.53.04,4.78.35,6.75.95,2.09.63,4.01,1.37,5.76,2.21l.18-25.33h10.42v45.33c-.12,3.49-.64,6.63-1.54,9.41-.91,2.77-2.3,5.14-4.17,7.1-1.88,1.96-4.28,3.47-7.2,4.53-2.83,1.01-6.22,1.54-10.2,1.58ZM1310.68,235.45v5.34c-1.87-.06-3.6.18-5.17.72-1.57.55-2.92,1.47-4.03,2.76-1.12,1.3-1.98,3-2.58,5.11-.6,2.11-.9,4.67-.9,7.69v3.16c0,3.02.3,5.55.9,7.61.61,2.04,1.47,3.68,2.58,4.88,1.12,1.21,2.46,2.05,4.03,2.54,1.57.48,3.3.7,5.17.63v5.34h-.45c-3.99,0-7.37-.53-10.16-1.58-2.77-1.06-5.07-2.57-6.88-4.53-1.81-1.96-3.17-4.33-4.08-7.1-.9-2.77-1.42-5.92-1.54-9.41.12-3.5.64-6.66,1.54-9.5.91-2.83,2.27-5.27,4.08-7.28,1.82-2.02,4.11-3.59,6.88-4.71,2.79-1.11,6.17-1.67,10.16-1.67.15,0,.3,0,.45,0h0ZM1256.67,281.22v-5.34h0c3.81.12,6.87-1.45,9.2-4.7,2.32-3.26,3.49-7.91,3.49-13.93v-.18c0-3.02-.3-5.53-.9-7.55-.61-2.03-1.47-3.63-2.58-4.85-1.12-1.2-2.46-2.06-4.03-2.58-1.57-.51-3.3-.74-5.17-.68h0v-5.33c3.97.04,7.37.56,10.19,1.58,2.93,1.05,5.33,2.56,7.21,4.52,1.87,1.96,3.26,4.33,4.16,7.1.91,2.77,1.42,5.91,1.54,9.41v22.53h-10.51v-.27l.09-9.05c-1.03,1.88-2.04,3.41-3.03,4.62-1,1.21-2.01,2.16-3.04,2.85-1.03.7-2.13,1.18-3.31,1.46-1.05.24-2.15.37-3.31.4ZM1256.67,236.08v5.33c-1.88-.06-3.6.15-5.17.63-1.57.48-2.92,1.32-4.03,2.53-1.12,1.21-1.98,2.83-2.58,4.89-.6,2.05-.91,4.58-.91,7.6v3.16c0,3.02.31,5.55.91,7.61.61,2.04,1.47,3.68,2.58,4.88,1.12,1.21,2.46,2.05,4.03,2.54,1.57.48,3.29.7,5.17.63v5.34h-.45c-3.98,0-7.37-.51-10.16-1.54-2.78-1.02-5.07-2.52-6.88-4.48-1.81-1.96-3.17-4.33-4.08-7.1-.9-2.77-1.41-5.91-1.54-9.41.12-3.5.63-6.64,1.54-9.41.91-2.77,2.27-5.14,4.08-7.1,1.81-1.96,4.1-3.47,6.88-4.52,2.79-1.06,6.17-1.59,10.16-1.59h.45ZM1202.67,281.22v-5.34c1.88.06,3.59-.17,5.17-.68,1.57-.52,2.91-1.37,4.03-2.58,1.12-1.21,1.97-2.82,2.58-4.84.61-2.02.91-4.54.91-7.56v-3.16c0-3.02-.3-5.56-.91-7.64-.61-2.08-1.46-3.76-2.58-5.06-1.12-1.29-2.46-2.23-4.03-2.8-1.57-.57-3.29-.82-5.17-.77v-5.34c2.53.04,4.78.35,6.75.95,2.09.63,4,1.37,5.75,2.21l.18-25.33h10.42v45.33c-.12,3.49-.64,6.63-1.54,9.41-.9,2.77-2.29,5.14-4.17,7.1-1.87,1.96-4.27,3.47-7.2,4.53-2.82,1.01-6.22,1.54-10.19,1.58ZM1202.67,235.45v5.34h0c-1.88-.06-3.59.18-5.17.72-1.57.55-2.91,1.47-4.03,2.76-1.12,1.3-1.98,3-2.58,5.11-.6,2.11-.9,4.67-.9,7.69v3.16c0,3.02.3,5.55.9,7.61.61,2.04,1.47,3.68,2.58,4.88,1.12,1.21,2.46,2.05,4.03,2.54,1.57.48,3.29.7,5.17.63h0v5.34h-.46c-3.99,0-7.36-.53-10.14-1.58-2.79-1.06-5.08-2.57-6.89-4.53-1.81-1.96-3.17-4.33-4.08-7.1-.9-2.77-1.42-5.92-1.54-9.41.12-3.5.64-6.66,1.54-9.5.91-2.83,2.27-5.27,4.08-7.28,1.81-2.02,4.1-3.59,6.89-4.71,2.78-1.11,6.16-1.67,10.14-1.67.15,0,.3,0,.46,0h0ZM1071.68,282.21v-6.15c1.85.05,3.73-.16,5.61-.63,1.91-.48,3.61-1.33,5.12-2.53,1.51-1.21,2.73-2.84,3.66-4.89.94-2.05,1.41-4.59,1.41-7.6v-3.17c0-3.02-.46-5.55-1.41-7.6-.93-2.04-2.16-3.68-3.66-4.88-1.51-1.21-3.22-2.05-5.12-2.54-1.88-.48-3.76-.7-5.61-.63v-5.33h.4c7.98,0,14.2,2.02,18.67,6.06,4.47,4.03,6.86,9.55,7.16,16.55-.24,5.79-1.89,10.56-4.98,14.3-3.09,3.74-7.41,6.21-12.96,7.42,1.45.78,2.69,1.52,3.71,2.21,1.03.69,1.91,1.43,2.63,2.21.72.79,1.28,1.69,1.67,2.71.39,1.03.65,2.24.77,3.63v8.14h-10.61c.07-.24.11-.83.14-1.77.02-.93.02-1.96,0-3.08-.04-1.12-.05-2.21-.05-3.29v-2.17c-.48-2.77-1.78-4.71-3.9-5.84-.84-.44-1.73-.82-2.67-1.13h0ZM1116.03,260.23v-24.34h-10.42v21.54c0,3.68.4,6.98,1.22,9.91.82,2.92,2.11,5.41,3.9,7.46,1.78,2.05,4.1,3.63,6.93,4.75,2.84,1.12,6.29,1.67,10.33,1.67,7.31,0,12.91-2.12,16.81-6.38,3.89-4.25,5.84-10.05,5.84-17.41v-21.54h-10.42v24.34c0,3.02-.3,5.55-.91,7.61-.61,2.04-1.46,3.68-2.58,4.88-1.12,1.21-2.46,2.05-4.04,2.54-1.57.48-3.29.7-5.16.63-1.88.06-3.54-.17-4.99-.68-1.45-.52-2.66-1.37-3.63-2.58-.96-1.21-1.69-2.82-2.17-4.84-.49-2.02-.73-4.54-.73-7.56h0ZM1170.49,235.72h-10.42v45.42h10.42v-45.42h0ZM1158.35,220.24c0,1.88.65,3.47,1.95,4.8,1.3,1.32,2.89,1.98,4.76,1.98.78,0,1.59-.18,2.41-.54.81-.36,1.56-.86,2.22-1.48.67-.64,1.19-1.37,1.58-2.18.4-.81.59-1.67.59-2.58,0-1.87-.67-3.47-1.99-4.79-1.34-1.33-2.93-2-4.81-2s-3.46.66-4.76,2c-1.3,1.32-1.95,2.92-1.95,4.79ZM1035.43,270h-4.71c-4.28,3.62-11.31,6.06-17.79,5.9v4.98c9.03.04,18.07-3.62,22.5-10.88h0ZM1012.93,260.12h23.2c1.69,0,2.2-1.16,2.1-2.74-.23-6.75-2.59-12.07-6.9-15.97-4.32-3.89-10.32-5.84-18.01-5.84h-.39v5.15c1.78-.05,3.59.15,5.41.61,1.83.47,3.49,1.28,4.94,2.44,1.46,1.17,2.64,2.74,3.53,4.71.84,1.82,1.28,4.02,1.35,6.62h-15.24v5.02h0ZM1071.68,236.26v5.33h-.05c-1.88-.06-3.75.17-5.62.68-1.88.51-3.57,1.37-5.08,2.58-1.51,1.2-2.73,2.82-3.67,4.84-.94,2.03-1.41,4.54-1.41,7.55v4.52c.12,2.78.68,5.08,1.67,6.92,1,1.84,2.24,3.32,3.72,4.43,1.48,1.12,3.12,1.91,4.94,2.36,1.81.45,3.63.65,5.44.59h.05v6.15c-1.44-.48-2.99-.81-4.67-.99-3.87.12-7.16-.47-9.88-1.76-2.71-1.29-4.93-3-6.66-5.11-1.72-2.11-2.99-4.53-3.81-7.23-.82-2.72-1.22-5.46-1.22-8.24.24-7,2.64-12.52,7.2-16.55,4.48-3.98,10.83-6,19.03-6.06ZM1012.93,275.9c-8.14-.2-15.4-4.51-15.26-15.79h15.26v-5.02h-15.24c.04-2.28.37-4.5,1.34-6.57.9-1.95,2.08-3.5,3.54-4.67,1.46-1.17,3.09-1.99,4.89-2.49,1.8-.49,3.62-.71,5.42-.65h.05v-5.15c-7.91.06-14.03,2.01-18.36,5.84-4.4,3.9-6.72,9.22-6.95,15.97,0,.12,0,.25,0,.38v2.06c.59,14.07,12.96,21.02,25.31,21.06v-4.98Z"/>
        <g>
          <path class="cls-2" d="M1150.22,322.38l.23-.02.22-.03.23-.03.22-.03.23-.04.23-.04.22-.04.23-.05.23-.04.23-.05.23-.05.23-.05.23-.06.23-.06.22-.07.23-.06.23-.07.22-.08.23-.08.23-.08.23-.08.22-.09.23-.08.23-.09.23-.09.22-.1.23-.1.22-.11.22-.1.23-.11.23-.11.23-.11.21-.12.22-.11.22-.11.21-.12.22-.11.22-.11.21-.12.21-.11.21-.13.22-.12.21-.12.21-.12.21-.12.21-.13.21-.12.21-.12.22-.12.2-.14.21-.12.21-.12.21-.13.21-.13.21-.14.2-.13.2-.14.21-.13.21-.14.2-.13.2-.14.2-.14.2-.14.2-.14.07-.05.08-.06.08-.06.08-.04.07-.06.08-.06.07-.05.08-.05.08-.05.07-.05.07-.05.08-.06.08-.05.07-.05.07-.06.07-.05.07-.05.07-.06.07-.05.07-.05.07-.04.07-.06.07-.06.08-.05.07-.05.07-.05.07-.05.08-.05.07-.05.07-.05.07-.05.07-.05.29-.21.24-.19.23-.18.2-.17.18-.17.16-.15.15-.14.12-.14.11-.14.09-.13.08-.14.05-.17.02-.2-.05-.24-.14-.21-.2-.14-.18-.05-.17-.02h-.14l-.15.02-.16.03-.16.04-.17.05-.18.07-.19.08-.2.08-.21.1-.23.11-.23.12-.24.12-.25.14-.26.14-.12.07-.11.07-.11.07-.12.07-.12.07-.12.07-.12.07-.12.08-.12.07-.13.08-.12.07-.12.07-.12.07-.12.08-.13.07-.13.08-.14.07-.12.08-.14.08-.12.08-.14.08-.13.08-.14.08-.14.08-.14.08-.14.08-.14.08-.14.08-.14.08-.14.09-.14.08-.14.08-.14.09-.14.08-.14.1-.14.07-.14.09-.14.08-.15.08-.14.09-.15.08-.15.08-.15.08-.15.08-.15.08-.15.08-.15.08-.15.08-.16.08-.15.08-.15.08-.16.08-.15.08-.15.07-.15.08-.16.07-.16.08-.16.07-.15.08-.15.07-.17.08-.16.07-.16.07-.17.07-.15.07-.15.06-.16.07-.15.06-.16.06-.16.05-.16.07-.17.05-.15.05-.16.05-.16.05-.16.05-.16.04-.16.05-.17.04-.16.04-.16.04-.16.03-.17.04-.16.03-.17.03-.17.03-.16.02-.17.02-.17.02-.17.02-.16.02-.17.02h-.17s-.16.02-.16.02h-.17s-.16.02-.16.02h-.26s-.12,0-.12,0h-.71s-.11-.01-.11-.01h-.11s-.1-.01-.1-.01h-.11s-.11-.02-.11-.02h-.1s-.1-.02-.1-.02h-.1s-.09-.03-.09-.03l-.09-.02h-.09s-.1-.03-.1-.03l-.09-.02-.09-.02-.08-.03-.08-.02-.09-.02-.07-.02-.08-.02-.08-.02-.07-.04-.08-.02-.07-.03h0l-.07-.03-.07-.04-.06-.02-.06-.04-.06-.04-.07-.04-.06-.04-.06-.05-.06-.04-.05-.05-.06-.04-.06-.05-.05-.07-.06-.05-.06-.06-.05-.07-.06-.06-.05-.07-.05-.06-.05-.07-.05-.08-.05-.08-.06-.08-.04-.08-.05-.08-.05-.09-.05-.08-.05-.09-.04-.09-.05-.1-.05-.1-.04-.1-.04-.1-.03-.09-.04-.08-.04-.09-.03-.1-.03-.09-.03-.09-.03-.09-.02-.09-.02-.09-.02-.09-.02-.08-.02-.1-.02-.09-.02-.09v-.09s-.03-.09-.03-.09v-.08s-.02-.09-.02-.09v-.09s-.01-.09-.01-.09v-.09s-.01-.09-.01-.09v-.55s.02-.08.02-.08v-.1s.02-.09.02-.09v-.09s.02-.1.02-.1l.02-.11v-.1s.02-.1.02-.1v-.1s.02-.11.02-.11v-.11s.02-.1.02-.1v-.11s.02-.11.02-.11v-.11s.01-.11.01-.11l.02-.11v-.11s.02-.11.02-.11v-.1s.01-.12.01-.12v-.11s.02-.11.02-.11v-.11s.01-.12.01-.12v-.11s.01-.11.01-.11v-.12s.01-.12.01-.12v-.11s0-.12,0-.12v-.11s.16-.05.16-.05l.26-.09.25-.09.24-.08.25-.1.25-.09.24-.09.25-.1.24-.09.25-.09.24-.09.24-.09.25-.09.24-.09.24-.09.24-.09.24-.09.24-.1.25-.1.24-.09.25-.09.24-.1.24-.09.24-.09.24-.1.24-.09.24-.1.24-.08.24-.1.25-.1.24-.09.24-.1.24-.1.25-.1.24-.1.25-.11.24-.11.24-.11.24-.11.24-.11.24-.12.24-.12.24-.12.24-.12.24-.12.24-.12.24-.13.24-.13.24-.14.24-.13.24-.14.23-.14.24-.14.24-.15.24-.15.23-.15.24-.14.23-.16.24-.15.24-.17.24-.16.23-.16.23-.17.07-.05.07-.05.07-.05.08-.05.07-.05.07-.05.08-.05.07-.05.08-.05.08-.06.08-.06.08-.06.08-.07.09-.06.08-.06.08-.06.09-.06.1-.06.08-.07.09-.06.1-.08.1-.07.09-.07.1-.07.1-.07.1-.07.1-.08.1-.07.11-.08.11-.08.11-.08.11-.08.11-.08.11-.08.11-.08.11-.08.11-.08.11-.08.11-.08.11-.09.11-.08.11-.08.11-.09.11-.09.11-.08.11-.09.11-.09.11-.08.11-.1.11-.08.11-.09.11-.09.11-.09.11-.09.1-.09.11-.09.11-.09.1-.09.11-.09.11-.1.11-.09.1-.09.11-.09.1-.1.1-.1.11-.09.09-.1.11-.1.11-.1.1-.1.1-.09.09-.11.11-.1.09-.1.09-.09.1-.1.09-.1.09-.09.1-.1.09-.1.09-.09.09-.1.09-.1.09-.09.09-.1.08-.11.09-.09.08-.1.09-.1.08-.1.08-.1.08-.1.08-.1.08-.1.08-.1.08-.1.08-.1.07-.1.07-.11.07-.11.07-.09.06-.11.07-.09.06-.1.06-.1.05-.1.05-.1.05-.1.05-.09.04-.1.05-.11.04-.09.04-.11.03-.1.04-.1.03-.1.03-.1.03-.09.02-.1.02-.1.02-.11v-.09s.03-.1.03-.1v-.1s.02-.09.02-.09v-.1s0-.1,0-.1v-.36s-.02-.13-.02-.13v-.12s-.04-.12-.04-.12l-.02-.12-.04-.12-.02-.12-.04-.11-.05-.11-.04-.11-.05-.11-.05-.1-.06-.11-.06-.1-.07-.1-.07-.1-.08-.09-.08-.09-.08-.08-.09-.09-.09-.08-.09-.08-.1-.07-.1-.07-.11-.07-.1-.06-.11-.06-.11-.05-.11-.06-.12-.05-.12-.05-.11-.04-.11-.04-.12-.04-.12-.04-.11-.04-.11-.03-.11-.04-.12-.04-.11-.02-.11-.04-.11-.03-.12-.03-.12-.03-.11-.03-.11-.02-.12-.03-.11-.02-.12-.02-.12-.02-.12-.02-.11-.02-.12-.02-.11-.02-.12-.02-.12-.02h-.12s-.11-.02-.11-.02h-.12s-.12-.02-.12-.02h-.11s-.12-.01-.12-.01h-.12l-.3-.02h-.3s-.29,0-.29,0h-.6s-.29.03-.29.03l-.3.02-.3.02-.29.03-.29.04-.29.04-.3.05-.29.05-.29.05-.29.06-.29.08-.29.06-.29.08-.29.09-.29.09-.29.1-.29.09-.28.11-.29.12-.29.11-.28.12-.28.13-.29.13-.29.14-.28.15-.29.15-.29.15-.28.16-.27.16-.27.17-.28.17-.27.17-.27.17-.27.17-.27.18-.27.18-.27.19-.26.19-.25.19-.26.18-.25.2-.26.2-.26.2-.24.2-.25.21-.25.2-.24.21-.24.21-.25.22-.24.22-.24.23-.24.22-.24.23-.23.23-.24.24-.23.23-.23.24-.23.24-.23.25-.23.24-.22.24-.22.24-.21.25-.21.26-.21.24-.21.26-.2.24-.2.26-.2.26-.2.25-.19.26-.2.26-.18.26-.19.26-.18.26-.18.26-.18.27-.18.27-.17.27-.17.27-.17.27-.17.27-.16.27-.17.27-.16.28-.15.27-.15.29-.14.27-.15.29-.14.29-.14.28-.14.28-.14.28-.13.29-.13.28-.12.27-.12.28-.11.27-.11.27-.11.28-.1.27-.1.27-.09.27-.09.27-.09.26-.08.27-.08.26-.07.27-.07.26-.07.26-.07.26-.05.26-.06.25-.05.26-.04.26-.05.25-.02.26-.04.24-.02.25-.02.25-.02.25-.02.24v.24s-.02.25-.02.25v.47s.02.24.02.24v.24s.03.23.03.23l.02.22.03.23.04.22.04.21.04.22.05.22.05.2.06.21.07.21.07.2.07.2.08.2.08.2.09.19.09.18.1.19.11.18.11.18.11.17.12.17.12.17.13.16.14.17.14.16.14.15.16.15.16.16.17.14.17.14.18.13.18.13.19.12.2.11.2.11.21.1.21.09.23.09.23.08.24.08.24.07.25.06.25.06.27.05.27.05.26.04.29.04.28.02.29.03h.3s.3.02.3.02h.31s.31,0,.31,0h.64s.33-.03.33-.03l.34-.02.34-.02.36-.04ZM1148.85,302.33l.12-.18.12-.18.12-.19.13-.18.13-.18.13-.19.13-.17.13-.18.13-.17.13-.18.15-.19.14-.17.14-.17.14-.18.14-.17.14-.17.14-.17.15-.17.14-.17.15-.16.15-.16.15-.16.15-.17.16-.17.15-.15.16-.16.15-.15.17-.15.15-.15.16-.16.17-.15.17-.14.17-.15.17-.15.17-.14.17-.14.17-.15.17-.14.17-.14.17-.14.18-.13.18-.13.17-.13.18-.13.18-.13.18-.12.18-.12.17-.12.19-.12.18-.12.18-.11.18-.12.18-.11.18-.11.2-.1.18-.11.18-.11.19-.1.19-.1.19-.1.2-.09.19-.09.2-.1.2-.08.2-.09.2-.09.2-.08.19-.07.19-.07.19-.08.19-.06.19-.06.19-.06.19-.05.19-.05.19-.04.19-.05.19-.04.19-.03.19-.04.19-.02.19-.03.19-.02h.18s.19-.02.19-.02h.18s.2-.01.2-.01h.56s.18.03.18.03h.19s.19.02.19.02l.18.02.19.02.19.02.18.04.19.03.09.02.09.02.09.02.09.03.08.03.07.02.07.02.05.03.06.03.05.03.04.03.04.03.03.03.03.02.02.02.02.03v.02s.02.02.02.02v.02s.02.02.02.02v.02s.01.03.01.03v.03s.01.03.01.03v.08s-.01.04-.01.04v.05s-.02.05-.02.05v.05s-.04.06-.04.06l-.02.07-.04.08-.04.08-.03.07-.04.09-.04.08-.04.07-.04.09-.05.08-.05.08-.05.08-.05.08-.06.08-.05.1-.05.08-.06.08-.05.1-.07.09-.07.08-.07.1-.07.09-.07.09-.07.09-.08.09-.08.1-.08.09-.08.1-.08.1-.08.09-.08.09-.09.1-.09.09-.09.1-.1.1-.09.1-.09.1-.1.1-.1.09-.09.1-.1.1-.1.09-.1.1-.1.09-.1.09-.1.1-.1.09-.1.1-.11.1-.1.09-.11.1-.11.09-.1.09-.11.1-.11.09-.11.09-.11.09-.11.09-.1.09-.12.1-.1.08-.12.1-.1.08-.11.1-.11.09-.11.08-.11.09-.11.09-.11.08-.11.09-.1.08-.1.08-.09.07-.1.07-.1.08-.09.07-.09.07-.09.07-.08.06-.09.06-.08.06-.08.06-.08.06-.07.05-.07.05-.07.05-.07.05-.06.05-.07.05-.06.04-.06.04-.06.04-.05.04-.05.03-.05.04-.05.03-.04.03-.04.03-.18.12-.18.11-.18.11-.18.11-.18.11-.19.11-.18.11-.19.11-.2.11-.19.11-.2.11-.2.11-.19.11-.2.11-.2.11-.21.11-.2.11-.21.11-.21.1-.21.12-.21.1-.21.11-.22.1-.21.11-.22.1-.23.11-.22.1-.23.11-.21.1-.23.11-.23.1-.23.1-.23.1-.22.1-.23.1-.22.1-.23.09-.22.1-.22.09-.22.09-.22.09-.21.09-.21.09-.21.09-.21.08-.21.08-.21.07-.21.08-.2.08-.21.08-.2.07-.21.07-.2.08-.2.07-.2.07-.19.07-.2.06-.2.07-.16.06h0s.07-.17.07-.17l.07-.17.07-.17.07-.17.08-.17.07-.17.08-.17.08-.17.08-.17.09-.17.09-.18.09-.17.09-.18.1-.17.09-.19.1-.17.1-.18.11-.18.11-.18.11-.18.11-.18.12-.18.11-.18.12-.18Z"/>
          <polygon class="cls-2" points="1268.47 299.06 1268.55 298.89 1268.64 298.68 1268.75 298.47 1268.87 298.22 1268.99 297.96 1269.13 297.68 1269.26 297.39 1269.41 297.08 1269.56 296.78 1269.7 296.45 1269.84 296.12 1269.98 295.79 1270.11 295.45 1270.24 295.11 1270.35 294.77 1270.45 294.42 1270.54 294.08 1270.61 293.73 1270.67 293.4 1270.7 293.07 1270.71 292.74 1270.7 292.42 1270.65 292.1 1270.57 291.79 1270.45 291.49 1270.28 291.21 1270.07 290.96 1269.82 290.74 1269.53 290.54 1269.19 290.38 1268.83 290.28 1268.43 290.2 1268.06 290.16 1267.7 290.15 1267.32 290.16 1266.94 290.2 1266.56 290.25 1266.18 290.32 1265.79 290.41 1265.4 290.52 1265.02 290.64 1264.63 290.78 1264.24 290.93 1263.86 291.09 1263.47 291.26 1263.08 291.45 1262.7 291.65 1262.32 291.84 1261.94 292.05 1261.57 292.26 1261.19 292.49 1260.83 292.71 1260.47 292.94 1260.12 293.16 1259.77 293.4 1259.43 293.63 1259.1 293.86 1258.78 294.09 1258.46 294.31 1258.16 294.54 1257.86 294.75 1257.58 294.97 1257.3 295.17 1257.04 295.37 1256.89 295.47 1256.75 295.59 1256.6 295.71 1256.44 295.82 1256.29 295.94 1256.15 296.06 1256 296.19 1255.84 296.31 1255.69 296.43 1255.55 296.56 1255.39 296.69 1255.24 296.82 1255.08 296.95 1254.93 297.08 1254.78 297.21 1254.62 297.34 1254.48 297.48 1254.32 297.62 1254.16 297.76 1254.01 297.89 1253.85 298.04 1253.69 298.18 1253.54 298.33 1253.38 298.47 1253.22 298.62 1253.07 298.78 1252.91 298.92 1252.75 299.07 1252.6 299.23 1252.43 299.39 1252.27 299.54 1252.12 299.7 1251.96 299.86 1251.79 300.02 1251.64 300.19 1251.47 300.36 1251.31 300.53 1251.16 300.7 1250.99 300.87 1250.83 301.05 1250.67 301.22 1250.51 301.4 1250.35 301.58 1250.19 301.77 1250.03 301.95 1249.87 302.14 1249.71 302.33 1249.54 302.51 1249.41 302.68 1249.44 302.6 1249.5 302.45 1249.56 302.3 1249.62 302.16 1249.68 302.01 1249.74 301.87 1249.81 301.72 1249.87 301.58 1249.93 301.43 1249.99 301.28 1250.05 301.13 1250.11 300.99 1250.17 300.84 1250.23 300.7 1250.29 300.55 1250.35 300.4 1250.41 300.25 1250.46 300.11 1250.53 299.97 1250.58 299.82 1250.65 299.67 1250.7 299.52 1250.76 299.37 1250.82 299.23 1250.88 299.08 1250.94 298.93 1251 298.78 1251.06 298.65 1251.11 298.49 1251.18 298.34 1251.23 298.2 1251.3 298.05 1251.36 297.9 1251.42 297.75 1251.47 297.61 1251.53 297.46 1251.59 297.33 1251.64 297.17 1251.7 297.04 1251.76 296.89 1251.8 296.75 1251.86 296.61 1251.91 296.47 1251.96 296.33 1252.02 296.19 1252.06 296.06 1252.11 295.92 1252.17 295.78 1252.22 295.65 1252.26 295.51 1252.31 295.38 1252.35 295.25 1252.4 295.12 1252.44 294.99 1252.49 294.86 1252.53 294.72 1252.58 294.59 1252.62 294.46 1252.66 294.33 1252.7 294.21 1252.74 294.08 1252.78 293.96 1252.8 293.91 1252.81 293.86 1252.83 293.81 1252.84 293.78 1252.85 293.72 1252.86 293.68 1252.88 293.63 1252.89 293.59 1252.91 293.54 1252.92 293.5 1252.93 293.45 1252.94 293.41 1252.96 293.37 1252.97 293.32 1252.98 293.28 1252.99 293.25 1253 293.21 1253.02 293.16 1253.03 293.11 1253.03 293.08 1253.05 293.04 1253.05 293 1253.06 292.97 1253.07 292.92 1253.09 292.88 1253.09 292.84 1253.1 292.81 1253.11 292.77 1253.12 292.74 1253.13 292.7 1253.14 292.67 1253.15 292.63 1253.17 292.51 1253.19 292.39 1253.22 292.29 1253.23 292.2 1253.25 292.1 1253.27 292.01 1253.28 291.92 1253.29 291.84 1253.29 291.76 1253.3 291.68 1253.3 291.6 1253.29 291.51 1253.27 291.41 1253.25 291.31 1253.19 291.2 1253.12 291.09 1253.02 291 1252.91 290.93 1252.8 290.89 1252.69 290.86 1252.6 290.85 1252.51 290.85 1252.43 290.85 1252.36 290.87 1252.27 290.88 1252.2 290.9 1252.11 290.91 1252.04 290.93 1251.95 290.96 1251.85 290.98 1251.76 291 1251.66 291.03 1251.62 291.05 1251.59 291.05 1251.56 291.06 1251.52 291.07 1251.49 291.07 1251.45 291.09 1251.42 291.1 1251.38 291.11 1251.35 291.12 1251.31 291.13 1251.27 291.14 1251.24 291.14 1251.21 291.16 1251.17 291.16 1251.14 291.18 1251.1 291.18 1251.07 291.19 1251.03 291.2 1251 291.21 1250.97 291.21 1250.93 291.23 1250.89 291.23 1250.87 291.23 1250.82 291.25 1250.79 291.26 1250.76 291.26 1250.72 291.28 1250.69 291.28 1250.66 291.29 1250.63 291.29 1250.59 291.31 1250.56 291.31 1250.49 291.32 1250.43 291.34 1250.37 291.35 1250.3 291.37 1250.24 291.38 1250.17 291.39 1250.1 291.41 1250.05 291.42 1249.97 291.43 1249.91 291.45 1249.84 291.46 1249.78 291.47 1249.71 291.49 1249.65 291.5 1249.58 291.51 1249.51 291.53 1249.44 291.54 1249.37 291.55 1249.31 291.57 1249.24 291.58 1249.17 291.6 1249.1 291.61 1249.03 291.62 1248.96 291.63 1248.89 291.65 1248.82 291.66 1248.75 291.67 1248.69 291.69 1248.61 291.7 1248.54 291.72 1248.47 291.73 1248.39 291.75 1248.09 291.8 1248 292.1 1247.85 292.55 1247.71 293.01 1247.57 293.46 1247.43 293.91 1247.28 294.36 1247.14 294.82 1246.99 295.27 1246.85 295.71 1246.7 296.16 1246.55 296.62 1246.39 297.06 1246.24 297.51 1246.08 297.96 1245.94 298.41 1245.78 298.85 1245.62 299.3 1245.46 299.76 1245.3 300.21 1245.15 300.65 1244.99 301.1 1244.82 301.55 1244.65 301.99 1244.49 302.44 1244.33 302.88 1244.17 303.33 1244 303.77 1243.83 304.22 1243.67 304.66 1243.5 305.11 1243.32 305.55 1243.16 305.99 1242.98 306.44 1242.82 306.88 1242.65 307.31 1242.49 307.75 1242.31 308.18 1242.15 308.62 1241.99 309.06 1241.83 309.5 1241.66 309.94 1241.5 310.38 1241.34 310.82 1241.18 311.26 1241.02 311.7 1240.86 312.14 1240.71 312.58 1240.55 313.02 1240.4 313.47 1240.24 313.91 1240.09 314.35 1239.94 314.8 1239.78 315.23 1239.64 315.68 1239.49 316.13 1239.34 316.56 1239.2 317.02 1239.05 317.46 1238.9 317.9 1238.76 318.35 1238.62 318.79 1238.47 319.24 1238.33 319.69 1238.19 320.13 1238.05 320.58 1238.03 320.69 1238 320.8 1238 320.9 1238 321.02 1238.01 321.13 1238.04 321.24 1238.08 321.33 1238.13 321.43 1238.2 321.52 1238.26 321.6 1238.33 321.67 1238.41 321.72 1238.48 321.77 1238.56 321.82 1238.64 321.86 1238.71 321.88 1238.79 321.91 1238.87 321.93 1238.94 321.95 1239.01 321.96 1239.09 321.98 1239.16 321.99 1239.23 322 1239.3 322 1239.37 322 1239.44 322.01 1239.52 322.01 1239.57 322.01 1239.64 322.01 1239.69 322.01 1239.75 322.01 1239.81 322.01 1239.88 322 1239.94 322 1240.01 322 1240.07 322 1240.13 321.99 1240.19 321.99 1240.26 321.99 1240.32 321.98 1240.38 321.97 1240.44 321.97 1240.5 321.97 1240.57 321.96 1240.62 321.96 1240.67 321.96 1240.73 321.95 1240.79 321.95 1240.85 321.94 1240.9 321.94 1240.95 321.93 1241.01 321.93 1241.06 321.92 1241.11 321.91 1241.16 321.91 1241.21 321.91 1241.26 321.9 1241.32 321.9 1241.36 321.9 1241.4 321.88 1241.45 321.87 1241.49 321.87 1241.54 321.87 1241.58 321.86 1241.7 321.84 1241.8 321.8 1241.9 321.75 1241.99 321.7 1242.08 321.64 1242.15 321.58 1242.22 321.51 1242.28 321.44 1242.34 321.37 1242.39 321.3 1242.44 321.22 1242.49 321.14 1242.53 321.07 1242.56 320.99 1242.6 320.92 1242.63 320.83 1242.67 320.76 1242.71 320.69 1242.73 320.61 1242.76 320.54 1242.78 320.46 1242.81 320.39 1242.84 320.32 1242.86 320.25 1242.88 320.19 1242.9 320.12 1242.91 320.06 1242.93 320 1242.95 319.95 1242.96 319.9 1242.98 319.86 1242.98 319.82 1242.99 319.82 1243.02 319.73 1243.04 319.64 1243.07 319.56 1243.1 319.46 1243.14 319.37 1243.17 319.27 1243.19 319.18 1243.23 319.08 1243.26 318.98 1243.29 318.89 1243.32 318.78 1243.36 318.68 1243.39 318.58 1243.43 318.48 1243.45 318.36 1243.5 318.27 1243.53 318.16 1243.57 318.05 1243.6 317.94 1243.64 317.83 1243.67 317.72 1243.72 317.62 1243.76 317.5 1243.79 317.38 1243.83 317.26 1243.87 317.15 1243.91 317.03 1243.95 316.91 1243.99 316.8 1244.03 316.67 1244.08 316.55 1244.12 316.42 1244.16 316.3 1244.2 316.18 1244.25 316.05 1244.29 315.93 1244.33 315.82 1244.37 315.69 1244.42 315.56 1244.46 315.44 1244.51 315.32 1244.55 315.19 1244.6 315.07 1244.65 314.94 1244.69 314.82 1244.73 314.69 1244.78 314.57 1244.83 314.45 1244.87 314.32 1244.92 314.19 1244.97 314.07 1245.02 313.95 1245.06 313.83 1245.11 313.7 1245.16 313.57 1245.21 313.45 1245.26 313.32 1245.31 313.2 1245.36 313.07 1245.42 312.94 1245.47 312.82 1245.51 312.69 1245.57 312.57 1245.62 312.44 1245.68 312.32 1245.73 312.19 1245.78 312.07 1245.83 311.96 1245.89 311.84 1245.94 311.72 1246 311.61 1246.06 311.49 1246.11 311.38 1246.17 311.27 1246.23 311.16 1246.29 311.05 1246.35 310.94 1246.41 310.83 1246.46 310.73 1246.52 310.63 1246.59 310.52 1246.65 310.42 1246.71 310.32 1246.78 310.22 1246.84 310.11 1246.91 310.02 1246.97 309.92 1247.03 309.82 1247.1 309.73 1247.17 309.64 1247.24 309.55 1247.31 309.46 1247.37 309.37 1247.44 309.28 1247.51 309.19 1247.59 309.11 1247.75 308.91 1247.91 308.71 1248.07 308.52 1248.24 308.32 1248.4 308.13 1248.57 307.94 1248.74 307.74 1248.9 307.55 1249.07 307.37 1249.23 307.17 1249.39 306.98 1249.55 306.8 1249.72 306.62 1249.89 306.43 1250.05 306.24 1250.22 306.06 1250.38 305.88 1250.54 305.7 1250.71 305.52 1250.88 305.33 1251.04 305.16 1251.21 304.98 1251.38 304.8 1251.54 304.63 1251.71 304.45 1251.88 304.28 1252.05 304.1 1252.21 303.93 1252.38 303.76 1252.55 303.59 1252.71 303.42 1252.88 303.25 1253.05 303.08 1253.21 302.92 1253.38 302.75 1253.54 302.59 1253.7 302.43 1253.87 302.28 1254.04 302.12 1254.2 301.96 1254.36 301.8 1254.52 301.65 1254.68 301.49 1254.84 301.34 1255.01 301.19 1255.17 301.05 1255.33 300.9 1255.49 300.75 1255.65 300.61 1255.81 300.46 1255.97 300.32 1256.13 300.18 1256.28 300.05 1256.44 299.9 1256.6 299.77 1256.76 299.64 1256.92 299.5 1257.07 299.37 1257.23 299.24 1257.39 299.11 1257.54 298.98 1257.7 298.85 1257.86 298.73 1258 298.61 1258.16 298.49 1258.32 298.37 1258.47 298.25 1258.62 298.13 1258.78 298.02 1258.93 297.91 1259.08 297.79 1259.23 297.68 1259.38 297.58 1259.53 297.47 1259.67 297.36 1259.82 297.26 1259.96 297.17 1260.11 297.06 1260.25 296.97 1260.4 296.88 1260.54 296.78 1260.68 296.69 1260.82 296.6 1260.96 296.5 1261.1 296.42 1261.24 296.34 1261.37 296.26 1261.51 296.17 1261.64 296.09 1261.77 296.02 1261.91 295.94 1262.04 295.87 1262.17 295.8 1262.3 295.72 1262.44 295.65 1262.56 295.58 1262.7 295.52 1262.83 295.46 1262.96 295.39 1263.09 295.33 1263.22 295.27 1263.34 295.21 1263.47 295.16 1263.59 295.11 1263.71 295.06 1263.84 295.01 1263.95 294.96 1264.07 294.91 1264.19 294.87 1264.29 294.83 1264.41 294.79 1264.52 294.76 1264.63 294.72 1264.73 294.69 1264.84 294.67 1264.95 294.64 1265.05 294.62 1265.15 294.6 1265.25 294.58 1265.34 294.57 1265.44 294.55 1265.53 294.55 1265.63 294.54 1265.72 294.53 1265.81 294.53 1265.9 294.53 1265.99 294.54 1266.07 294.54 1266.11 294.55 1266.14 294.55 1266.16 294.55 1266.19 294.57 1266.21 294.57 1266.22 294.57 1266.23 294.58 1266.25 294.59 1266.26 294.6 1266.27 294.61 1266.27 294.61 1266.28 294.62 1266.28 294.63 1266.29 294.64 1266.29 294.64 1266.3 294.65 1266.31 294.68 1266.31 294.69 1266.31 294.72 1266.31 294.74 1266.32 294.77 1266.32 294.8 1266.32 294.84 1266.31 294.88 1266.31 294.91 1266.31 294.96 1266.29 295.01 1266.28 295.06 1266.27 295.11 1266.25 295.16 1266.23 295.22 1266.23 295.22 1266.21 295.29 1266.18 295.37 1266.15 295.46 1266.11 295.54 1266.08 295.63 1266.05 295.73 1266 295.83 1265.96 295.94 1265.92 296.06 1265.87 296.17 1265.83 296.3 1265.78 296.43 1265.72 296.56 1265.68 296.69 1265.62 296.83 1265.56 296.98 1265.51 297.13 1265.45 297.29 1265.38 297.45 1265.32 297.62 1265.25 297.79 1265.18 297.96 1265.11 298.14 1265.04 298.33 1264.96 298.52 1264.88 298.71 1264.8 298.92 1264.72 299.12 1264.64 299.33 1264.55 299.54 1264.46 299.77 1264.37 299.99 1263.9 301.15 1265.06 300.67 1265.15 300.63 1265.25 300.59 1265.35 300.55 1265.45 300.5 1265.55 300.46 1265.65 300.42 1265.75 300.38 1265.85 300.34 1265.94 300.3 1266.05 300.26 1266.14 300.22 1266.24 300.17 1266.34 300.13 1266.44 300.09 1266.53 300.05 1266.63 300.01 1266.73 299.97 1266.83 299.92 1266.92 299.88 1267.02 299.84 1267.12 299.8 1267.22 299.76 1267.32 299.72 1267.41 299.67 1267.51 299.64 1267.6 299.6 1267.7 299.55 1267.8 299.51 1267.9 299.47 1267.99 299.42 1268.09 299.39 1268.19 299.35 1268.39 299.26 1268.47 299.06"/>
          <polygon class="cls-2" points="1136.38 291.04 1136.27 290.91 1136.16 290.79 1136.04 290.67 1135.92 290.55 1135.78 290.45 1135.65 290.33 1135.51 290.23 1135.37 290.14 1135.22 290.04 1135.06 289.94 1134.91 289.86 1134.75 289.77 1134.58 289.69 1134.41 289.61 1134.23 289.54 1134.05 289.47 1133.86 289.42 1133.67 289.35 1133.48 289.29 1133.29 289.23 1133.08 289.18 1132.88 289.14 1132.66 289.1 1132.45 289.05 1132.23 289.02 1132 288.98 1131.77 288.96 1131.54 288.93 1131.3 288.91 1131.06 288.88 1130.82 288.88 1130.57 288.86 1130.33 288.85 1130.08 288.84 1129.84 288.84 1129.59 288.84 1129.34 288.84 1129.11 288.84 1128.86 288.84 1128.61 288.85 1128.36 288.86 1128.11 288.87 1127.86 288.88 1127.61 288.89 1127.36 288.91 1127.1 288.93 1126.85 288.96 1126.61 288.98 1126.35 289.01 1126.09 289.04 1125.83 289.08 1125.58 289.12 1125.33 289.15 1125.07 289.19 1124.82 289.23 1124.56 289.28 1124.31 289.32 1124.05 289.37 1123.8 289.42 1123.54 289.48 1123.27 289.54 1123.02 289.6 1122.76 289.65 1122.5 289.72 1122.24 289.79 1121.99 289.86 1121.74 289.93 1121.48 290 1121.23 290.08 1120.98 290.15 1120.73 290.23 1120.48 290.31 1120.23 290.4 1120 290.49 1119.76 290.58 1119.52 290.66 1119.28 290.76 1119.04 290.85 1118.81 290.96 1118.57 291.05 1118.35 291.16 1118.12 291.26 1117.88 291.37 1117.66 291.48 1117.44 291.6 1117.21 291.7 1116.99 291.82 1116.77 291.94 1116.55 292.05 1116.34 292.17 1116.12 292.29 1115.91 292.42 1115.7 292.55 1115.49 292.68 1115.28 292.81 1115.07 292.95 1114.87 293.09 1114.67 293.23 1114.48 293.37 1114.29 293.52 1114.1 293.66 1113.93 293.81 1113.76 293.96 1113.6 294.1 1113.44 294.25 1113.28 294.41 1113.13 294.56 1112.99 294.72 1112.85 294.87 1112.72 295.04 1112.6 295.2 1112.48 295.36 1112.36 295.52 1112.25 295.7 1112.14 295.86 1112.05 296.03 1111.96 296.2 1111.87 296.38 1111.79 296.56 1111.72 296.73 1111.66 296.91 1111.59 297.1 1111.54 297.27 1111.49 297.46 1111.45 297.65 1111.42 297.84 1111.38 298.03 1111.37 298.17 1111.35 298.32 1111.34 298.46 1111.33 298.61 1111.33 298.75 1111.33 298.9 1111.33 299.03 1111.33 299.17 1111.33 299.31 1111.34 299.45 1111.35 299.58 1111.37 299.72 1111.4 299.86 1111.42 299.99 1111.44 300.12 1111.47 300.26 1111.52 300.39 1111.55 300.51 1111.59 300.65 1111.63 300.77 1111.68 300.89 1111.73 301.02 1111.78 301.13 1111.85 301.26 1111.91 301.38 1111.97 301.49 1112.04 301.61 1112.11 301.73 1112.19 301.84 1112.26 301.95 1112.35 302.06 1112.43 302.16 1112.52 302.27 1112.6 302.37 1112.68 302.47 1112.77 302.57 1112.86 302.66 1112.95 302.76 1113.05 302.86 1113.14 302.95 1113.23 303.05 1113.33 303.15 1113.42 303.25 1113.53 303.33 1113.63 303.43 1113.72 303.52 1113.83 303.61 1113.93 303.7 1114.04 303.79 1114.15 303.88 1114.25 303.97 1114.36 304.06 1114.47 304.15 1114.59 304.23 1114.7 304.32 1114.82 304.41 1114.94 304.5 1115.06 304.59 1115.17 304.66 1115.29 304.75 1115.41 304.83 1115.54 304.92 1115.66 305 1115.79 305.08 1115.91 305.16 1116.03 305.24 1116.16 305.32 1116.28 305.4 1116.41 305.48 1116.53 305.56 1116.67 305.64 1116.8 305.71 1116.93 305.79 1117.05 305.87 1117.19 305.95 1117.32 306.02 1117.45 306.09 1117.58 306.17 1117.72 306.25 1117.85 306.32 1117.98 306.4 1118.12 306.47 1118.26 306.55 1118.4 306.63 1118.53 306.7 1118.67 306.77 1118.81 306.84 1118.95 306.91 1119.09 306.98 1119.24 307.05 1119.37 307.13 1119.52 307.21 1119.65 307.27 1119.79 307.34 1119.94 307.41 1120.09 307.48 1120.23 307.55 1120.38 307.61 1120.52 307.69 1120.66 307.76 1120.8 307.83 1120.95 307.9 1121.09 307.97 1121.22 308.03 1121.37 308.1 1121.5 308.17 1121.65 308.24 1121.78 308.31 1121.91 308.38 1122.05 308.45 1122.19 308.52 1122.32 308.59 1122.45 308.65 1122.58 308.72 1122.71 308.78 1122.85 308.86 1122.97 308.93 1123.11 308.99 1123.23 309.06 1123.36 309.13 1123.48 309.19 1123.61 309.27 1123.73 309.34 1123.86 309.4 1123.98 309.47 1124.11 309.54 1124.22 309.6 1124.35 309.67 1124.47 309.74 1124.59 309.8 1124.7 309.87 1124.82 309.94 1124.93 310.01 1125.04 310.08 1125.15 310.15 1125.26 310.22 1125.36 310.3 1125.47 310.36 1125.57 310.43 1125.67 310.5 1125.77 310.57 1125.87 310.64 1125.96 310.71 1126.06 310.79 1126.15 310.86 1126.25 310.93 1126.33 311 1126.42 311.07 1126.51 311.15 1126.59 311.22 1126.67 311.29 1126.75 311.37 1126.83 311.45 1126.91 311.52 1126.99 311.59 1127.06 311.66 1127.13 311.74 1127.2 311.82 1127.27 311.89 1127.34 311.97 1127.4 312.05 1127.46 312.13 1127.52 312.19 1127.57 312.27 1127.62 312.35 1127.68 312.42 1127.72 312.5 1127.76 312.58 1127.81 312.65 1127.85 312.73 1127.89 312.8 1127.93 312.89 1127.97 312.96 1128 313.04 1128.03 313.12 1128.05 313.2 1128.07 313.27 1128.1 313.35 1128.11 313.43 1128.13 313.52 1128.14 313.59 1128.16 313.68 1128.17 313.75 1128.17 313.85 1128.19 313.92 1128.19 314 1128.19 314.09 1128.19 314.18 1128.17 314.26 1128.17 314.35 1128.16 314.43 1128.15 314.52 1128.11 314.72 1128.07 314.92 1128.04 315.12 1128 315.3 1127.95 315.49 1127.9 315.67 1127.85 315.85 1127.79 316.02 1127.73 316.19 1127.67 316.36 1127.61 316.51 1127.54 316.67 1127.47 316.82 1127.4 316.97 1127.32 317.11 1127.25 317.25 1127.16 317.38 1127.09 317.52 1126.99 317.64 1126.91 317.77 1126.83 317.89 1126.73 318 1126.63 318.12 1126.53 318.22 1126.43 318.33 1126.33 318.43 1126.23 318.52 1126.11 318.61 1126.01 318.71 1125.89 318.79 1125.77 318.87 1125.66 318.95 1125.53 319.04 1125.4 319.11 1125.27 319.18 1125.14 319.26 1125.01 319.33 1124.88 319.4 1124.75 319.46 1124.62 319.53 1124.48 319.59 1124.35 319.64 1124.21 319.7 1124.07 319.75 1123.94 319.8 1123.8 319.85 1123.66 319.9 1123.52 319.94 1123.38 319.98 1123.23 320.01 1123.09 320.05 1122.95 320.09 1122.8 320.12 1122.66 320.14 1122.51 320.17 1122.36 320.19 1122.21 320.22 1122.06 320.23 1121.91 320.25 1121.75 320.26 1121.6 320.28 1121.45 320.29 1121.29 320.29 1121.14 320.3 1120.98 320.3 1120.82 320.3 1120.66 320.3 1120.49 320.3 1120.34 320.3 1120.18 320.29 1120.02 320.29 1119.87 320.28 1119.7 320.26 1119.54 320.26 1119.38 320.24 1119.22 320.23 1119.06 320.21 1118.9 320.19 1118.74 320.17 1118.58 320.15 1118.42 320.13 1118.26 320.11 1118.1 320.08 1117.94 320.05 1117.77 320.02 1117.62 319.99 1117.45 319.96 1117.3 319.93 1117.14 319.9 1116.98 319.86 1116.82 319.82 1116.65 319.78 1116.49 319.73 1116.34 319.69 1116.17 319.65 1116.01 319.61 1115.85 319.56 1115.69 319.51 1115.54 319.46 1115.38 319.42 1115.23 319.37 1115.08 319.32 1114.94 319.27 1114.79 319.22 1114.66 319.18 1114.51 319.13 1114.38 319.08 1114.25 319.03 1114.12 318.98 1113.99 318.93 1113.87 318.88 1113.75 318.83 1113.63 318.78 1113.51 318.72 1113.4 318.68 1113.29 318.63 1113.18 318.58 1113.07 318.53 1112.98 318.48 1112.87 318.43 1112.77 318.38 1112.68 318.33 1112.58 318.28 1112.5 318.23 1112.41 318.17 1112.33 318.12 1112.25 318.07 1112.16 318.03 1112.1 317.98 1112.03 317.93 1111.96 317.88 1111.89 317.83 1111.82 317.79 1111.77 317.74 1111.7 317.7 1111.63 317.64 1111.56 317.59 1111.5 317.54 1111.44 317.5 1111.37 317.44 1111.3 317.39 1111.24 317.34 1111.18 317.3 1111.11 317.23 1111.05 317.18 1110.99 317.12 1110.92 317.07 1110.86 317.02 1110.8 316.96 1110.74 316.9 1110.68 316.85 1110.61 316.8 1110.55 316.73 1110.49 316.68 1110.43 316.62 1110.37 316.56 1110.31 316.5 1110.24 316.44 1110.19 316.38 1110.13 316.33 1110.07 316.26 1110 316.19 1109.94 316.13 1109.88 316.06 1109.82 315.99 1109.76 315.92 1109.72 315.86 1109.66 315.79 1109.61 315.72 1109.57 315.66 1109.52 315.6 1109.48 315.53 1109.44 315.47 1109.39 315.4 1109.35 315.33 1109.31 315.27 1109.28 315.2 1109.24 315.14 1109.21 315.07 1109.18 315.01 1109.14 314.94 1109.1 314.88 1109.07 314.81 1109.04 314.74 1109.01 314.68 1108.97 314.61 1108.95 314.55 1108.92 314.47 1108.88 314.4 1108.85 314.34 1108.82 314.26 1108.8 314.19 1108.72 314.03 1108.66 313.87 1108.59 313.72 1108.53 313.58 1108.47 313.45 1108.42 313.32 1108.37 313.2 1108.31 313.09 1108.25 312.99 1108.2 312.89 1108.14 312.79 1108.06 312.71 1107.99 312.62 1107.89 312.53 1107.75 312.46 1107.6 312.41 1107.42 312.4 1107.26 312.43 1107.12 312.48 1107.01 312.55 1106.91 312.63 1106.84 312.7 1106.76 312.79 1106.69 312.89 1106.6 312.98 1106.53 313.08 1106.46 313.2 1106.37 313.33 1106.28 313.46 1106.19 313.61 1106.09 313.75 1105.99 313.92 1105.85 314.18 1105.74 314.46 1105.66 314.73 1105.61 315.01 1105.59 315.3 1105.59 315.58 1105.62 315.86 1105.67 316.14 1105.73 316.42 1105.82 316.71 1105.92 316.98 1106.04 317.25 1106.17 317.52 1106.31 317.79 1106.47 318.05 1106.63 318.32 1106.8 318.58 1106.98 318.83 1107.17 319.08 1107.36 319.31 1107.56 319.55 1107.76 319.78 1107.96 320 1108.17 320.21 1108.37 320.41 1108.58 320.6 1108.78 320.79 1108.98 320.95 1109.18 321.12 1109.38 321.27 1109.56 321.41 1109.75 321.54 1109.9 321.63 1110.05 321.72 1110.2 321.82 1110.35 321.91 1110.51 322.01 1110.66 322.09 1110.81 322.18 1110.97 322.27 1111.14 322.35 1111.3 322.43 1111.45 322.51 1111.61 322.59 1111.78 322.67 1111.94 322.74 1112.1 322.81 1112.27 322.88 1112.43 322.95 1112.6 323.02 1112.76 323.08 1112.93 323.14 1113.1 323.22 1113.28 323.27 1113.45 323.32 1113.62 323.38 1113.8 323.43 1113.97 323.48 1114.15 323.53 1114.32 323.58 1114.51 323.63 1114.69 323.67 1114.87 323.72 1115.06 323.76 1115.23 323.79 1115.41 323.83 1115.6 323.86 1115.78 323.89 1115.96 323.93 1116.15 323.95 1116.33 323.98 1116.51 324.01 1116.69 324.03 1116.87 324.05 1117.06 324.07 1117.25 324.08 1117.43 324.1 1117.61 324.11 1117.8 324.13 1117.98 324.14 1118.17 324.14 1118.36 324.15 1118.55 324.15 1118.73 324.15 1118.92 324.15 1119.1 324.15 1119.3 324.15 1119.47 324.15 1119.66 324.14 1119.85 324.13 1120.03 324.12 1120.23 324.1 1120.41 324.09 1120.6 324.07 1120.79 324.05 1120.97 324.04 1121.16 324.01 1121.35 323.99 1121.53 323.96 1121.72 323.93 1121.91 323.91 1122.1 323.88 1122.28 323.84 1122.46 323.8 1122.64 323.76 1122.83 323.73 1123.01 323.68 1123.19 323.64 1123.37 323.59 1123.55 323.54 1123.73 323.49 1123.91 323.44 1124.09 323.38 1124.26 323.33 1124.44 323.27 1124.62 323.22 1124.79 323.14 1124.97 323.08 1125.14 323.02 1125.32 322.95 1125.48 322.88 1125.66 322.81 1125.82 322.73 1125.99 322.65 1126.16 322.57 1126.33 322.5 1126.49 322.41 1126.66 322.33 1126.83 322.24 1126.99 322.15 1127.15 322.06 1127.31 321.97 1127.47 321.88 1127.63 321.78 1127.79 321.69 1127.94 321.58 1128.09 321.48 1128.25 321.38 1128.39 321.27 1128.55 321.17 1128.69 321.06 1128.84 320.95 1128.98 320.83 1129.13 320.72 1129.27 320.6 1129.4 320.48 1129.54 320.37 1129.68 320.24 1129.81 320.12 1129.95 319.99 1130.07 319.86 1130.21 319.73 1130.34 319.6 1130.47 319.46 1130.6 319.33 1130.72 319.19 1130.84 319.05 1130.96 318.9 1131.08 318.77 1131.2 318.61 1131.32 318.47 1131.42 318.32 1131.54 318.17 1131.64 318.01 1131.75 317.85 1131.85 317.7 1131.94 317.53 1132.04 317.37 1132.14 317.21 1132.23 317.03 1132.32 316.87 1132.4 316.7 1132.48 316.52 1132.56 316.35 1132.63 316.17 1132.71 315.99 1132.78 315.82 1132.85 315.63 1132.91 315.45 1132.97 315.26 1133.03 315.07 1133.08 314.89 1133.13 314.69 1133.19 314.5 1133.23 314.31 1133.28 314.11 1133.32 313.92 1133.35 313.72 1133.39 313.52 1133.42 313.31 1133.45 313.11 1133.48 312.91 1133.49 312.78 1133.5 312.63 1133.51 312.5 1133.52 312.37 1133.52 312.23 1133.51 312.1 1133.51 311.97 1133.5 311.83 1133.49 311.71 1133.47 311.57 1133.45 311.45 1133.43 311.32 1133.4 311.19 1133.36 311.06 1133.33 310.94 1133.3 310.81 1133.26 310.69 1133.22 310.57 1133.17 310.45 1133.12 310.33 1133.07 310.2 1133 310.09 1132.95 309.97 1132.88 309.87 1132.82 309.75 1132.75 309.63 1132.68 309.52 1132.6 309.41 1132.52 309.31 1132.44 309.19 1132.35 309.09 1132.28 308.98 1132.19 308.88 1132.1 308.78 1132.02 308.68 1131.92 308.59 1131.83 308.49 1131.74 308.39 1131.65 308.29 1131.55 308.19 1131.45 308.1 1131.36 308 1131.26 307.9 1131.15 307.81 1131.05 307.72 1130.95 307.63 1130.85 307.53 1130.74 307.44 1130.63 307.34 1130.52 307.25 1130.41 307.16 1130.29 307.06 1130.18 306.98 1130.07 306.89 1129.95 306.8 1129.82 306.71 1129.71 306.62 1129.59 306.53 1129.46 306.45 1129.34 306.36 1129.21 306.27 1129.08 306.19 1128.95 306.1 1128.82 306.02 1128.68 305.94 1128.55 305.85 1128.42 305.76 1128.28 305.68 1128.14 305.6 1128.01 305.52 1127.88 305.43 1127.74 305.35 1127.6 305.27 1127.46 305.19 1127.32 305.11 1127.19 305.03 1127.05 304.95 1126.9 304.87 1126.77 304.8 1126.62 304.72 1126.48 304.64 1126.34 304.57 1126.2 304.48 1126.05 304.41 1125.91 304.33 1125.76 304.25 1125.62 304.18 1125.47 304.1 1125.32 304.03 1125.17 303.95 1125.03 303.88 1124.88 303.8 1124.73 303.73 1124.57 303.65 1124.43 303.58 1124.27 303.51 1124.12 303.43 1123.97 303.36 1123.83 303.29 1123.68 303.22 1123.54 303.15 1123.39 303.08 1123.25 303.01 1123.11 302.95 1122.97 302.88 1122.82 302.8 1122.68 302.73 1122.54 302.66 1122.39 302.59 1122.27 302.52 1122.12 302.45 1121.98 302.39 1121.85 302.32 1121.71 302.25 1121.58 302.19 1121.44 302.12 1121.31 302.05 1121.17 301.98 1121.04 301.91 1120.9 301.85 1120.77 301.78 1120.64 301.71 1120.51 301.64 1120.38 301.58 1120.25 301.51 1120.13 301.44 1119.99 301.38 1119.87 301.32 1119.74 301.25 1119.62 301.19 1119.5 301.12 1119.38 301.06 1119.26 301 1119.14 300.93 1119.03 300.87 1118.92 300.8 1118.8 300.74 1118.69 300.67 1118.59 300.61 1118.48 300.54 1118.37 300.47 1118.26 300.4 1118.17 300.34 1118.07 300.29 1117.97 300.22 1117.87 300.15 1117.77 300.08 1117.68 300.02 1117.58 299.95 1117.49 299.89 1117.4 299.82 1117.31 299.76 1117.23 299.69 1117.14 299.63 1117.06 299.56 1116.98 299.5 1116.9 299.43 1116.82 299.37 1116.74 299.3 1116.66 299.23 1116.59 299.17 1116.52 299.11 1116.46 299.05 1116.4 298.98 1116.34 298.92 1116.28 298.87 1116.23 298.81 1116.18 298.74 1116.13 298.68 1116.09 298.63 1116.04 298.56 1116.01 298.51 1115.97 298.44 1115.93 298.39 1115.91 298.34 1115.88 298.28 1115.85 298.22 1115.83 298.17 1115.81 298.11 1115.79 298.06 1115.78 298 1115.77 297.95 1115.75 297.89 1115.74 297.84 1115.73 297.79 1115.73 297.74 1115.73 297.68 1115.73 297.63 1115.73 297.58 1115.73 297.52 1115.74 297.47 1115.75 297.41 1115.77 297.34 1115.79 297.26 1115.81 297.19 1115.83 297.11 1115.86 297.04 1115.89 296.97 1115.93 296.89 1115.97 296.82 1116.01 296.75 1116.05 296.67 1116.11 296.59 1116.17 296.51 1116.22 296.43 1116.29 296.36 1116.36 296.28 1116.43 296.2 1116.5 296.12 1116.59 296.05 1116.68 295.96 1116.77 295.88 1116.86 295.8 1116.96 295.72 1117.06 295.64 1117.17 295.56 1117.28 295.49 1117.4 295.4 1117.52 295.32 1117.64 295.24 1117.77 295.16 1117.91 295.08 1118.05 295 1118.19 294.92 1118.33 294.84 1118.48 294.77 1118.62 294.69 1118.77 294.61 1118.92 294.54 1119.08 294.46 1119.22 294.39 1119.38 294.32 1119.54 294.25 1119.7 294.18 1119.85 294.11 1120.01 294.04 1120.17 293.98 1120.34 293.91 1120.5 293.85 1120.67 293.78 1120.83 293.72 1121.01 293.66 1121.18 293.61 1121.35 293.54 1121.52 293.48 1121.69 293.43 1121.87 293.38 1122.05 293.32 1122.22 293.27 1122.41 293.22 1122.59 293.16 1122.77 293.12 1122.95 293.07 1123.14 293.02 1123.32 292.97 1123.51 292.93 1123.69 292.89 1123.88 292.85 1124.07 292.81 1124.25 292.77 1124.44 292.73 1124.62 292.7 1124.81 292.66 1125 292.63 1125.17 292.6 1125.36 292.56 1125.55 292.54 1125.73 292.51 1125.92 292.49 1126.1 292.46 1126.28 292.44 1126.46 292.42 1126.65 292.4 1126.83 292.39 1127.01 292.36 1127.19 292.35 1127.38 292.34 1127.55 292.33 1127.74 292.31 1127.91 292.3 1128.09 292.3 1128.27 292.29 1128.45 292.29 1128.63 292.29 1128.81 292.28 1128.99 292.29 1129.16 292.28 1129.34 292.29 1129.52 292.29 1129.69 292.29 1129.85 292.3 1130.02 292.31 1130.19 292.33 1130.35 292.35 1130.5 292.36 1130.65 292.39 1130.8 292.41 1130.95 292.43 1131.09 292.46 1131.23 292.49 1131.36 292.52 1131.49 292.56 1131.62 292.59 1131.75 292.63 1131.87 292.67 1131.99 292.71 1132.11 292.75 1132.22 292.81 1132.32 292.85 1132.44 292.9 1132.54 292.96 1132.63 293.01 1132.73 293.06 1132.83 293.12 1132.92 293.19 1133 293.25 1133.09 293.32 1133.17 293.38 1133.25 293.44 1133.33 293.52 1133.58 293.76 1133.9 293.62 1133.98 293.58 1134.06 293.54 1134.15 293.5 1134.23 293.46 1134.32 293.42 1134.4 293.38 1134.48 293.33 1134.56 293.28 1134.65 293.24 1134.72 293.19 1134.81 293.15 1134.89 293.09 1134.97 293.05 1135.05 292.99 1135.13 292.94 1135.21 292.88 1135.29 292.83 1135.37 292.77 1135.45 292.71 1135.53 292.66 1135.6 292.59 1135.68 292.54 1135.76 292.46 1135.84 292.4 1135.91 292.34 1135.99 292.27 1136.07 292.21 1136.14 292.14 1136.21 292.07 1136.29 292 1136.36 291.93 1136.43 291.86 1136.76 291.54 1136.48 291.18 1136.38 291.04"/>
          <path class="cls-2" d="M1302.24,294.1l-.09-.44-.14-.43-.18-.4-.23-.39-.27-.36-.32-.33-.37-.29-.41-.27-.13-.07-.13-.06-.13-.07-.13-.06-.14-.06-.13-.07-.14-.05-.14-.06-.14-.05-.14-.05-.14-.05-.14-.05-.14-.05-.15-.05-.14-.04-.15-.03-.14-.05-.15-.04-.15-.04-.15-.03-.15-.03-.15-.03-.15-.02-.15-.03-.16-.02-.15-.02h-.16s-.15-.02-.15-.02l-.16-.02h-.17s-.16-.01-.16-.01h-.16s-.17-.01-.17-.01h-1.31s-.16.01-.16.01h-.15s-.15,0-.15,0h-.15s-.15.02-.15.02h-.15s-.15.01-.15.01h-.14s-.14.02-.14.02h-.14s-.13.02-.13.02h-.14s-.14.02-.14.02h-.12s-.14.02-.14.02h-.12s-.13.02-.13.02h-.12s-.13.03-.13.03h-.12s-.12.02-.12.02h-.12s-.11.03-.11.03l-.45.05-.44.07-.43.06-.43.08-.43.09-.43.1-.43.11-.42.11-.42.11-.42.13-.41.14-.42.14-.41.15-.4.16-.4.17-.4.19-.39.17-.39.19-.39.2-.39.21-.37.21-.37.22-.37.23-.37.23-.37.25-.36.25-.36.25-.35.27-.34.27-.34.29-.34.29-.33.3-.18.17-.18.16-.17.17-.18.17-.18.17-.17.17-.17.17-.17.17-.17.18-.17.17-.17.18-.17.17-.17.18-.17.17-.16.19-.16.17-.16.18-.16.18-.15.19-.15.2-.16.18-.15.19-.16.18-.15.19-.15.19-.15.2-.15.19-.15.2-.14.2-.14.2-.14.2-.14.2-.14.2-.14.2-.13.2-.14.2-.13.2-.13.2-.12.2-.14.2-.12.2-.12.2-.12.2-.12.21-.12.21-.12.2-.11.21-.11.21-.11.2-.11.21-.1.21-.11.2-.11.21-.1.21-.1.2-.09.21-.1.21-.09.2-.09.21-.1.21-.08.2-.08.21-.09.21-.08.21-.09.21-.08.21-.08.21-.07.21-.07.2-.07.21-.06.2-.07.21-.07.2-.05.2-.06.2-.06.2-.05.21-.05.2-.05.2-.04.2-.05.2-.04.19-.04.2-.04.2-.04.2-.03.19-.02.18-.03.2-.02.18-.02.19-.02.18-.02.19v.18s-.02.18-.02.18v.18s0,.19,0,.19v.18s-.01.18-.01.18v.18s.01.19.01.19v.17s.01.17.01.17v.17s.04.18.04.18l.02.17.02.17.03.17.03.16.03.17.04.17.04.16.04.15.04.16.04.15.05.15.05.15.05.16.06.14.06.15.07.14.07.14.07.14.08.14.07.14.09.14.08.14.08.13.09.13.09.13.11.14.11.12.1.12.11.12.12.11.12.11.12.11.12.11.14.1.13.09.14.1.14.09.14.08.14.09.16.07.16.07.15.08.16.07.16.07.17.06.17.05.17.06.18.05.18.05.17.04.19.04.18.04.19.03.2.04.2.02.21.03.27.03.28.02.27.02h.27s.28.02.28.02h.55s.29-.02.29-.02l.28-.02.28-.02.28-.03.29-.04.29-.04.29-.05.29-.05.29-.06.29-.07.29-.07.29-.08.29-.09.29-.09.29-.1.3-.11.29-.1.3-.12.3-.12.29-.13.3-.13.29-.13.3-.16.3-.15.3-.16.3-.17.29-.16.3-.17.29-.17.29-.17.29-.18.29-.18.29-.17.29-.19.28-.19.29-.19.28-.2.28-.2.28-.2.28-.2.27-.21.27-.21.28-.21.27-.21.27-.21.27-.22.27-.23.27-.22.26-.23.27-.22.26-.24.26-.22.25-.24.26-.24.25-.24.26-.24.25-.26.26-.25.24-.24.24-.26.25-.26.24-.26.24-.26.23-.26.24-.26.23-.27.23-.26.23-.27.22-.27.22-.27.22-.28.22-.27.21-.29.21-.27.21-.29.2-.27.2-.29.21-.29.2-.29.19-.29.2-.29.19-.29.19-.29.19-.3.18-.3.19-.3.18-.3.17-.3.17-.3.15-.27.17-.3.17-.32.18-.34.18-.38.2-.39.19-.4.2-.43.19-.45.18-.45.19-.46.17-.48.17-.48.16-.49.15-.49.12-.5.12-.49.09-.5.07-.49.05-.49.03-.49v-.47l-.03-.47-.07-.45ZM1297.49,297.2v.37s-.01.12-.01.12v.12s-.03.14-.03.14v.13s-.03.13-.03.13l-.02.13-.02.14-.02.14-.03.14-.03.14-.04.15-.03.13-.04.15-.04.14-.04.15-.04.15-.04.15-.05.15-.05.15-.05.15-.05.15-.05.15-.06.16-.07.15-.07.16-.06.16-.07.16-.07.16-.07.17-.07.16-.08.17-.08.16-.08.17-.08.17-.09.17-.08.17-.08.17-.09.17-.1.17-.09.17-.09.18-.1.17-.1.17-.09.17-.1.17-.09.17-.1.17-.11.18-.11.17-.11.18-.11.17-.11.17-.11.16-.11.17-.11.17-.12.17-.11.17-.12.17-.12.17-.12.17-.12.17-.12.17-.12.17-.12.17-.13.17-.12.17-.13.17-.13.17-.13.16-.13.17-.13.17-.14.16-.13.17-.14.16-.13.16-.14.16-.14.16-.14.16-.14.16-.14.15-.14.16-.14.16-.15.15-.14.15-.15.15-.14.15-.14.14-.15.16-.14.14-.15.15-.15.15-.15.14-.14.14-.15.15-.15.14-.15.14-.15.14-.15.14-.15.14-.15.14-.15.13-.15.14-.16.14-.15.13-.15.12-.15.13-.15.12-.15.12-.15.12-.15.12-.14.11-.15.11-.15.11-.15.12-.14.1-.15.1-.14.11-.15.1-.14.09-.14.1-.14.1-.15.08-.14.09-.14.08-.14.09-.14.08-.14.08-.14.08-.14.08-.14.07-.13.07-.14.06-.32.15-.31.15-.3.13-.3.13-.29.12-.29.11-.29.11-.27.09-.27.09-.26.08-.26.08-.26.07-.24.06-.24.06-.23.04-.23.04-.23.04-.21.02-.21.02h-.21s-.2.01-.2.01h-.2s-.2-.02-.2-.02l-.18-.02-.18-.03-.17-.02-.17-.05-.17-.04-.15-.05-.15-.05-.15-.07-.14-.07-.15-.08-.14-.08-.13-.08-.14-.1-.12-.09-.12-.1-.11-.1-.11-.11-.11-.11-.11-.11-.09-.12-.09-.12-.1-.12-.09-.12-.08-.13-.08-.13-.07-.14-.08-.14-.07-.14-.07-.15-.06-.15-.05-.15-.05-.16-.05-.16-.05-.17-.03-.17-.04-.18-.03-.18-.03-.19-.02-.19-.02-.19v-.2s-.02-.21-.02-.21v-.2s0-.21,0-.21v-.21s.01-.21.01-.21l.02-.21.02-.22.02-.21.03-.22.03-.23.04-.22.04-.23.05-.24.05-.22.06-.24.06-.23.05-.24.07-.25.07-.24.08-.25.08-.25.08-.26.09-.25.1-.26.09-.26.1-.26.11-.26.11-.27.12-.27.12-.28.13-.27.13-.28.33-.65.34-.65.36-.62.37-.62.39-.6.41-.6.42-.57.44-.56.45-.55.47-.52.48-.52.49-.48.51-.48.53-.45.53-.43.56-.42.56-.39.58-.37.59-.35.61-.33.61-.31.62-.28.63-.25.65-.24.65-.2.67-.18.68-.16.69-.13.71-.1.71-.07.72-.05h.74s.19,0,.19,0h.18s.18,0,.18,0h.17s.17.03.17.03h.17s.17.03.17.03l.16.02.15.02.15.02.14.02.14.03.14.04.14.04.12.04.12.04.12.04.11.05.11.04.11.05.1.05.1.05.1.05.09.06.08.05.09.07.07.06.08.08.07.06.07.05.07.08.07.07.06.08.06.08.06.09.05.07.05.09.05.08.05.08.04.1.04.08.04.09.04.09.04.09.03.1.04.1.02.09.03.1.02.11.02.11.02.1v.11s.03.11.03.11v.11s.02.12.02.12v.11s0,.12,0,.12Z"/>
          <polygon class="cls-2" points="1238.15 294.58 1238.24 294.36 1238.32 294.16 1238.41 293.94 1238.48 293.74 1238.56 293.53 1238.64 293.34 1238.71 293.13 1238.79 292.95 1238.87 292.75 1238.94 292.56 1239.01 292.38 1239.08 292.2 1239.15 292.02 1239.22 291.85 1239.28 291.67 1239.35 291.51 1239.42 291.34 1239.48 291.18 1239.55 291.02 1239.63 290.79 1239.52 290.58 1239.42 290.43 1239.31 290.29 1239.2 290.16 1239.06 290.05 1238.93 289.95 1238.79 289.87 1238.64 289.8 1238.49 289.74 1238.33 289.69 1238.18 289.65 1238.02 289.61 1237.86 289.6 1237.7 289.57 1237.54 289.56 1237.38 289.56 1237.22 289.56 1237.06 289.56 1236.9 289.57 1236.74 289.57 1236.58 289.59 1236.42 289.61 1236.27 289.63 1236.12 289.65 1235.97 289.67 1235.82 289.7 1235.69 289.73 1235.56 289.74 1235.42 289.77 1235.3 289.8 1235.18 289.82 1235.08 289.85 1234.97 289.87 1234.67 289.95 1234.59 290.24 1234.53 290.45 1234.47 290.65 1234.41 290.85 1234.35 291.06 1234.3 291.26 1234.24 291.47 1234.18 291.67 1234.13 291.88 1234.07 292.08 1234.02 292.27 1233.96 292.48 1233.9 292.68 1233.85 292.87 1233.8 293.07 1233.74 293.27 1233.69 293.47 1233.64 293.66 1233.58 293.86 1233.53 294.05 1233.48 294.25 1233.42 294.44 1233.38 294.64 1233.32 294.83 1233.27 295.02 1233.22 295.21 1233.17 295.4 1233.11 295.58 1233.07 295.77 1233.02 295.96 1232.97 296.15 1232.92 296.34 1232.87 296.52 1232.82 296.71 1232.77 296.88 1232.71 297.07 1232.66 297.24 1232.6 297.43 1232.54 297.61 1232.47 297.79 1232.4 297.98 1232.33 298.17 1232.26 298.36 1232.18 298.54 1232.1 298.73 1232.02 298.92 1231.93 299.11 1231.85 299.3 1231.77 299.49 1231.67 299.69 1231.57 299.88 1231.47 300.07 1231.37 300.26 1231.27 300.45 1231.16 300.65 1231.05 300.85 1230.94 301.05 1230.82 301.25 1230.71 301.44 1230.58 301.64 1230.46 301.84 1230.33 302.04 1230.21 302.24 1230.08 302.45 1229.94 302.65 1229.94 302.64 1229.88 302.73 1229.82 302.8 1229.77 302.9 1229.7 302.99 1229.63 303.08 1229.56 303.18 1229.49 303.28 1229.4 303.38 1229.32 303.49 1229.23 303.6 1229.14 303.72 1229.05 303.84 1228.94 303.96 1228.84 304.08 1228.74 304.22 1228.62 304.35 1228.51 304.48 1228.39 304.63 1228.27 304.76 1228.14 304.91 1228.02 305.06 1227.88 305.21 1227.75 305.38 1227.61 305.54 1227.47 305.69 1227.32 305.86 1227.16 306.03 1227.01 306.2 1226.85 306.38 1226.69 306.56 1226.52 306.74 1226.35 306.93 1226.18 307.12 1226.01 307.3 1225.82 307.49 1225.65 307.68 1225.47 307.86 1225.29 308.05 1225.11 308.24 1224.92 308.42 1224.74 308.61 1224.56 308.79 1224.37 308.98 1224.18 309.17 1223.99 309.35 1223.8 309.54 1223.61 309.72 1223.42 309.91 1223.23 310.08 1223.03 310.28 1222.83 310.46 1222.64 310.64 1222.44 310.82 1222.24 311.01 1222.03 311.19 1221.84 311.37 1221.63 311.55 1221.42 311.74 1221.22 311.92 1221.01 312.1 1220.8 312.28 1220.59 312.47 1220.38 312.65 1220.17 312.83 1219.95 313.01 1219.74 313.19 1219.52 313.36 1219.31 313.54 1219.1 313.71 1218.89 313.87 1218.68 314.04 1218.47 314.21 1218.25 314.37 1218.04 314.54 1217.83 314.69 1217.62 314.85 1217.41 315.01 1217.19 315.16 1216.98 315.31 1216.78 315.46 1216.57 315.61 1216.36 315.76 1216.15 315.9 1215.94 316.04 1215.73 316.18 1215.52 316.31 1215.31 316.45 1215.11 316.58 1214.9 316.71 1214.7 316.84 1214.48 316.96 1214.28 317.09 1214.07 317.21 1213.87 317.33 1213.66 317.45 1213.45 317.56 1213.25 317.67 1213.05 317.78 1212.86 317.88 1212.66 317.98 1212.46 318.07 1212.27 318.15 1212.09 318.23 1211.91 318.3 1211.73 318.36 1211.56 318.44 1211.38 318.49 1211.21 318.54 1211.04 318.58 1210.88 318.63 1210.72 318.66 1210.56 318.7 1210.41 318.72 1210.26 318.74 1210.11 318.76 1209.97 318.77 1209.83 318.77 1209.69 318.77 1209.56 318.77 1209.43 318.76 1209.3 318.74 1209.18 318.72 1209.06 318.7 1208.94 318.68 1208.82 318.65 1208.71 318.61 1208.6 318.57 1208.49 318.53 1208.49 318.52 1208.49 318.52 1208.47 318.51 1208.46 318.51 1208.44 318.51 1208.44 318.49 1208.43 318.49 1208.43 318.49 1208.41 318.48 1208.41 318.48 1208.4 318.47 1208.4 318.46 1208.39 318.45 1208.38 318.45 1208.38 318.45 1208.37 318.45 1208.37 318.44 1208.38 318.45 1208.38 318.44 1208.37 318.44 1208.38 318.41 1208.38 318.38 1208.38 318.35 1208.38 318.33 1208.38 318.29 1208.38 318.26 1208.38 318.23 1208.38 318.21 1208.38 318.17 1208.38 318.15 1208.38 318.12 1208.38 318.1 1208.38 318.07 1208.38 318.05 1208.38 318.03 1208.38 317.99 1208.38 317.98 1208.37 317.97 1208.37 317.94 1208.37 317.92 1208.37 317.89 1208.37 317.88 1208.37 317.86 1208.37 317.84 1208.37 317.83 1208.37 317.8 1208.37 317.8 1208.37 317.79 1208.37 317.76 1208.37 317.76 1208.37 317.75 1208.37 317.73 1208.41 317.47 1208.44 317.2 1208.48 316.93 1208.52 316.65 1208.56 316.38 1208.6 316.11 1208.66 315.84 1208.71 315.56 1208.77 315.29 1208.82 315.01 1208.88 314.74 1208.95 314.46 1209.01 314.18 1209.08 313.9 1209.16 313.63 1209.23 313.35 1209.31 313.07 1209.39 312.79 1209.47 312.51 1209.56 312.22 1209.65 311.94 1209.74 311.66 1209.83 311.38 1209.93 311.09 1210.03 310.81 1210.14 310.52 1210.24 310.24 1210.35 309.96 1210.46 309.67 1210.58 309.38 1210.69 309.09 1210.81 308.81 1211.03 308.3 1211.24 307.8 1211.47 307.29 1211.7 306.8 1211.93 306.29 1212.16 305.8 1212.4 305.29 1212.64 304.8 1212.88 304.3 1213.13 303.8 1213.37 303.3 1213.62 302.8 1213.87 302.31 1214.12 301.82 1214.36 301.32 1214.62 300.83 1214.87 300.33 1215.12 299.83 1215.37 299.34 1215.62 298.85 1215.87 298.34 1216.11 297.84 1216.36 297.35 1216.6 296.85 1216.84 296.36 1217.07 295.85 1217.3 295.35 1217.54 294.85 1217.76 294.34 1217.98 293.84 1218.2 293.33 1218.41 292.83 1218.42 292.81 1218.43 292.78 1218.44 292.75 1218.45 292.73 1218.47 292.71 1218.47 292.68 1218.49 292.65 1218.51 292.62 1218.52 292.59 1218.53 292.56 1218.55 292.52 1218.56 292.49 1218.58 292.45 1218.59 292.41 1218.6 292.37 1218.62 292.31 1218.63 292.26 1218.64 292.22 1218.64 292.15 1218.64 292.08 1218.64 292.02 1218.63 291.96 1218.61 291.89 1218.59 291.84 1218.56 291.77 1218.53 291.71 1218.49 291.66 1218.46 291.6 1218.42 291.55 1218.37 291.51 1218.33 291.47 1218.28 291.43 1218.28 291.44 1218.2 291.36 1218.11 291.3 1218.01 291.23 1217.91 291.19 1217.81 291.13 1217.71 291.09 1217.61 291.06 1217.5 291.02 1217.4 291 1217.3 290.97 1217.19 290.95 1217.09 290.93 1216.98 290.92 1216.88 290.91 1216.77 290.9 1216.67 290.9 1216.56 290.9 1216.46 290.9 1216.36 290.9 1216.25 290.91 1216.15 290.91 1216.05 290.93 1215.95 290.93 1215.85 290.95 1215.75 290.96 1215.65 290.97 1215.55 290.98 1215.46 291 1215.36 291.03 1215.27 291.05 1215.18 291.06 1215.09 291.07 1215.04 291.09 1214.98 291.1 1214.93 291.12 1214.88 291.13 1214.84 291.14 1214.79 291.15 1214.75 291.16 1214.7 291.18 1214.66 291.19 1214.6 291.21 1214.56 291.23 1214.52 291.26 1214.47 291.28 1214.44 291.31 1214.39 291.34 1214.35 291.36 1214.31 291.39 1214.27 291.42 1214.23 291.46 1214.2 291.49 1214.18 291.53 1214.14 291.55 1214.11 291.6 1214.08 291.62 1214.06 291.66 1214.03 291.69 1214 291.72 1213.97 291.76 1213.94 291.79 1213.91 291.83 1213.88 291.88 1213.86 291.91 1213.71 292.11 1213.57 292.31 1213.43 292.51 1213.28 292.71 1213.15 292.9 1213.02 293.11 1212.88 293.3 1212.75 293.5 1212.61 293.71 1212.49 293.91 1212.36 294.12 1212.23 294.32 1212.11 294.53 1212 294.73 1211.87 294.93 1211.76 295.14 1211.64 295.35 1211.53 295.56 1211.41 295.77 1211.31 295.98 1211.19 296.19 1211.09 296.4 1210.99 296.62 1210.89 296.83 1210.78 297.04 1210.68 297.26 1210.58 297.47 1210.49 297.68 1210.39 297.9 1210.3 298.12 1210.21 298.34 1210.12 298.55 1210.02 298.79 1209.93 299.03 1209.83 299.26 1209.74 299.5 1209.65 299.73 1209.55 299.97 1209.46 300.19 1209.37 300.43 1209.27 300.66 1209.18 300.89 1209.08 301.12 1208.98 301.35 1208.89 301.59 1208.8 301.82 1208.71 302.05 1208.62 302.28 1208.52 302.51 1208.43 302.74 1208.34 302.97 1208.25 303.2 1208.15 303.43 1208.06 303.65 1207.96 303.88 1207.87 304.11 1207.78 304.34 1207.68 304.57 1207.59 304.79 1207.5 305.02 1207.4 305.24 1207.31 305.48 1207.21 305.7 1207.12 305.93 1207.1 305.99 1207.07 306.05 1207.04 306.12 1207 306.2 1206.97 306.27 1206.94 306.36 1206.91 306.43 1206.88 306.52 1206.85 306.6 1206.81 306.69 1206.77 306.78 1206.73 306.88 1206.7 306.97 1206.66 307.07 1206.62 307.17 1206.58 307.28 1206.54 307.39 1206.49 307.49 1206.45 307.61 1206.41 307.72 1206.37 307.84 1206.32 307.97 1206.28 308.08 1206.23 308.21 1206.18 308.33 1206.13 308.46 1206.08 308.6 1206.03 308.74 1205.98 308.87 1205.93 309.02 1205.87 309.16 1205.82 309.31 1205.77 309.46 1205.71 309.61 1205.66 309.76 1205.61 309.91 1205.55 310.06 1205.5 310.22 1205.46 310.36 1205.4 310.51 1205.35 310.67 1205.3 310.82 1205.25 310.97 1205.21 311.12 1205.15 311.28 1205.11 311.43 1205.06 311.59 1205.01 311.74 1204.96 311.89 1204.92 312.05 1204.87 312.21 1204.83 312.37 1204.79 312.52 1204.74 312.67 1204.69 312.83 1204.65 312.98 1204.61 313.15 1204.56 313.3 1204.52 313.46 1204.48 313.62 1204.44 313.78 1204.4 313.94 1204.35 314.1 1204.32 314.26 1204.28 314.42 1204.24 314.57 1204.2 314.74 1204.16 314.89 1204.13 315.05 1204.09 315.2 1204.06 315.36 1204.03 315.51 1203.99 315.66 1203.95 315.82 1203.92 315.97 1203.89 316.11 1203.86 316.26 1203.83 316.42 1203.81 316.56 1203.78 316.71 1203.75 316.85 1203.72 317 1203.69 317.14 1203.66 317.3 1203.64 317.43 1203.62 317.57 1203.6 317.71 1203.57 317.85 1203.55 317.99 1203.53 318.13 1203.52 318.27 1203.49 318.4 1203.47 318.55 1203.46 318.67 1203.44 318.81 1203.42 318.95 1203.4 319.37 1203.4 319.78 1203.45 320.16 1203.54 320.51 1203.68 320.84 1203.84 321.14 1204.04 321.42 1204.27 321.66 1204.53 321.87 1204.81 322.06 1205.1 322.2 1205.41 322.33 1205.73 322.44 1206.06 322.51 1206.41 322.58 1206.75 322.62 1207.11 322.64 1207.47 322.66 1207.83 322.66 1208.19 322.64 1208.56 322.61 1208.91 322.57 1209.28 322.53 1209.63 322.47 1209.98 322.41 1210.31 322.33 1210.64 322.25 1210.96 322.18 1211.27 322.08 1211.56 322 1211.82 321.9 1212.08 321.8 1212.32 321.71 1212.55 321.62 1212.79 321.52 1213.02 321.42 1213.24 321.31 1213.47 321.22 1213.71 321.11 1213.93 321 1214.16 320.88 1214.39 320.77 1214.61 320.66 1214.84 320.54 1215.06 320.41 1215.29 320.29 1215.51 320.16 1215.73 320.04 1215.96 319.9 1216.18 319.77 1216.4 319.63 1216.62 319.49 1216.84 319.36 1217.05 319.21 1217.27 319.07 1217.49 318.92 1217.7 318.77 1217.92 318.61 1218.13 318.46 1218.34 318.3 1218.56 318.14 1218.77 317.98 1218.97 317.82 1219.19 317.65 1219.39 317.48 1219.6 317.32 1219.81 317.15 1220.01 316.98 1220.21 316.81 1220.41 316.64 1220.61 316.47 1220.81 316.3 1221.01 316.13 1221.2 315.97 1221.4 315.79 1221.59 315.63 1221.78 315.45 1221.97 315.27 1222.16 315.1 1222.35 314.93 1222.54 314.75 1222.73 314.57 1222.9 314.4 1223.1 314.22 1223.27 314.05 1223.46 313.87 1223.64 313.7 1223.81 313.52 1223.99 313.35 1224.16 313.18 1224.34 312.99 1224.52 312.82 1224.69 312.64 1224.86 312.46 1225.02 312.28 1225.2 312.1 1225.37 311.93 1225.53 311.75 1225.7 311.57 1225.86 311.41 1226.02 311.24 1226.17 311.08 1226.34 310.92 1226.49 310.76 1226.64 310.6 1226.8 310.45 1226.94 310.3 1227.09 310.15 1227.23 310 1227.38 309.87 1227.53 309.72 1227.66 309.58 1227.81 309.44 1227.94 309.31 1228.07 309.19 1228.21 309.06 1228.33 308.93 1228.46 308.82 1228.45 308.86 1228.43 308.98 1228.41 309.09 1228.38 309.21 1228.36 309.32 1228.33 309.44 1228.31 309.56 1228.29 309.68 1228.26 309.8 1228.24 309.93 1228.21 310.05 1228.19 310.18 1228.17 310.32 1228.14 310.45 1228.12 310.58 1228.09 310.72 1228.07 310.85 1228.04 310.99 1228.02 311.12 1228 311.26 1227.98 311.4 1227.95 311.53 1227.93 311.66 1227.91 311.81 1227.89 311.94 1227.87 312.07 1227.85 312.22 1227.83 312.35 1227.82 312.48 1227.8 312.63 1227.78 312.76 1227.77 312.89 1227.75 313.03 1227.73 313.17 1227.72 313.3 1227.71 313.43 1227.7 313.58 1227.69 313.71 1227.67 313.85 1227.66 313.99 1227.64 314.12 1227.63 314.25 1227.62 314.39 1227.61 314.52 1227.6 314.66 1227.59 314.8 1227.59 314.93 1227.58 315.07 1227.57 315.2 1227.56 315.33 1227.56 315.47 1227.55 315.61 1227.54 315.74 1227.54 315.88 1227.54 316.01 1227.54 316.14 1227.53 316.27 1227.53 316.4 1227.53 316.53 1227.54 316.66 1227.54 316.78 1227.54 316.92 1227.54 317.05 1227.54 317.17 1227.56 317.3 1227.56 317.43 1227.57 317.54 1227.57 317.67 1227.59 317.79 1227.6 317.92 1227.61 318.05 1227.62 318.16 1227.63 318.28 1227.65 318.4 1227.66 318.52 1227.69 318.64 1227.7 318.76 1227.72 318.87 1227.74 318.99 1227.76 319.1 1227.78 319.21 1227.81 319.31 1227.83 319.42 1227.86 319.52 1227.89 319.61 1227.92 319.71 1227.95 319.81 1227.98 319.9 1228.02 320 1228.05 320.09 1228.1 320.17 1228.14 320.26 1228.18 320.35 1228.23 320.43 1228.27 320.51 1228.32 320.6 1228.37 320.67 1228.43 320.74 1228.48 320.83 1228.54 320.9 1228.6 320.97 1228.67 321.04 1228.72 321.11 1228.79 321.17 1228.86 321.24 1228.93 321.3 1229 321.36 1229.08 321.41 1229.15 321.47 1229.22 321.52 1229.31 321.57 1229.38 321.61 1229.38 321.61 1229.39 321.62 1229.42 321.63 1229.44 321.65 1229.47 321.67 1229.49 321.68 1229.52 321.69 1229.54 321.7 1229.57 321.72 1229.61 321.73 1229.64 321.75 1229.68 321.75 1229.7 321.77 1229.74 321.78 1229.78 321.8 1229.83 321.8 1229.87 321.8 1229.93 321.81 1229.97 321.81 1230.02 321.8 1230.06 321.8 1230.11 321.8 1230.14 321.78 1230.18 321.77 1230.21 321.77 1230.25 321.75 1230.28 321.74 1230.31 321.72 1230.35 321.71 1230.36 321.7 1230.4 321.68 1230.42 321.67 1230.44 321.65 1230.47 321.64 1230.48 321.64 1231.04 321.33 1230.9 321.41 1231.25 321.21 1231.58 321.01 1231.87 320.83 1232.13 320.66 1232.37 320.48 1232.56 320.3 1232.75 320.13 1232.89 319.96 1233.03 319.78 1233.13 319.58 1233.2 319.37 1233.24 319.17 1233.25 318.97 1233.24 318.77 1233.22 318.58 1233.18 318.39 1233.13 318.21 1233.08 318.03 1233.03 317.83 1232.97 317.63 1232.91 317.41 1232.86 317.19 1232.8 316.94 1232.75 316.68 1232.7 316.39 1232.67 316.09 1232.65 315.77 1232.63 315.41 1232.63 315.02 1232.65 314.6 1232.68 314.16 1232.7 313.92 1232.73 313.69 1232.76 313.45 1232.79 313.22 1232.82 312.98 1232.85 312.73 1232.88 312.49 1232.92 312.25 1232.95 312 1232.99 311.76 1233.03 311.52 1233.07 311.27 1233.11 311.02 1233.16 310.77 1233.2 310.52 1233.25 310.28 1233.3 310.02 1233.35 309.76 1233.4 309.51 1233.46 309.26 1233.52 309 1233.57 308.74 1233.63 308.48 1233.69 308.23 1233.76 307.97 1233.81 307.7 1233.89 307.44 1233.95 307.17 1234.02 306.91 1234.09 306.64 1234.17 306.37 1234.23 306.1 1234.31 305.83 1234.39 305.56 1234.46 305.29 1234.53 305.02 1234.61 304.75 1234.69 304.48 1234.77 304.22 1234.85 303.95 1234.93 303.68 1235.01 303.42 1235.09 303.15 1235.18 302.88 1235.26 302.62 1235.34 302.35 1235.42 302.09 1235.51 301.82 1235.6 301.56 1235.67 301.3 1235.77 301.03 1235.86 300.78 1235.95 300.52 1236.04 300.26 1236.12 300 1236.21 299.73 1236.3 299.47 1236.4 299.22 1236.49 298.96 1236.59 298.7 1236.68 298.44 1236.78 298.19 1236.87 297.93 1236.97 297.68 1237.07 297.42 1237.16 297.17 1237.27 296.91 1237.35 296.66 1237.44 296.42 1237.54 296.19 1237.63 295.94 1237.72 295.71 1237.81 295.47 1237.89 295.25 1237.98 295.02 1238.07 294.8 1238.15 294.58"/>
          <path class="cls-2" d="M1203.56,291.32l.09-.06.1-.05.09-.05.09-.07.09-.05.09-.06.08-.06.09-.06.08-.06.08-.05.08-.07.08-.06.08-.07.08-.07.08-.07.07-.06.08-.08.07-.07.07-.07.08-.07.07-.07.07-.07.07-.07.07-.07.06-.07.07-.07.06-.06.07-.07.07-.07.05-.07.07-.07.06-.07.05-.08.06-.07.05-.08.06-.07.05-.07.05-.07.05-.07.05-.07.05-.06.05-.08.05-.07.05-.07.04-.07.05-.07.04-.08.04-.07.05-.07.04-.07.04-.07.04-.07.04-.06.04-.07.04-.06.04-.06.04-.07.04-.06.04-.07.04-.06.03-.07.04-.06.04-.07.04-.06.02-.05.04-.06.03-.06.02-.06.04-.06.02-.06.04-.06.02-.06.02-.07.02-.05.03-.07.02-.05.02-.06.02-.05.02-.06.02-.05.02-.05.02-.05.02-.05.02-.04.02-.05.02-.05v-.04s.03-.03.03-.03l.02-.05v-.04s.02-.04.02-.04l.02-.03v-.04s.02-.02.02-.02v-.04s.02-.03.02-.03v-.03s.02-.03.02-.03v-.02s.02-.02.02-.02v-.03s.01-.02.01-.02v-.02s.02-.01.02-.01v-.02s0-.02,0-.02v-.03s.02,0,.02,0h0v-.03l.06-.17-.06-.17-.02-.06-.02-.07-.02-.06-.04-.07-.02-.05-.04-.06-.04-.06-.04-.05-.04-.06-.04-.05-.04-.05-.04-.05-.05-.05-.04-.05-.05-.05-.05-.05-.05-.05-.05-.04-.04-.04-.05-.04-.05-.04-.05-.04-.05-.04-.05-.04-.05-.04-.06-.04-.05-.04-.06-.03-.05-.04-.07-.03-.05-.03-.07-.03-.05-.02-.05-.02-.06-.02-.05-.03-.05-.02-.06-.02-.06-.02-.05-.02-.05-.02-.06-.03-.05-.02-.05-.02-.06-.02h-.05s-.06-.04-.06-.04l-.06-.02-.05-.03-.06-.02-.05-.02h-.06s-.05-.04-.05-.04l-.05-.02-.06-.02h-.05s-.05-.03-.05-.03l-.05-.02-.05-.02h-.06s-.05-.03-.05-.03h-.05s-.05-.03-.05-.03l-.06-.02-.55-.15-.11.56-.02.15-.03.13-.03.14-.04.14-.03.14-.04.13-.04.14-.05.13-.04.13-.05.13-.05.13-.05.13-.06.12-.05.12-.06.12-.06.12-.07.12-.06.12-.07.12-.07.11-.07.12-.07.12-.08.11-.08.12-.08.11-.08.11-.09.11-.08.11-.09.11-.09.11-.09.1-.1.11-.09.1-.1.1-.1.09-.09.09-.09.1-.1.08-.1.08-.09.08-.1.08-.09.06-.09.07-.1.07-.09.06-.09.06-.1.06-.09.06-.09.05-.09.05-.1.05-.09.04-.09.04-.1.04-.08.03-.09.03-.09.03-.09.02-.09.03-.09.02-.09.02h-.09s-.05.02-.05.02l-.06-.03-.06-.02-.07-.04-.06-.02-.07-.03-.06-.02-.07-.02-.07-.02-.06-.03-.07-.02-.07-.02-.06-.02h-.07s-.07-.04-.07-.04l-.07-.02-.07-.03h-.07s-.07-.03-.07-.03l-.07-.02-.07-.02h-.07s-.08-.02-.08-.02h-.07s-.07-.02-.07-.02h-.07s-.07-.02-.07-.02h-.08s-.06-.02-.06-.02h-.07s-.08-.02-.08-.02h-.07s-.07,0-.07,0h-.07s-.07-.02-.07-.02h-.07s-.07-.01-.07-.01h-.07s-.07,0-.07,0h-.08s-.07-.01-.07-.01h-.08s-.07-.01-.07-.01h-.14s-.07-.01-.07-.01h-.15s-.07,0-.07,0h-.07s-.08,0-.08,0h-.07s-.08,0-.08,0h-.22s-.07,0-.07,0h-.24s-.07,0-.07,0h-.72s-.09,0-.09,0h-.49s-.1,0-.1,0h-.4s-.11,0-.11,0h-.2s-.1,0-.1,0h-.21s-.11,0-.11,0h-.31s-.11.01-.11.01h-.21s-.1,0-.1,0h-.11s-.11.01-.11.01h-.11s-.11,0-.11,0h-.11s-.11.02-.11.02h-.11s-.11.02-.11.02h-.11s-.11.02-.11.02l-.11.02h-.11s-.11.02-.11.02l-.11.02h-.1s-.11.02-.11.02h-.11s-.11.04-.11.04l-.11.02-.11.02-.11.02-.11.02-.1.02-.11.02-.11.02-.11.02-.11.02-.11.03-.11.02-.11.03-.11.02-.11.03-.11.02-.29.07-.29.08-.28.08-.28.08-.28.09-.27.09-.28.1-.27.1-.27.1-.26.11-.26.11-.26.11-.26.12-.25.12-.26.13-.25.13-.25.14-.25.14-.24.14-.25.14-.24.15-.23.15-.24.16-.23.17-.23.17-.23.17-.22.17-.23.19-.22.19-.22.18-.21.2-.21.2-.2.2-.2.2-.21.19-.19.2-.19.2-.19.2-.18.2-.18.2-.18.2-.17.21-.17.2-.17.21-.17.21-.15.2-.16.21-.15.21-.15.2-.15.21-.14.21-.14.21-.13.21-.13.22-.13.21-.12.21-.12.22-.12.21-.12.22-.11.22-.11.23-.11.21-.09.23-.09.22-.1.23-.08.22-.08.23-.08.22-.07.22-.07.21-.07.22-.06.22-.05.22-.05.21-.04.21-.04.22-.04.21-.04.21-.02.21-.02.21-.02.22v.2s-.01.2-.01.2v.21s0,.21,0,.21v.21s.01.2.01.2l.02.2.02.2.02.21.03.2.04.2.04.2.04.2.05.2.06.2.06.2.07.2.08.18.08.19.09.18.09.18.09.17.11.17.11.16.12.16.12.15.13.15.14.14.14.14.16.14.15.13.17.12.17.12.18.11.18.11.19.11.19.1.2.1.2.08.21.1.21.08-.1.05-.11.05-.11.06-.11.05-.12.05-.12.06-.12.06-.12.06-.13.06-.12.06-.13.07-.13.06-.14.07-.14.07-.14.07-.14.07-.15.06-.14.08-.15.07-.15.08-.15.08-.15.08-.15.08-.15.07-.15.08-.15.08-.15.08-.15.08-.14.08-.15.08-.15.08-.15.08-.14.08-.15.09-.14.09-.14.08-.14.09-.15.09-.14.08-.14.09-.14.1-.14.09-.14.09-.15.08-.14.1-.14.09-.14.1-.15.09-.14.1-.14.1-.15.1-.14.1-.14.11-.14.09-.14.1-.14.1-.13.11-.13.1-.12.1-.12.1-.12.11-.11.11-.12.1-.12.11-.12.11-.11.1-.11.11-.11.11-.1.1-.11.11-.1.11-.1.11-.09.1-.1.11-.1.11-.09.11-.08.11-.09.12-.08.11-.08.11-.08.11-.08.11-.08.12-.07.12-.07.12-.06.12-.06.12-.05.12-.05.12-.04.12-.04.12-.02.12-.02.13-.02.12v.12s-.01.12-.01.12v.12s.01.12.01.12v.12s.04.12.04.12l.03.12.03.12.04.12.04.12.05.11.05.11.07.11.07.11.07.11.08.12.08.1.08.11.09.1.09.1.08.08.08.08.08.08.08.08.08.07.08.07.08.07.08.07.09.07.08.06.09.06.09.06.09.05.09.06.09.06.1.05.09.05.1.05.1.04.09.05.1.05.1.04.11.04.09.04.11.04.11.03.1.03.11.04.11.02.11.02.11.02.11.02h.1s.11.04.11.04h.1s.1.02.1.02l.1.02.1.02h.11s.11.03.11.03h.1s.11.02.11.02l.1.02h.1s.11.03.11.03h.1s.11.02.11.02h.11s.1.02.1.02h.11s.11.02.11.02h.11s.11.02.11.02h.11s.11.02.11.02h.1s.11.03.11.03h.11s.11.01.11.01h.11s.11.02.11.02h.11s.11.02.11.02h.11s.29.03.29.03l.29.03.29.02.29.03.29.02.29.02.29.03.29.04.28.03.28.03.27.04.28.03.27.04.27.04.28.05.27.03.27.04.27.05.26.04.27.05.26.04.26.05.25.05.27.05.25.05.25.06.26.04.25.06.25.06.24.05.25.06.24.06.24.07.24.06.24.06.23.07.23.07.23.07.23.08.22.07.21.08.22.08.21.08.21.08.2.09.2.09.2.09.2.09.2.1.19.1.18.1.19.11.18.1.18.11.17.11.18.11.17.11.16.11.16.11.17.12.15.12.15.12.15.12.15.12.14.12.14.13.13.12.12.13.13.14.12.13.12.13.12.14.11.14.11.14.1.15.11.16.09.15.1.15.1.15.08.17.08.17.08.17.08.17.08.18.07.17.06.18.06.18.07.18.05.19.06.19.05.19.05.2.05.2.04.2.04.2.04.2.02.21.03.21.02.21v.22s.02.22.02.22v.22s.01.24.01.24v.22s-.01.24-.01.24l-.02.24v.24s-.03.24-.03.24l-.03.25-.03.25-.04.25-.04.26-.04.25-.05.27-.05.26-.05.27-.07.27-.06.28-.08.28-.08.28-.08.29-.09.29-.09.3-.1.29-.11.3-.1.31-.11.31-.12.31-.12.31-.12.31-.12.31-.14.3-.13.3-.14.3-.14.29-.14.29-.14.29-.15.27-.15.27-.16.27-.15.27-.15.25-.16.26-.17.26-.17.25-.17.24-.17.24-.18.23-.17.24-.18.23-.18.22-.18.23-.19.21-.2.21-.2.2-.2.21-.2.2-.21.2-.2.19-.21.18-.22.2-.21.19-.22.17-.22.18-.23.17-.22.17-.22.17-.23.16-.23.16-.23.15-.23.15-.23.14-.23.15-.23.14-.24.14-.23.14-.23.13-.24.13-.24.13-.23.12-.24.12-.23.11-.24.11-.24.11-.24.11-.24.11-.24.09-.25.1-.24.09-.26.09-.25.09-.25.08-.24.08-.25.08-.25.07-.25.07-.25.07-.25.06-.26.07-.25.06-.26.05-.25.06-.26.05-.26.05-.25.04-.25.05-.26.04-.25.04-.26.03-.25.04-.26.02-.25.02-.27.03-.26.02h-.26s-.26.02-.26.02h-.26s-.26.01-.26.01h-.26s-.26,0-.26,0h-.27s-.27,0-.27,0h-.27s-.26-.02-.26-.02h-.26s-.26-.02-.26-.02l-.26-.03-.26-.02-.26-.02-.25-.02-.26-.04-.25-.02-.25-.04-.25-.04-.25-.04-.25-.04-.24-.05-.24-.04-.24-.05-.24-.05-.24-.05-.23-.05-.23-.06-.24-.05-.23-.07-.23-.06-.23-.07-.23-.08-.23-.07-.23-.08-.22-.08-.21-.08-.22-.07-.21-.09-.22-.09-.21-.08-.21-.09-.21-.1-.21-.09-.21-.08-.21-.1-.2-.09-.21-.09-.19-.1-.2-.1-.2-.1-.2-.1-.18-.1-.19-.1-.18-.11-.18-.11-.18-.11-.17-.11-.17-.11-.17-.12-.17-.12-.16-.12-.17-.12-.15-.14-.15-.13-.15-.14-.15-.14-.14-.15-.15-.14-.13-.16-.14-.15-.13-.17-.13-.17v-.02s-.06-.08-.06-.08l-.07-.12-.09-.16-.11-.18-.12-.21-.13-.24-.14-.27-.15-.28-.15-.3-.15-.33-.16-.33-.15-.35-.15-.36-.15-.36-.14-.36-.13-.36-.13-.36-.11-.35-.09-.34-.08-.33-.07-.32-.04-.3-.02-.27v-.25l.02-.21.04-.17.05-.14.06-.1.07-.08.09-.06.12-.05h.02s.03-.03.03-.03h.06s.03-.02.03-.02h.03s.03-.01.03-.01h.03s.04-.02.04-.02h.07s.02-.01.02-.01h.04s.04-.01.04-.01h.07s.04-.02.04-.02h.08s.04,0,.04,0h.08s.04-.01.04-.01h.09s.04-.01.04-.01h.55s.05-.02.05-.02h.1s.05-.01.05-.01h.04s.05-.02.05-.02h.05s.04-.02.04-.02h.05s.05-.02.05-.02h.04s.04-.02.04-.02l.05-.02h.04s.04-.02.04-.02h.05s.05-.03.05-.03h.05s.05-.02.05-.02l.04-.02.04-.02h.05s.04-.04.04-.04h.05s.05-.04.05-.04l.04-.02.06-.03.07-.04.07-.04.06-.04.06-.04.05-.05.05-.05.05-.06.05-.05.05-.05.05-.06.05-.07.04-.06.04-.06.04-.07.04-.08.04-.07.04-.06.03-.08.04-.09.04-.08.02-.09.03-.09.04-.08.03-.1.02-.09.02-.1.02-.1.02-.11.02-.1.02-.11.02-.12v-.08s.02-.08.02-.08v-.08s.02-.08.02-.08v-.08s.01-.08.01-.08v-.3s-.01-.08-.01-.08v-.07s-.01-.07-.01-.07v-.08s-.02-.06-.02-.06l-.02-.07-.02-.06-.02-.07-.02-.08-.02-.06-.02-.06-.04-.07-.02-.06-.03-.06-.04-.07-.04-.05-.04-.05-.04-.05-.05-.06-.04-.05-.05-.05-.05-.04-.04-.04-.05-.05-.05-.04-.05-.04-.05-.04-.05-.04-.06-.04-.05-.03-.05-.03-.05-.02-.06-.02-.06-.02-.06-.02-.06-.02-.06-.03h-.06s-.07-.03-.07-.03h-.06s-.06-.03-.06-.03h-.07s-.06-.02-.06-.02l-.07-.02h-.13s-.06-.02-.06-.02h-.14s-.07,0-.07,0h-.2s-.07,0-.07,0h-.13s-.06.02-.06.02h-.12s-.07.02-.07.02h-.13s-.07.03-.07.03h-.07s-.07.02-.07.02l-.07.02h-.07s-.07.03-.07.03h-.06s-.07.03-.07.03l-.08.02-.06.02-.08.02h-.07s-.08.03-.08.03l-.08.03-.07.02-.08.02-.07.02-.07.02-.08.02-.08.03-.08.03-.08.03-.08.02-.08.04-.08.03-.07.03-.08.03-.07.03-.07.02-.08.03-.07.03-.07.03-.07.03-.07.03-.07.02-.07.03-.07.03-.06.02-.07.04-.07.02-.07.04-.07.03-.06.02-.07.04-.06.02-.06.03-.06.04-.06.03-.06.03-.05.02-.06.03-.06.03-.05.04-.05.03-.05.02-.05.04-.1.05-.1.07-.1.06-.1.06-.09.07-.09.08-.08.07-.1.07-.08.08-.08.07-.08.09-.08.08-.08.08-.07.09-.08.08-.07.09-.07.09-.07.09-.05.1-.07.09-.05.1-.05.1-.05.1-.05.1-.05.1-.05.1-.04.11-.04.1-.03.11-.04.11-.03.11-.03.11-.14.63-.09.62-.05.64v.61s.02.62.02.62l.07.62.09.61.14.61.16.6.2.6.23.59.25.58.28.58.3.56.32.56.34.55.36.53.39.52.39.51.4.49.43.49.43.46.45.46.45.44.46.42.47.4.48.4.48.37.47.35.49.33.48.31.48.3.23.13.23.13.23.13.23.12.24.12.24.12.24.12.24.11.24.11.24.11.24.11.24.1.25.09.25.1.25.1.26.08.25.09.26.08.25.09.26.08.26.08.26.07.26.08.26.07.27.06.27.07.27.06.27.05.27.05.27.05.27.05.27.04.28.04.27.05.28.04.28.04.28.03.28.02.28.03.28.02.29.02h.29s.29.02.29.02h.29s.29.01.29.01h.29s.28,0,.28,0h.29s.29-.01.29-.01h.29s.29-.02.29-.02h.29s.29-.04.29-.04l.29-.02.3-.02.3-.03.29-.03.3-.04.3-.04.3-.04.3-.04.3-.05.3-.05.3-.05.3-.05.3-.06.3-.07.3-.08.3-.07.3-.08.3-.08.29-.09.3-.09.3-.1.3-.11.3-.11.3-.11.3-.11.3-.12.3-.12.3-.12.3-.14.29-.13.3-.14.29-.15.29-.14.3-.14.3-.16.29-.15.29-.16.29-.17.3-.17.29-.17.3-.17.29-.18.29-.18.26-.17.25-.17.24-.17.24-.17.25-.18.24-.19.24-.18.23-.2.23-.19.23-.2.23-.2.23-.2.21-.21.23-.21.22-.21.21-.22.21-.22.21-.22.21-.23.2-.23.21-.24.2-.24.2-.24.2-.26.2-.25.19-.25.18-.25.19-.27.18-.26.18-.27.17-.27.17-.28.17-.27.17-.28.17-.27.17-.28.16-.27.15-.27.15-.27.15-.27.15-.27.14-.28.14-.27.14-.27.13-.27.14-.26.12-.27.12-.27.12-.26.11-.27.12-.27.12-.27.11-.26.11-.27.1-.26.11-.26.09-.27.09-.26.09-.26.1-.27.09-.26.08-.26.08-.25.08-.26.12-.41.11-.4.11-.39.09-.4.1-.39.09-.39.09-.37.08-.37.07-.37.07-.35.06-.36.05-.36.05-.35.05-.33.04-.34.04-.33.02-.32.02-.32v-.31s.02-.32.02-.32v-.61s-.02-.29-.02-.29l-.02-.29-.02-.28-.03-.29-.04-.27-.04-.28-.05-.26-.05-.26-.07-.26-.07-.25-.08-.24-.08-.24-.08-.23-.09-.24-.09-.22-.1-.23-.1-.23-.1-.22-.11-.21-.11-.21-.11-.21-.12-.2-.12-.2-.12-.2-.13-.2-.14-.19-.14-.18-.14-.19-.15-.17-.15-.18-.15-.17-.16-.17-.16-.17-.17-.16-.17-.16-.18-.15-.18-.15-.19-.15-.18-.15-.19-.13-.2-.13-.2-.14-.2-.13-.2-.12-.2-.12-.21-.12-.21-.12-.21-.11-.21-.11-.22-.11-.22-.11-.23-.1-.23-.09-.23-.11-.23-.09-.24-.09-.23-.1-.24-.09-.25-.08-.24-.09-.25-.07-.25-.08-.25-.07-.26-.07-.26-.07-.27-.07-.27-.06-.27-.06-.27-.07-.28-.06-.28-.05-.28-.05-.29-.05-.29-.05-.29-.05-.29-.04-.28-.04-.29-.05-.29-.04-.29-.04-.29-.04-.29-.04-.29-.04-.29-.04-.29-.04-.29-.05-.29-.03-.3-.04-.29-.04-.29-.04-.3-.04-.29-.03-.3-.04-.3-.03-.3-.04-.3-.04-.29-.02-.31-.04-.29-.04-.31-.03-.3-.03-.3-.03-.31-.03-.3-.03-.3-.02-.31-.03-.15-.02-.15-.02h-.14s-.14-.03-.14-.03l-.12-.02-.13-.02-.12-.02-.11-.02-.11-.02-.11-.02-.1-.03-.1-.02-.09-.02-.09-.03-.08-.02-.08-.02-.07-.03-.07-.02-.07-.04-.05-.02-.05-.02-.04-.03-.04-.02-.04-.02-.03-.03-.03-.02-.02-.02v-.02s-.03-.01-.03-.01h0s0-.02,0-.02h0s-.01-.04-.01-.04v-.03s-.02-.02-.02-.02v-.03s0-.02,0-.02v-.02s0-.03,0-.03v-.15s.01-.03.01-.03v-.04s.02-.04.02-.04l.02-.02v-.05s.03-.04.03-.04l.02-.04.02-.05.02-.03.03-.05.03-.04.03-.05.03-.05.04-.05.04-.05.04-.05.04-.05.05-.05.05-.05.05-.06.05-.06.05-.05.06-.06.06-.05.07-.06.07-.06.06-.06.07-.06.07-.06.07-.07.07-.06.08-.06.08-.06.08-.06.08-.05.08-.06.08-.06.09-.07.09-.05.09-.07.09-.06.1-.07.09-.06.1-.07.09-.06.1-.06.11-.07.1-.06.11-.07.11-.06.11-.07.11-.06.12-.07.12-.06.12-.07.12-.06.11-.07.12-.07.11-.06.12-.07.11-.07.12-.06.12-.06.12-.07.12-.06.11-.07.12-.06.11-.06.11-.07.12-.06.12-.06.12-.06.12-.06.11-.06.12-.06.12-.07.12-.06.12-.06.11-.06.12-.06.11-.06.12-.06.12-.06.12-.06.11-.06.11-.05.11-.06.12-.05.11-.05.11-.06.11-.05.11-.05.11-.04.11-.07.11-.05.1-.05.11-.05.1-.05.11-.04.1-.05.11-.04.1-.05.11-.05.1-.04.09-.04.11-.05.1-.05.09-.04.1-.04.1-.04.09-.04.09-.04.1-.05.09-.03.09-.05.09-.03.09-.04.09-.04.09-.04.08-.03.08-.04.08-.02.07-.04.08-.03.08-.03.07-.03.07-.03.07-.03.06-.03.06-.03.07-.02.05-.02.06-.03.05-.02.05-.02h.05s.05-.04.05-.04l.05-.02h.03s.04-.02.04-.02h.04s.04-.02.04-.02h.02s.03-.02.03-.02h.02s.02,0,.02,0h.01s.01-.01.01-.01l.26-.05.27-.05.26-.06.26-.05.26-.06.25-.07.26-.06.25-.06.25-.07.25-.07.24-.08.24-.08.24-.08.24-.08.24-.08.24-.1.24-.09.23-.09.23-.1.23-.1.23-.11.23-.1.22-.1.23-.11.22-.11.22-.11.22-.12.21-.12.21-.12.21-.12.21-.13.21-.13.2-.13.2-.13.2-.13.2-.14.2-.13.2-.13.19-.14.19-.14.19-.14.18-.14.19-.14.18-.15.18-.14.18-.15.18-.15.17-.14.17-.16.17-.15.17-.15.16-.16.17-.16.17-.16.15-.16.16-.16.15-.16.15-.17.15-.17.15-.16.14-.17.14-.17.14-.17.14-.18.14-.17.13-.17.14-.17.12-.18.12-.17.14-.18.11-.18.12-.18.11-.18.11-.18.11-.19.11-.18.11-.17.11-.19.1-.18.1-.2.09-.18.1-.19.09-.18.09-.2.09-.18.08-.18.08-.2.08-.19.08-.19.08-.19.07-.19.07-.2.07-.2.07-.2.07-.19.05-.19.06-.2.05-.2.05-.19.05-.19.05-.19.04-.19.04-.2.04-.19.04-.19.02-.19.04-.18.02-.19.02-.18v-.19s.03-.2.03-.2v-.19s.02-.18.02-.18v-.18s.01-.19.01-.19v-.37s-.01-.18-.01-.18v-.18s-.02-.19-.02-.19l-.02-.17v-.18s-.04-.18-.04-.18l-.02-.17-.03-.18v-.07s.1-.04.1-.04l.11-.05.1-.04.11-.05.1-.05.1-.04.11-.05.1-.05.1-.05.09-.06.1-.05.09-.05.09-.06ZM1197.59,295.77l-.03.15-.03.15-.05.16-.04.16-.05.16-.05.17-.06.17-.06.17-.08.18-.06.15-.07.16-.07.15-.06.15-.07.15-.08.15-.08.15-.08.17-.09.15-.08.16-.09.14-.1.16-.09.15-.09.17-.09.15-.11.15-.11.16-.11.16-.11.15-.11.16-.11.16-.12.15-.12.16-.12.15-.13.17-.12.16-.13.15-.14.16-.14.17-.14.16-.14.16-.14.17-.14.15-.15.15-.15.15-.14.15-.15.15-.15.15-.15.14-.15.14-.15.13-.15.13-.15.14-.16.13-.15.12-.15.12-.15.12-.15.11-.16.11-.15.12-.16.11-.15.11-.16.1-.15.1-.16.1-.17.1-.16.09-.15.09-.17.09-.17.08-.16.08-.17.08-.16.07-.17.07-.22.1-.22.09-.21.08-.21.08-.21.07-.21.06-.2.07-.2.06-.2.06-.2.05-.2.05-.18.04-.19.04-.18.04-.18.03-.18.03-.17.02-.17.02h-.17s-.17.02-.17.02h-.17s-.16,0-.16,0h-.16s-.15-.01-.15-.01h-.15s-.15-.02-.15-.02l-.15-.02-.14-.03-.14-.02-.14-.03-.13-.04-.14-.04-.14-.04-.13-.04-.13-.05-.12-.05-.12-.05-.12-.06-.12-.05-.11-.06-.11-.05-.11-.06-.1-.06-.1-.07-.1-.07-.09-.07-.09-.07-.1-.07-.08-.09-.08-.08-.08-.08-.08-.09-.07-.08-.07-.09-.07-.1-.07-.1-.07-.09-.05-.1-.06-.1-.06-.11-.05-.11-.05-.11-.05-.11-.04-.11h0s-.08-.22-.08-.22v-.02s-.04-.13-.04-.13l-.04-.12-.04-.12-.02-.12-.03-.12-.02-.13-.02-.13-.02-.14v-.13s-.02-.14-.02-.14v-.14s0-.13,0-.13v-.15s0-.14,0-.14v-.3s.02-.14.02-.14l.02-.15.02-.15.02-.14.03-.16.03-.14.03-.17.04-.15.04-.16.05-.16.04-.17.05-.17.05-.17.06-.17.05-.17.07-.17.07-.17.07-.17.08-.16.08-.17.08-.17.09-.17.1-.16.09-.17.1-.17.1-.17.11-.17.11-.17.11-.16.12-.17.12-.16.14-.17.12-.17.14-.16.15-.17.15-.16.14-.17.15-.16.15-.16.17-.16.17-.17.17-.17.17-.15.18-.16.18-.17.19-.16.12-.1.11-.1.13-.1.12-.1.13-.09.13-.09.12-.1.13-.08.12-.08.14-.09.13-.08.13-.08.15-.08.14-.08.14-.08.14-.07.15-.08.14-.07.15-.07.14-.07.15-.07.15-.07.15-.06.16-.06.15-.06.16-.06.16-.06.16-.05.17-.06.17-.05.17-.05.17-.05.17-.04.17-.05.17-.04.17-.05.17-.04.16-.04.17-.04.17-.04.16-.03.15-.03.17-.02.16-.02.15-.03.16-.02.15-.02h.15s.15-.02.15-.02l.15-.02h.15s.15-.02.15-.02h.29s.15,0,.15,0h.29s.14.02.14.02h.14l.14.02h.14s.14.02.14.02h.14s.14.04.14.04l.13.02.14.03.12.02.12.02.13.03.12.04.12.03.12.04.12.03.11.04.11.04.1.04.12.05.1.04.11.05.1.05.09.05.1.05.09.06.09.06.09.06.08.06.09.08.08.05.08.08.08.07.08.07.07.08.07.08.07.08.07.08.07.08.06.09.05.08.05.08.05.09.05.1.04.08.04.1.04.1.03.09.02.11.02.1.02.11v.11s.03.11.03.11v.24s0,.13,0,.13v.13s-.01.12-.01.12l-.02.14v.14s-.04.14-.04.14l-.02.14Z"/>
          <polygon class="cls-2" points="1333.46 291.09 1333.35 290.95 1333.24 290.82 1333.13 290.7 1333.01 290.58 1332.88 290.46 1332.76 290.36 1332.62 290.24 1332.48 290.14 1332.34 290.04 1332.19 289.94 1332.04 289.85 1331.88 289.77 1331.72 289.68 1331.55 289.6 1331.39 289.52 1331.21 289.45 1331.03 289.38 1330.84 289.32 1330.65 289.25 1330.46 289.2 1330.26 289.14 1330.05 289.09 1329.85 289.04 1329.64 289.01 1329.43 288.96 1329.21 288.92 1328.97 288.89 1328.75 288.86 1328.52 288.84 1328.28 288.81 1328.04 288.79 1327.79 288.78 1327.55 288.76 1327.31 288.76 1327.06 288.75 1326.81 288.74 1326.57 288.74 1326.32 288.74 1326.08 288.74 1325.83 288.75 1325.58 288.75 1325.33 288.76 1325.09 288.78 1324.83 288.79 1324.58 288.8 1324.33 288.82 1324.08 288.84 1323.82 288.87 1323.57 288.89 1323.32 288.92 1323.07 288.96 1322.81 288.98 1322.56 289.02 1322.3 289.05 1322.05 289.1 1321.79 289.14 1321.53 289.18 1321.28 289.23 1321.02 289.28 1320.77 289.33 1320.51 289.39 1320.25 289.44 1319.99 289.5 1319.73 289.56 1319.48 289.63 1319.22 289.69 1318.96 289.77 1318.71 289.83 1318.46 289.9 1318.2 289.98 1317.96 290.06 1317.71 290.14 1317.46 290.22 1317.21 290.31 1316.98 290.4 1316.73 290.49 1316.49 290.58 1316.25 290.67 1316.02 290.76 1315.78 290.86 1315.55 290.96 1315.31 291.06 1315.09 291.17 1314.86 291.28 1314.63 291.38 1314.41 291.5 1314.19 291.61 1313.97 291.72 1313.75 291.84 1313.53 291.96 1313.31 292.08 1313.1 292.2 1312.89 292.33 1312.68 292.46 1312.46 292.59 1312.26 292.72 1312.05 292.86 1311.84 292.99 1311.64 293.13 1311.45 293.28 1311.26 293.42 1311.08 293.56 1310.9 293.71 1310.74 293.86 1310.57 294.01 1310.41 294.16 1310.25 294.31 1310.11 294.47 1309.96 294.62 1309.82 294.77 1309.7 294.93 1309.57 295.11 1309.45 295.27 1309.33 295.43 1309.22 295.59 1309.13 295.77 1309.02 295.94 1308.93 296.11 1308.85 296.28 1308.76 296.46 1308.7 296.64 1308.63 296.82 1308.57 297 1308.51 297.19 1308.47 297.37 1308.43 297.55 1308.39 297.74 1308.35 297.93 1308.34 298.08 1308.33 298.22 1308.31 298.37 1308.31 298.52 1308.3 298.66 1308.3 298.8 1308.3 298.94 1308.3 299.08 1308.31 299.22 1308.32 299.35 1308.33 299.5 1308.35 299.64 1308.37 299.77 1308.4 299.9 1308.42 300.02 1308.45 300.16 1308.48 300.29 1308.52 300.42 1308.56 300.55 1308.6 300.67 1308.66 300.8 1308.71 300.92 1308.76 301.05 1308.82 301.16 1308.88 301.28 1308.95 301.4 1309.01 301.53 1309.08 301.63 1309.17 301.75 1309.24 301.85 1309.32 301.97 1309.4 302.07 1309.49 302.17 1309.58 302.28 1309.66 302.38 1309.74 302.47 1309.83 302.57 1309.93 302.67 1310.02 302.76 1310.11 302.86 1310.21 302.96 1310.3 303.05 1310.4 303.15 1310.5 303.25 1310.6 303.33 1310.7 303.43 1310.8 303.52 1310.91 303.61 1311.01 303.7 1311.12 303.79 1311.23 303.88 1311.34 303.97 1311.45 304.06 1311.57 304.15 1311.67 304.23 1311.79 304.32 1311.91 304.4 1312.02 304.49 1312.15 304.57 1312.27 304.66 1312.39 304.74 1312.51 304.82 1312.64 304.91 1312.76 304.99 1312.89 305.07 1313.01 305.15 1313.13 305.23 1313.26 305.31 1313.38 305.39 1313.52 305.47 1313.64 305.54 1313.77 305.62 1313.9 305.7 1314.03 305.78 1314.16 305.85 1314.29 305.93 1314.42 306 1314.55 306.08 1314.69 306.16 1314.83 306.24 1314.96 306.31 1315.09 306.38 1315.23 306.46 1315.37 306.53 1315.5 306.6 1315.65 306.68 1315.78 306.75 1315.92 306.82 1316.06 306.89 1316.21 306.97 1316.35 307.04 1316.49 307.1 1316.63 307.17 1316.77 307.25 1316.92 307.32 1317.07 307.39 1317.06 307.39 1317.21 307.46 1317.35 307.53 1317.5 307.6 1317.64 307.66 1317.78 307.73 1317.92 307.8 1318.06 307.88 1318.2 307.95 1318.34 308.01 1318.48 308.08 1318.61 308.15 1318.75 308.21 1318.89 308.29 1319.03 308.35 1319.16 308.42 1319.29 308.49 1319.42 308.56 1319.56 308.62 1319.68 308.7 1319.82 308.76 1319.95 308.83 1320.08 308.9 1320.21 308.97 1320.33 309.03 1320.46 309.11 1320.58 309.17 1320.71 309.24 1320.83 309.31 1320.96 309.38 1321.07 309.44 1321.2 309.51 1321.32 309.57 1321.44 309.64 1321.56 309.71 1321.68 309.78 1321.79 309.85 1321.91 309.91 1322.01 309.98 1322.13 310.06 1322.23 310.14 1322.34 310.2 1322.45 310.27 1322.55 310.34 1322.65 310.4 1322.75 310.48 1322.85 310.55 1322.95 310.62 1323.04 310.69 1323.13 310.76 1323.22 310.83 1323.31 310.91 1323.4 310.98 1323.48 311.05 1323.56 311.13 1323.65 311.2 1323.73 311.28 1323.81 311.35 1323.89 311.43 1323.96 311.5 1324.03 311.57 1324.1 311.65 1324.18 311.73 1324.25 311.8 1324.31 311.88 1324.31 311.88 1324.37 311.95 1324.44 312.02 1324.49 312.1 1324.54 312.18 1324.6 312.25 1324.65 312.34 1324.7 312.41 1324.75 312.48 1324.79 312.55 1324.83 312.64 1324.87 312.72 1324.9 312.79 1324.94 312.87 1324.97 312.95 1324.99 313.03 1325.02 313.11 1325.05 313.18 1325.07 313.26 1325.09 313.34 1325.11 313.42 1325.12 313.51 1325.14 313.59 1325.14 313.67 1325.15 313.75 1325.15 313.83 1325.16 313.92 1325.16 314 1325.16 314.09 1325.15 314.16 1325.14 314.25 1325.14 314.34 1325.13 314.43 1325.09 314.63 1325.05 314.84 1325.02 315.03 1324.97 315.22 1324.92 315.4 1324.88 315.58 1324.82 315.76 1324.77 315.93 1324.7 316.1 1324.65 316.26 1324.58 316.42 1324.51 316.58 1324.45 316.73 1324.37 316.88 1324.29 317.02 1324.22 317.16 1324.14 317.3 1324.06 317.43 1323.97 317.55 1323.89 317.67 1323.79 317.8 1323.7 317.91 1323.6 318.03 1323.5 318.13 1323.4 318.23 1323.31 318.34 1323.19 318.44 1323.09 318.52 1322.97 318.61 1322.87 318.7 1322.75 318.79 1322.63 318.86 1322.51 318.94 1322.37 319.02 1322.25 319.09 1322.11 319.17 1321.99 319.24 1321.86 319.3 1321.73 319.37 1321.59 319.43 1321.46 319.49 1321.32 319.55 1321.18 319.61 1321.05 319.66 1320.91 319.71 1320.77 319.75 1320.64 319.8 1320.49 319.85 1320.35 319.88 1320.21 319.93 1320.07 319.96 1319.92 319.99 1319.77 320.02 1319.63 320.05 1319.48 320.08 1319.34 320.1 1319.18 320.13 1319.03 320.14 1318.88 320.16 1318.73 320.17 1318.57 320.19 1318.42 320.19 1318.27 320.21 1318.11 320.21 1317.95 320.21 1317.79 320.21 1317.63 320.21 1317.47 320.21 1317.31 320.21 1317.16 320.2 1316.99 320.19 1316.83 320.19 1316.68 320.17 1316.51 320.16 1316.36 320.14 1316.2 320.13 1316.04 320.12 1315.88 320.1 1315.72 320.08 1315.56 320.06 1315.4 320.04 1315.24 320.01 1315.08 319.99 1314.92 319.96 1314.76 319.93 1314.6 319.9 1314.43 319.87 1314.27 319.83 1314.11 319.8 1313.95 319.77 1313.79 319.73 1313.63 319.69 1313.47 319.65 1313.31 319.61 1313.15 319.56 1312.99 319.52 1312.83 319.47 1312.67 319.42 1312.51 319.37 1312.36 319.33 1312.2 319.28 1312.05 319.22 1311.91 319.18 1311.77 319.13 1311.63 319.08 1311.49 319.04 1311.36 318.98 1311.22 318.93 1311.09 318.89 1310.97 318.84 1310.84 318.79 1310.72 318.74 1310.6 318.69 1310.49 318.64 1310.37 318.59 1310.27 318.54 1310.16 318.49 1310.05 318.44 1309.95 318.39 1309.84 318.34 1309.74 318.29 1309.65 318.23 1309.56 318.19 1309.47 318.14 1309.39 318.08 1309.3 318.03 1309.22 317.98 1309.14 317.93 1309.07 317.88 1309.01 317.83 1308.94 317.79 1308.87 317.75 1308.81 317.7 1308.74 317.65 1308.67 317.6 1308.6 317.55 1308.54 317.5 1308.47 317.45 1308.41 317.4 1308.35 317.35 1308.28 317.3 1308.21 317.24 1308.15 317.19 1308.09 317.14 1308.02 317.09 1307.96 317.03 1307.9 316.98 1307.83 316.92 1307.78 316.87 1307.71 316.81 1307.65 316.75 1307.59 316.71 1307.53 316.64 1307.47 316.59 1307.4 316.53 1307.34 316.47 1307.28 316.42 1307.22 316.35 1307.17 316.3 1307.11 316.23 1307.04 316.17 1306.97 316.1 1306.92 316.04 1306.85 315.97 1306.8 315.9 1306.74 315.83 1306.69 315.77 1306.64 315.7 1306.59 315.63 1306.54 315.57 1306.5 315.51 1306.45 315.44 1306.41 315.38 1306.37 315.31 1306.33 315.24 1306.29 315.17 1306.25 315.12 1306.22 315.05 1306.18 314.98 1306.14 314.91 1306.11 314.85 1306.08 314.79 1306.04 314.72 1306.01 314.66 1305.98 314.59 1305.95 314.52 1305.92 314.45 1305.89 314.38 1305.86 314.31 1305.83 314.24 1305.8 314.17 1305.77 314.11 1305.77 314.11 1305.7 313.93 1305.63 313.78 1305.57 313.63 1305.5 313.49 1305.45 313.35 1305.39 313.23 1305.34 313.11 1305.28 313 1305.23 312.9 1305.17 312.8 1305.11 312.7 1305.04 312.62 1304.96 312.53 1304.86 312.44 1304.72 312.37 1304.56 312.32 1304.4 312.3 1304.23 312.34 1304.1 312.39 1303.99 312.46 1303.89 312.53 1303.81 312.62 1303.73 312.7 1303.66 312.79 1303.58 312.89 1303.51 312.99 1303.42 313.11 1303.34 313.23 1303.26 313.37 1303.17 313.52 1303.07 313.67 1302.97 313.83 1302.82 314.09 1302.71 314.36 1302.64 314.63 1302.58 314.92 1302.56 315.2 1302.56 315.48 1302.59 315.77 1302.64 316.05 1302.71 316.33 1302.8 316.61 1302.9 316.89 1303.01 317.16 1303.15 317.43 1303.29 317.7 1303.44 317.97 1303.6 318.23 1303.77 318.48 1303.96 318.74 1304.14 318.98 1304.34 319.22 1304.54 319.46 1304.74 319.68 1304.94 319.9 1305.15 320.11 1305.35 320.32 1305.56 320.51 1305.76 320.69 1305.95 320.86 1306.16 321.02 1306.35 321.18 1306.54 321.31 1306.73 321.44 1306.87 321.54 1307.02 321.63 1307.18 321.73 1307.33 321.82 1307.48 321.91 1307.64 322 1307.8 322.09 1307.95 322.18 1308.11 322.26 1308.27 322.34 1308.43 322.42 1308.59 322.5 1308.75 322.57 1308.91 322.65 1309.08 322.72 1309.24 322.79 1309.4 322.87 1309.57 322.92 1309.74 322.99 1309.91 323.05 1310.08 323.12 1310.25 323.17 1310.42 323.23 1310.59 323.28 1310.77 323.33 1310.95 323.39 1311.12 323.44 1311.31 323.49 1311.48 323.53 1311.66 323.58 1311.84 323.62 1312.02 323.67 1312.2 323.7 1312.39 323.74 1312.57 323.76 1312.75 323.8 1312.94 323.83 1313.11 323.86 1313.3 323.89 1313.48 323.91 1313.67 323.93 1313.85 323.95 1314.03 323.97 1314.22 323.99 1314.41 324.01 1314.6 324.02 1314.77 324.03 1314.96 324.04 1315.15 324.05 1315.34 324.05 1315.52 324.05 1315.71 324.06 1315.89 324.06 1316.08 324.06 1316.26 324.05 1316.45 324.05 1316.63 324.04 1316.83 324.04 1317.01 324.02 1317.2 324.01 1317.38 324 1317.57 323.98 1317.76 323.96 1317.94 323.95 1318.14 323.93 1318.33 323.9 1318.51 323.87 1318.7 323.84 1318.88 323.81 1319.07 323.79 1319.25 323.74 1319.44 323.71 1319.62 323.67 1319.8 323.63 1319.98 323.58 1320.16 323.54 1320.34 323.49 1320.53 323.45 1320.71 323.4 1320.89 323.35 1321.06 323.29 1321.24 323.23 1321.41 323.17 1321.59 323.12 1321.76 323.05 1321.94 322.99 1322.11 322.92 1322.29 322.85 1322.46 322.78 1322.63 322.72 1322.8 322.64 1322.97 322.57 1323.14 322.48 1323.31 322.41 1323.47 322.32 1323.63 322.24 1323.8 322.15 1323.96 322.06 1324.13 321.97 1324.29 321.88 1324.45 321.79 1324.6 321.69 1324.76 321.59 1324.92 321.49 1325.07 321.39 1325.22 321.29 1325.37 321.18 1325.52 321.07 1325.67 320.97 1325.81 320.86 1325.96 320.74 1326.1 320.63 1326.24 320.51 1326.38 320.39 1326.52 320.28 1326.65 320.14 1326.79 320.02 1326.92 319.9 1327.05 319.77 1327.19 319.63 1327.32 319.51 1327.44 319.37 1327.57 319.24 1327.68 319.1 1327.82 318.96 1327.93 318.81 1328.05 318.67 1328.17 318.52 1328.28 318.38 1328.4 318.22 1328.51 318.07 1328.62 317.92 1328.72 317.76 1328.83 317.6 1328.93 317.44 1329.02 317.28 1329.12 317.11 1329.21 316.94 1329.29 316.78 1329.38 316.6 1329.45 316.43 1329.53 316.26 1329.61 316.08 1329.68 315.9 1329.75 315.72 1329.82 315.54 1329.88 315.36 1329.94 315.17 1330 314.98 1330.05 314.8 1330.11 314.6 1330.16 314.41 1330.2 314.22 1330.24 314.02 1330.29 313.83 1330.33 313.63 1330.36 313.42 1330.39 313.22 1330.42 313.01 1330.45 312.81 1330.46 312.67 1330.48 312.54 1330.48 312.41 1330.48 312.27 1330.49 312.14 1330.48 312 1330.48 311.88 1330.48 311.75 1330.46 311.62 1330.44 311.48 1330.42 311.36 1330.4 311.22 1330.37 311.09 1330.34 310.97 1330.31 310.84 1330.27 310.72 1330.23 310.6 1330.18 310.48 1330.14 310.36 1330.08 310.23 1330.04 310.12 1329.98 310 1329.92 309.88 1329.86 309.76 1329.79 309.65 1329.72 309.54 1329.65 309.43 1329.57 309.32 1329.5 309.21 1329.41 309.11 1329.33 309 1329.25 308.89 1329.16 308.79 1329.07 308.69 1328.99 308.59 1328.9 308.49 1328.81 308.39 1328.71 308.3 1328.62 308.2 1328.53 308.1 1328.43 308.01 1328.33 307.91 1328.23 307.82 1328.13 307.72 1328.03 307.63 1327.92 307.53 1327.82 307.44 1327.71 307.34 1327.6 307.25 1327.49 307.16 1327.38 307.06 1327.27 306.97 1327.16 306.88 1327.04 306.8 1326.92 306.71 1326.8 306.62 1326.68 306.53 1326.56 306.44 1326.43 306.36 1326.31 306.26 1326.18 306.18 1326.06 306.09 1325.92 306.01 1325.8 305.93 1325.66 305.84 1325.52 305.76 1325.39 305.67 1325.26 305.59 1325.12 305.51 1324.98 305.43 1324.85 305.34 1324.71 305.26 1324.57 305.18 1324.44 305.1 1324.29 305.02 1324.16 304.94 1324.02 304.86 1323.88 304.78 1323.74 304.7 1323.59 304.63 1323.45 304.54 1323.31 304.47 1323.17 304.39 1323.03 304.31 1322.88 304.23 1322.74 304.16 1322.59 304.08 1322.44 304.01 1322.3 303.93 1322.16 303.86 1322 303.79 1321.85 303.71 1321.7 303.63 1321.55 303.56 1321.4 303.49 1321.24 303.42 1321.1 303.34 1320.95 303.27 1320.8 303.21 1320.65 303.13 1320.51 303.06 1320.37 302.99 1320.22 302.92 1320.08 302.85 1319.93 302.78 1319.79 302.71 1319.66 302.64 1319.51 302.57 1319.38 302.5 1319.23 302.43 1319.1 302.36 1318.96 302.3 1318.82 302.23 1318.69 302.16 1318.55 302.09 1318.41 302.02 1318.28 301.96 1318.15 301.88 1318.01 301.82 1317.88 301.75 1317.75 301.69 1317.61 301.62 1317.49 301.55 1317.36 301.48 1317.23 301.42 1317.1 301.35 1316.97 301.29 1316.84 301.22 1316.72 301.16 1316.59 301.1 1316.47 301.03 1316.35 300.97 1316.23 300.9 1316.12 300.84 1316 300.77 1315.89 300.72 1315.78 300.65 1315.67 300.58 1315.56 300.52 1315.45 300.45 1315.34 300.38 1315.24 300.31 1315.14 300.26 1315.04 300.19 1314.93 300.12 1314.84 300.06 1314.74 300 1314.65 299.93 1314.56 299.86 1314.47 299.8 1314.38 299.73 1314.29 299.67 1314.2 299.6 1314.11 299.54 1314.03 299.47 1313.95 299.41 1313.87 299.34 1313.79 299.28 1313.71 299.21 1313.64 299.14 1313.57 299.08 1313.5 299.01 1313.44 298.96 1313.37 298.9 1313.31 298.83 1313.25 298.78 1313.2 298.71 1313.15 298.65 1313.1 298.59 1313.06 298.54 1313.02 298.47 1312.98 298.41 1312.94 298.36 1312.91 298.3 1312.89 298.24 1312.85 298.19 1312.83 298.13 1312.8 298.08 1312.78 298.02 1312.77 297.97 1312.75 297.91 1312.74 297.86 1312.72 297.81 1312.72 297.76 1312.71 297.7 1312.71 297.65 1312.7 297.6 1312.7 297.54 1312.71 297.49 1312.71 297.44 1312.72 297.38 1312.72 297.33 1312.74 297.24 1312.76 297.17 1312.78 297.1 1312.8 297.02 1312.84 296.95 1312.87 296.88 1312.9 296.8 1312.94 296.73 1312.99 296.66 1313.03 296.57 1313.08 296.5 1313.14 296.43 1313.2 296.34 1313.27 296.27 1313.34 296.19 1313.4 296.11 1313.48 296.03 1313.57 295.94 1313.65 295.87 1313.74 295.79 1313.84 295.71 1313.93 295.63 1314.04 295.55 1314.14 295.47 1314.26 295.39 1314.37 295.3 1314.49 295.22 1314.63 295.15 1314.74 295.06 1314.89 294.99 1315.02 294.91 1315.17 294.83 1315.31 294.74 1315.45 294.67 1315.6 294.6 1315.75 294.52 1315.9 294.44 1316.05 294.37 1316.21 294.3 1316.35 294.22 1316.51 294.16 1316.67 294.09 1316.83 294.02 1316.99 293.96 1317.14 293.88 1317.31 293.82 1317.48 293.76 1317.64 293.69 1317.81 293.63 1317.98 293.57 1318.15 293.52 1318.32 293.45 1318.49 293.4 1318.67 293.34 1318.84 293.28 1319.02 293.23 1319.2 293.18 1319.38 293.13 1319.57 293.07 1319.74 293.02 1319.92 292.98 1320.11 292.93 1320.3 292.88 1320.48 292.84 1320.67 292.81 1320.85 292.75 1321.04 292.71 1321.22 292.68 1321.41 292.64 1321.6 292.61 1321.78 292.57 1321.97 292.54 1322.16 292.51 1322.33 292.48 1322.52 292.45 1322.71 292.42 1322.89 292.39 1323.07 292.37 1323.25 292.35 1323.44 292.33 1323.62 292.31 1323.81 292.29 1323.98 292.27 1324.16 292.26 1324.35 292.24 1324.53 292.24 1324.7 292.22 1324.89 292.22 1325.07 292.2 1325.25 292.2 1325.43 292.2 1325.61 292.19 1325.78 292.19 1325.96 292.19 1326.14 292.19 1326.31 292.19 1326.49 292.2 1326.66 292.2 1326.83 292.22 1327 292.22 1327.16 292.24 1327.32 292.26 1327.47 292.27 1327.63 292.29 1327.77 292.31 1327.92 292.34 1328.06 292.36 1328.2 292.4 1328.34 292.43 1328.47 292.46 1328.59 292.5 1328.72 292.54 1328.85 292.58 1328.97 292.62 1329.07 292.67 1329.19 292.71 1329.3 292.76 1329.41 292.81 1329.51 292.87 1329.61 292.92 1329.71 292.97 1329.81 293.03 1329.89 293.09 1329.98 293.16 1330.07 293.22 1330.15 293.29 1330.23 293.36 1330.3 293.43 1330.55 293.66 1330.87 293.52 1330.96 293.48 1331.04 293.45 1331.12 293.41 1331.21 293.37 1331.29 293.32 1331.37 293.28 1331.45 293.24 1331.54 293.19 1331.62 293.15 1331.71 293.1 1331.78 293.05 1331.86 293 1331.95 292.95 1332.03 292.9 1332.1 292.85 1332.19 292.79 1332.26 292.73 1332.34 292.68 1332.42 292.62 1332.5 292.56 1332.57 292.51 1332.66 292.44 1332.74 292.38 1332.81 292.31 1332.88 292.25 1332.96 292.19 1333.04 292.11 1333.11 292.05 1333.19 291.98 1333.26 291.91 1333.34 291.84 1333.41 291.77 1333.72 291.44 1333.46 291.09"/>
        </g>
        <path class="cls-4" d="M877.15,209.05l.04.07c1.72,26.08,3.62,109.14-56.34,120.53,30.32,40.37,92.26,40.37,122.59.01h-.13c-59.98-11.37-58.08-94.46-56.35-120.54l.04-.08c-3.28-.21-6.57-.21-9.85.01h0ZM956.89,300.11c8.72-41.28-19.34-83.14-62.12-90.2v.02c-14.32,65.31,44.11,85.14,61.74,90.05l.39.13h0ZM869.39,209.93c-42.71,7.12-70.67,48.92-62,90.12,41.94-13.31,72.96-40.05,62-90.12h0Z"/>
      </g>
      <text class="cls-3" transform="translate(203.08 308.42)"><tspan x="0" y="0">Productos de</tspan></text>
    </g>
  </g>
</svg>