<?xml version="1.0" encoding="UTF-8"?>
<svg id="Capa_2" data-name="Capa 2" xmlns="http://www.w3.org/2000/svg" viewBox="0 0 1729.35 618.34">
  <defs>
    <style>
      .cls-1 {
        fill: #243a85;
      }
    </style>
  </defs>
  <g id="Capa_1-2" data-name="Capa 1">
    <g>
      <path class="cls-1" d="M309.17,0C138.42,0,0,138.42,0,309.17s138.42,309.17,309.17,309.17,309.17-138.42,309.17-309.17S479.92,0,309.17,0ZM456.06,409.42c-24.29,31.39-55.93,52.17-94.91,62.34v85.01h-58.91v-79.77c-45.97-3.78-84.3-22.3-114.99-55.58-30.7-33.28-46.04-73.02-46.04-119.24,0-49.11,17.02-90.67,51.06-124.67,34.04-34,75.64-51.01,124.8-51.01s90.69,17,124.59,51.01c33.89,34,50.84,75.56,50.84,124.67,0,40.11-12.15,75.86-36.44,107.24Z"/>
      <path class="cls-1" d="M244.64,334.65h-39.71c6.4,22.41,18.4,41.09,36,56.08,17.6,14.99,38.03,23.93,61.31,26.84v-25.31c0-16-5.6-29.6-16.8-40.8-11.2-11.19-24.81-16.8-40.8-16.8Z"/>
      <path class="cls-1" d="M317.08,185.41c-27.64,0-52,8.4-73.09,25.19-21.1,16.79-34.69,38.51-40.8,65.14h41.46c32.58,0,60.15,11.28,82.69,33.82,22.54,22.55,33.82,50.12,33.82,82.7v17.46c21.82-9,39.34-23.3,52.58-42.9,13.23-19.6,19.86-41.16,19.86-64.68,0-32.52-11.28-60.1-33.82-82.75-22.55-22.65-50.12-33.97-82.69-33.97Z"/>
      <path class="cls-1" d="M811.9,204.1c-14.26,0-27.65,2.7-40.16,8.08-12.52,5.38-24.16,13.46-34.92,24.23v-117.87h-59.15v329.16h59.15v-25.1c11.64,11.06,23.36,19.03,35.14,23.9,11.79,4.87,24.52,7.31,38.2,7.31,30.7,0,57.26-11.9,79.67-35.69,22.41-23.79,33.61-53.37,33.61-88.73s-10.84-66.72-32.52-90.15c-21.68-23.43-48.02-35.14-79.02-35.14ZM845.41,379.37c-12.44,13.24-27.76,19.86-45.95,19.86s-34.34-6.51-46.71-19.54c-12.37-13.02-18.55-30.08-18.55-51.18s6.18-37.4,18.55-50.21c12.37-12.8,27.94-19.21,46.71-19.21s34.05,6.51,46.27,19.54c12.22,13.02,18.34,29.72,18.34,50.09s-6.22,37.4-18.66,50.64Z"/>
      <path class="cls-1" d="M1020.75,213.27c-9.17,6.11-16.52,15.06-22.05,26.85v-29.9h-51.08v237.48h59.15v-96.04l-.22-11.57c0-33.18,3.17-55.44,9.5-66.79,6.33-11.35,14.08-17.02,23.25-17.02,4.51,0,10.26,1.75,17.24,5.24l18.55-51.29c-8.44-4.07-16.52-6.11-24.23-6.11-10.91,0-20.95,3.06-30.12,9.17Z"/>
      <path class="cls-1" d="M1205.14,204.1c-35.22,0-64.5,11.97-87.86,35.91-23.36,23.94-35.03,54.02-35.03,90.26s11.71,64.79,35.14,88.29c23.43,23.5,53.77,35.25,91.02,35.25,24.01,0,44.75-4.26,62.21-12.77,17.46-8.51,32.45-21.64,44.96-39.4l-50.2-23.58c-16.01,15.57-35.14,23.36-57.41,23.36-18.63,0-33.94-4.98-45.95-14.95-12.01-9.97-19.39-23.39-22.15-40.27h191.43l.22-11.35c0-39.29-11.72-70.9-35.14-94.84-23.43-23.94-53.84-35.91-91.24-35.91ZM1142.5,299.27c6.71-14.7,13.99-24.95,21.87-30.78,12.53-9.31,27.11-13.97,43.73-13.97,15.31,0,28.75,4.15,40.34,12.44,11.59,8.29,19.35,19.06,23.29,32.3h-129.22Z"/>
      <polygon class="cls-1" points="1435.16 122.68 1375.57 122.68 1375.57 210.21 1345.02 210.21 1345.02 261.5 1375.57 261.5 1375.57 447.69 1435.16 447.69 1435.16 261.5 1470.52 261.5 1470.52 210.21 1435.16 210.21 1435.16 122.68"/>
      <path class="cls-1" d="M1729.35,334.84c0-39.29-11.71-70.9-35.14-94.84-23.43-23.94-53.84-35.91-91.24-35.91-35.22,0-64.5,11.97-87.86,35.91-23.36,23.94-35.03,54.02-35.03,90.26s11.71,64.79,35.14,88.29c23.43,23.5,53.77,35.25,91.02,35.25,24.01,0,44.75-4.26,62.21-12.77,17.46-8.51,32.45-21.64,44.96-39.4l-50.2-23.58c-16.01,15.57-35.14,23.36-57.41,23.36-18.63,0-33.94-4.98-45.95-14.95-12.01-9.97-19.39-23.39-22.15-40.27h191.43l.22-11.35ZM1540.33,299.27c6.71-14.7,13.99-24.95,21.87-30.78,12.53-9.31,27.11-13.97,43.73-13.97,15.31,0,28.75,4.15,40.34,12.44,11.59,8.29,19.35,19.06,23.29,32.3h-129.22Z"/>
    </g>
  </g>
</svg>