<?xml version="1.0" encoding="UTF-8"?>
<svg id="Capa_2" data-name="Capa 2" xmlns="http://www.w3.org/2000/svg" viewBox="0 0 487.26 565.76">
  <defs>
    <style>
      .cls-1 {
        fill: #ec681d;
      }
    </style>
  </defs>
  <g id="Capa_1-2" data-name="Capa 1">
    <path class="cls-1" d="M196.53,202.39c0,29.93.38,57.85-.43,85.72-.11,3.93-5.31,9.64-9.41,11.18-14.67,5.51-29.83,9.72-44.88,14.19-61.71,18.3-65.4,92.23-30.38,128.83,23.89,24.97,53.61,37.22,87.99,25.99,34.98-11.42,54.31-37.46,57.06-74.06,2.22-29.6,2.92-59.36,3.03-89.06.36-96.67.13-193.35.13-290.02V0h94.81c8.73,78.98,52.07,124.64,132.81,133.89v89.27c-46.7.44-89.46-11.86-132.03-36.63,0,7.52.03,12.48,0,17.43-.43,56.85.34,113.74-1.62,170.53-2.6,75.52-35.45,134.41-103.11,170.72-103.48,55.54-213.37-9.24-241.92-102.21-31.45-102.45,27.23-202.74,116.5-229.7,8.75-2.64,17.7-4.96,26.73-6.25,14.21-2.02,28.56-3.04,44.73-4.67Z"/>
  </g>
</svg>