<?xml version="1.0" encoding="UTF-8"?>
<svg id="Capa_2" data-name="Capa 2" xmlns="http://www.w3.org/2000/svg" viewBox="0 0 609.68 610.93">
  <defs>
    <style>
      .cls-1 {
        fill: #ec681d;
      }
    </style>
  </defs>
  <g id="Capa_1-2" data-name="Capa 1">
    <g>
      <path class="cls-1" d="M0,610.93c11.11-40.64,21.88-80.05,32.65-119.45,2.96-10.83,6.14-21.6,8.75-32.51.66-2.76.37-6.44-.98-8.88C11.85,398.2-1.22,342.55,3.22,283.64,10.72,184.34,56.44,106.19,138.78,50.38,193.68,13.17,255.27-4,321.37.78c119.71,8.66,208.39,67.47,258.48,176.15,48.87,106.02,37.1,209.96-31.04,305.07-48.95,68.32-116.99,108.2-200.31,120.63-64.47,9.62-125.72-1.45-183.72-31.14-2.65-1.36-6.56-1.61-9.5-.85-49.42,12.74-98.78,25.72-148.16,38.64-1.99.52-4.01.93-7.12,1.65ZM72.69,538.97c1.88-.35,2.7-.46,3.48-.66,27.86-7.32,55.74-14.52,83.54-22.07,5.72-1.55,10.24-.93,15.42,2.16,55.92,33.32,116.18,44.31,179.86,31.27,134.69-27.59,221.13-154.91,198.09-290.3-19.56-114.95-118.86-202.95-235.02-207.85-64.24-2.71-122,15.7-171.69,56.64-56.77,46.77-87.76,107.5-92.3,180.93-3.34,54.07,10.26,104.23,39.5,149.92,3.38,5.28,4.06,9.81,2.33,15.85-7.93,27.65-15.35,55.45-23.2,84.12Z"/>
      <path class="cls-1" d="M206.8,163.57c13.75-3.56,19.99,4.81,24.6,16.82,6.75,17.58,14.21,34.9,21.64,52.22,2.5,5.83,2.43,11.08-1.35,16.16-6.07,8.16-11.99,16.45-18.4,24.34-4.03,4.95-4.66,9.43-1.36,15.01,24.71,41.79,59.34,71.96,104.53,89.93,5.87,2.33,10.72,1.44,14.74-3.56,7.71-9.58,15.72-18.93,23.09-28.76,4.28-5.7,9.28-7.45,15.44-4.56,21.47,10.05,42.92,20.16,64.08,30.83,2.57,1.29,4.8,6.14,4.75,9.29-.55,32.11-9.99,47.62-44.5,62.07-19.53,8.18-39.76,6.17-59.85.57-72.74-20.27-126.36-66.01-169.31-126.24-13.5-18.93-25.7-38.47-30.83-61.48-7.31-32.8.79-61.22,24.95-84.87,7.63-7.47,16.86-9.27,27.79-7.77Z"/>
    </g>
  </g>
</svg>